<?xml version="1.0" encoding="utf-8"?>
<!-- Generator: Adobe Illustrator 16.0.0, SVG Export Plug-In . SVG Version: 6.00 Build 0)  -->
<!DOCTYPE svg PUBLIC "-//W3C//DTD SVG 1.1//EN" "http://www.w3.org/Graphics/SVG/1.1/DTD/svg11.dtd">
<svg version="1.1" id="Layer_1" xmlns="http://www.w3.org/2000/svg" xmlns:xlink="http://www.w3.org/1999/xlink" x="0px" y="0px"
	 width="600px" height="600px" viewBox="0 0 600 600" enable-background="new 0 0 600 600" xml:space="preserve">
<circle fill="none" stroke="#4F3162" stroke-width="12" stroke-miterlimit="10" cx="298.898" cy="299.906" r="290.235"/>
<path fill-rule="evenodd" clip-rule="evenodd" fill="#4F3162" d="M279.761,291.099c0.811-5.097,3.703-9.256,6.387-13.425
	c1.307-2.028,3.547-3.457,5.363-5.157c1.419-0.561,2.839-1.118,4.255-1.685c1.29-0.516,2.536-1.216,3.873-1.532
	c5.924-1.401,11.875-2.693,17.993-4.065c0.688,0.857,1.553,2.125,2.604,3.213c3.175,3.283,5.004,3.353,8.689,0.494
	c0.553-0.428,1.085-1.01,1.72-1.182c2.478-0.677,2.653-2.521,2.688-4.619c0.029-1.693-0.466-3.526,0.934-5.07
	c0.476,1.171,0.74,2.349,0.665,3.504c-0.168,2.541,0.85,4.478,2.989,5.618c3.55,1.893,7.221,3.561,10.839,5.322
	c1.032,0.895,2.193,1.681,3.068,2.709c1.342,1.58,2.619,3.248,3.695,5.018c2.804,4.615,7.745,6.854,11.436,10.479
	c2.201,2.163,5.095,1.049,7.693,1.305c1.878-0.4,3.921-0.461,5.599-1.273c3.007-1.459,5.707-3.544,8.695-5.05
	c4.057-2.045,6.891-5.117,8.793-9.383c0.937,0.478,1.787,0.911,2.638,1.345c2.217,1.645,4.541,3.167,6.613,4.978
	c1.406,1.229,3.027,1.494,4.146,0.485c1.511-1.363,5.316-0.847,4.176-4.602c-4.076-2.35-4.078-2.323-8.486-2.593
	c-0.791-0.049-1.561-0.416-2.34-0.636c0.134-1.305,0.269-2.611,0.411-3.996c6.536,1.768,12.044,4.26,16.916,8.058
	c-5.319,3.149-10.056,7.003-16.149,8.126c-0.372,0.069-0.684,0.479-1.02,0.735c-4.789,3.657-9.505,7.414-14.383,10.947
	c-6.347,4.597-13.11,7.907-21.359,7.453c-3.874-0.214-7.096-1.238-10.005-3.709c-1.358-1.153-2.925-2.065-5.104-3.579
	c-0.378,1.953-0.758,3.187-0.809,4.434c-0.032,0.803,0.469,1.614,0.645,2.439c0.47,2.23-0.116,3.18-2.289,3.588
	c-0.821,0.155-1.687,0.113-2.531,0.113c-16.234,0.006-32.468,0.013-48.701-0.013c-1.214-0.002-2.428-0.243-4.139-0.425
	c0.454-5.323-0.938-10.335,0.853-15.307c0.236-0.655-0.051-1.499-0.095-2.257c-0.858,0.25-2.131,0.229-2.498,0.796
	c-1.281,1.974-2.549,4.054-3.269,6.272c-1.102,3.401-1.743,6.951-2.578,10.423c-4.444,0.871-8.603,0.729-11.969-0.559
	c0.768-3.812,1.577-7.712,2.33-11.622C279.134,295.186,279.424,293.138,279.761,291.099z"/>
<path fill-rule="evenodd" clip-rule="evenodd" fill="#4F3162" d="M531.152,272.518c2.655,0.942,3.709,3.333,4.857,5.557
	c2.435,4.719,4.967,9.408,7.032,14.289c1.223,2.89,1.644,6.121,2.401,9.205c0.394,1.603,0.763,3.212,1.092,4.828
	c0.241,1.188,0.399,2.392,0.672,4.054c-4.896,0-9.32,0-13.862,0c-2.204-6.784-2.716-14.313-8.225-20.669
	c-1.257,3.798-1.109,6.701-0.091,9.657c1.22,3.54,1.144,7.14,0.414,11.078c-19.827,0-39.497,0-59.579,0
	c-0.465-5.879-0.806-11.516,0.662-17.218c-5.104,4.468-4.651,11.002-6.575,17.185c-4.134,0.771-8.576,0.272-13.517,0.252
	c-0.101-1.859-0.553-3.56-0.201-5.073c0.748-3.208,2.229-6.26,2.837-9.483c0.924-4.908,3.157-9.231,5.525-13.456
	c1.747-3.118,2.497-6.913,5.658-9.161c0.56-0.397,1.189-0.697,1.787-1.043c4.202-1.387,8.038-4.102,12.786-3.512
	c0.125,0.016,0.263-0.094,0.397-0.13c3.746-1.028,7.459-2.206,11.251-3.021c2.072-0.445,2.903-1.461,2.913-3.43
	c0.013-2.398-0.042-4.803,0.116-7.192c0.045-0.666,0.74-1.289,1.137-1.933c0.614,2.137,0.455,3.925,0.434,5.714
	c-0.103,8.221-0.088,8.222,7.657,11.485c3.796-1.207,7.011-2.965,7.245-7.396c1.802,1.448,3.201,3.258,5.011,3.881
	c3.257,1.121,6.733,1.724,10.167,2.168c2.004,0.259,3.728,0.52,5.416,1.869C527.747,271.961,529.601,272.05,531.152,272.518z"/>
<path fill-rule="evenodd" clip-rule="evenodd" fill="#4F3162" d="M469.923,474.448c-3.854-1.963-7.727-3.894-11.559-5.898
	c-3.345-1.75-6.796-3.358-9.923-5.444c-3.497-2.333-7.384-1.969-10.562-0.733c-4.102,1.595-8.066,1.393-12.005,0.893
	c-3.458-0.438-5.677,0.583-7.553,3.208c-0.727,1.017-1.517,1.999-2.373,2.906c-2.357,2.493-2.664,3.8-1.066,6.75
	c2.037,3.765,3.475,7.649,3.37,12.013c-0.021,0.804,0.227,1.697,0.607,2.412c1.43,2.689,1.606,5.426,0.117,8.055
	c-1.054,1.859-0.676,3.236,0.804,4.463c1.728,1.432,3.493,2.823,5.31,4.139c1.331,0.963,2.497,1.859,1.08,3.896
	c-3.37-1.433-6.623-2.495-9.11-5.626c-1.938-2.438-4.995-4.009-7.62-5.874c-3.17-2.253-6.354-4.496-9.636-6.58
	c-2.344-1.488-4.91-2.625-7.289-4.065c-4.655-2.818-9.034-6.208-13.941-8.464c-3.708-1.705-7.518-3.356-11.587-4.526
	c-5.911-1.697-11.684-1.092-17.521-1.341c-2.212-0.096-4.485-0.368-6.543,1.109c-0.438,0.313-1.632-0.426-2.477-0.681
	c0.32-0.813,0.479-1.763,1.01-2.402c0.509-0.612,1.379-1.219,2.136-1.282c5.308-0.448,9.221-3.626,13.354-6.474
	c3.949-2.721,8.647-3.546,13.115-5.037c7.35-2.453,14.774-1.097,22.152-1.552c0.844-0.052,1.832,0.138,2.504-0.235
	c4.025-2.241,7.978-4.613,12.009-6.973c-3.454-9.068-0.69-16.604,4.743-23.616c1.336-1.725,2.416-3.648,3.46-5.245
	c-2.163-3.278-3.996-6.054-6.166-9.341c3.55-0.798,6.592-1.766,9.704-2.116c4.744-0.534,8.767-2.699,12.833-4.873
	c0.246-0.131,0.449-0.342,0.679-0.506c4.571-3.271,10.001-4.178,15.273-5.481c4.233-1.046,8.124,0.763,11.756,2.3
	c6.012,2.543,11.143,6.29,13.886,12.769c1.524,3.599,5.114,5.603,8.438,7.454c4.019,2.238,8.217,4.155,12.338,6.211
	c2.984,1.771,5.886,3.705,8.972,5.277c5.845,2.976,5.893,2.891,3.192,8.871c-0.099,0.219-0.427,0.335-0.819,0.627
	c-1.555-1.246-2.854-0.709-4.338,0.592c-1.562,1.368-3.452,2.394-5.283,3.42c-5.738,3.213-11.577,6.25-17.257,9.562
	c-4.058,2.368-5.218,7.648-2.761,12.5c5.156-3.061,10.357-6.003,15.408-9.186c5.058-3.186,9.963-6.611,14.941-9.937
	c2.529,2.284,2.61,3.812-0.038,5.461c-4.264,2.654-8.641,5.126-12.978,7.663c-3.863,2.259-7.628,4.72-11.636,6.686
	C477.513,471.939,474.496,475.31,469.923,474.448z M477.55,452.5c8.18-4.247,16.804-7.788,23.914-14.715
	c-2.986-1.875-5.516-3.551-8.134-5.073c-1.53-0.889-3.204-1.532-4.812-2.286c-3.853-2.176-7.662-4.442-12.065-5.854
	c-0.271,0.854-0.559,1.369-0.581,1.896c-0.245,5.671-2.15,10.867-5.848,14.996c-2.614,2.919-2.999,5.839-2.534,9.312
	c0.646,4.827-0.773,7.475-5.202,9.885c-0.743,0.404-1.524,0.752-2.215,1.232c-1.539,1.071-1.561,2.274,0.118,3.225
	c2.156,1.222,4.448,2.203,6.523,3.211c0.42-0.369,0.596-0.446,0.617-0.555c0.101-0.533,0.166-1.074,0.234-1.613
	c0.549-4.365,1.919-8.17,6.18-10.415C475.185,454.987,476.291,453.6,477.55,452.5z M439.308,457.519
	c4.028-1.772,8.049-3.565,12.101-5.281c0.39-0.165,0.98,0.146,1.478,0.235c-0.046,0.562-0.181,1.134-0.123,1.685
	c0.41,3.975,2.91,5.209,6.482,3.553c2.1-0.974,3.271-2.582,4.229-4.459c1.025-2.012,0.619-3.103-1.383-4.089
	c-0.938-0.461-1.93-0.81-3.553-1.481c2.251-2.378,4.093-4.258,5.861-6.203c4.083-4.49,6.419-9.514,6.649-15.846
	c0.349-9.539-4.739-15.099-12.324-19.278c-1.208-0.666-2.539-1.41-3.861-1.515c-7.51-0.591-14.759-0.042-21.562,3.938
	c-4.283,2.506-8.861,4.717-13.938,5.339c-1.854,0.227-2.521,1.39-2.145,2.938c0.489,2.012,1.356,3.932,2.14,6.111
	c-1.49,2.122-2.913,4.591-4.764,6.682c-2.828,3.194-3.911,6.805-4.619,10.989c-1.243,7.362,2.328,12.2,7.772,15.5
	c6.579,3.988,14.078,2.572,21.305,1.509C439.149,457.831,439.223,457.632,439.308,457.519z M396.203,463.123
	c0.699,1.737,1.196,3.503,2.075,5.051c1.744,3.075,7.35,4.138,10.512,1.831c2.602-1.896,4.889-4.227,7.292-6.391
	c1.538-1.387,1.214-2.743-0.273-3.892c-1.864-1.439-3.76-2.846-5.729-4.134c-0.496-0.325-1.489-0.439-1.968-0.16
	C404.053,457.794,399.292,459.114,396.203,463.123z"/>
<path fill-rule="evenodd" clip-rule="evenodd" fill="#4F3162" d="M158.505,215.308c-3.274,0.655-6.071,0.956-8.929-0.426
	c-2.897-1.402-4.626-0.656-6.144,2.325c-1.263,2.481-2.642,4.922-3.685,7.496c-2.33,5.751-7.552,7.932-12.453,10.652
	c-3.56,1.978-7.331,1.519-11.091,1.754c-1.085,0.066-2.127,0.852-3.188,1.308c0.912,1.129,1.702,3.095,2.758,3.25
	c6.16,0.909,11.252,4.041,16.427,7.105c4.961,2.938,8.446,6.849,9.022,12.854c0.234,2.441-0.178,3.085-2.541,3.348
	c-0.978,0.108-1.975,0.059-2.964,0.059c-23.027,0.002-46.055,0.008-69.083-0.002c-5.822-0.002-5.815-0.079-4.992-5.644
	c0.709-4.799,4.152-7.604,7.619-10.17c2.789-2.064,6.021-3.603,9.208-5.038c2.75-1.24,5.713-2.008,9.536-3.308
	c0.447-1.802,0.914-4.512,1.806-7.075c1.096-3.146,2.336-6.28,3.899-9.214c1.607-3.02,1.515-5.79,0.202-8.824
	c-1.432-3.311-2.967-6.594-2.577-10.443c0.181-1.772-0.31-3.649-0.709-5.431c-0.369-1.654-1.193-2.815-2.954-3.748
	c-4.48-2.37-7.412-5.854-6.458-11.537c0.872-5.188,3.977-8.518,8.292-11.017c0.232-0.136,0.561-0.235,0.813-0.188
	c4.314,0.799,6.266-1.797,7.741-5.238c1.99-4.646,5.455-8.152,9.084-11.54c2.37-2.214,5.092-3.401,8.316-3.715
	c1.481-0.144,2.906-1.035,4.379-1.104c3.46-0.161,6.938-0.138,10.397,0.035c1.335,0.067,2.616,0.87,3.962,1.106
	c3.292,0.578,6.069,1.955,8.505,4.312c4.062,3.928,8.168,7.827,9.821,13.425c1.09,3.689,2.944,7.222,2.676,11.256
	c-0.316,4.76-0.887,9.532-0.757,14.281c0.094,3.422,1.078,6.832,1.808,10.217C156.883,209.349,157.714,212.224,158.505,215.308z
	 M151.54,211.24c-0.131-1.937-0.127-3.426-0.354-4.879c-0.319-2.04-1.036-4.039-1.171-6.082c-0.205-3.094,0.037-6.214-0.076-9.317
	c-0.202-5.554,0.757-11.15-1.612-16.593c-2.898-6.66-6.135-12.912-12.986-16.315c-6.934-3.446-13.867-3.791-20.847,0.081
	c-5.413,3.003-9.791,7.017-12.552,12.555c-1.725,3.461-3.014,7.14-4.569,10.889c-1.683,0.811-2.521-0.809-3.754-1.658
	c-0.837-0.577-2.495-1.324-2.855-0.991c-1.593,1.475-3.625,3.127-4.085,5.053c-1.514,6.329,1.508,8.842,7.777,6.938
	c0.186,0.202,0.532,0.403,0.536,0.612c0.099,5.002,0.032,9.914,1.391,14.925c0.828,3.06,1.641,6.116,2.756,9.092
	c0.341,0.909,0.698,1.813,1.062,2.715c2.705,6.704,6.996,11.791,14.451,13.135c5.513,0.993,11.028,1.023,15.652-2.956
	c4.665-4.014,7.989-9.029,10.293-14.682c1.65-4.05,2.191-4.568,6.459-3.926C148.269,210.018,149.426,210.562,151.54,211.24z
	 M106.798,244.849c0.811-3.002,1.634-5.519,2.109-8.1c0.163-0.888-0.237-2.313-0.9-2.843c-2.908-2.325-6.008-4.412-9.37-6.825
	c0.196-0.081-0.357-0.032-0.528,0.248c-2.987,4.936-5.173,10.162-4.746,16.064c0.159,2.185,1.73,3.416,3.982,3.685
	C100.829,247.494,104.033,246.819,106.798,244.849z"/>
<path fill-rule="evenodd" clip-rule="evenodd" fill="#4F3162" d="M143.162,254.144c0.284-0.916,0.292-1.246,0.46-1.439
	c4.418-5.092,8.933-10.102,13.262-15.267c4.486-5.353,8.572-11.058,13.257-16.225c3.612-3.984,6.956-8.151,12.214-10.703
	c4.595-2.231,8.945-2.965,13.738-2.466c1.325,0.139,2.656,0.716,3.869,1.324c2.5,1.253,4.923,2.662,7.575,4.117
	c0.913-0.888,1.781-1.575,2.456-2.417c1.598-1.99,3.511-3.105,6.16-3.104c1.188,0.001,2.406-0.557,3.557-1
	c2.434-0.938,3.685-0.227,3.284,2.318c-0.387,2.446-1.343,4.803-2.032,7.202c-0.692,2.409-1.512,4.793-2.012,7.241
	c-0.742,3.639-2.155,6.65-5.038,9.275c-4.37,3.978-8.232,8.513-12.33,12.792c-2.535,2.647-5.122,5.244-7.658,7.891
	c-2.725,2.843-5.469,5.67-8.107,8.591c-2.621,2.902-5.733,3.504-9.425,2.173c-3.244-1.171-6.659-1.863-9.989-2.797
	c-1.87-0.523-3.709-1.159-5.586-1.652c-4.68-1.229-9.397-2.319-14.046-3.656C145.502,255.979,144.429,254.938,143.162,254.144z
	 M210.531,230.129c-4.664-2.655-8.714-5.148-12.933-7.31c-4.256-2.18-8.71-3.967-13.02-6.049c-2.771-1.34-3.461-1.267-5.394,1.024
	c-2.909,3.45-5.873,6.856-8.813,10.282c-3.763,4.385-7.55,8.75-11.28,13.164c-2.272,2.688-4.482,5.43-6.662,8.194
	c-0.627,0.796-1.045,1.757-1.774,3.009c5.402,1.551,10.237,2.912,15.054,4.334c2.825,0.834,5.586,1.906,8.438,2.62
	c3.395,0.851,6.698,1.662,9.47-1.95c1.855-2.416,4.685-4.056,6.84-6.273C197.037,244.402,203.501,237.519,210.531,230.129z
	 M209.104,220.005c-3.559-2.725-6.502-5.587-9.977-7.471c-3.599-1.949-7.665-1.257-11.577,0.04
	c6.892,4.158,13.825,7.906,20.87,11.431c1.672,0.838,3.307-0.049,4.233-1.776c1.122-2.093,2.276-4.173,3.291-6.317
	c0.546-1.156,0.826-2.438,1.302-3.891c-2.756-0.643-4.348-0.268-5.282,2.049C211.159,216.064,210.104,217.958,209.104,220.005z"/>
<path fill-rule="evenodd" clip-rule="evenodd" fill="#4F3162" d="M400.377,277.663c-0.851-0.434-1.701-0.867-2.638-1.345
	c-1.902,4.266-4.736,7.338-8.793,9.383c-2.988,1.506-5.688,3.591-8.695,5.05c-1.678,0.812-3.721,0.873-5.599,1.273
	c5.152-2.684,10.518-5.037,15.375-8.177c2.781-1.799,5.147-4.198,6.257-8.064c1.085-3.775,1.206-7.399,1.429-11.153
	c0.22-3.686,0.976-6.521,4.871-8.936c4.169-2.584,9.155-3.509,12.84-6.885c1.015-0.929,2.635-1.251,3.526-2.252
	c3.819-4.29,7.9-3.388,12.102-0.858c2.762,1.662,5.354,3.625,8.191,5.138c2.694,1.438,5.617,2.448,8.423,3.682
	c1.533,0.674,3.08,1.338,4.538,2.154c2.39,1.34,2.809,2.626,1.599,5.154c-1.052,2.2-1.039,4.234,0.049,6.441
	c1.281,2.599,0.797,3.142-1.729,4.504c-4.174,2.249-8.224,4.732-12.278,7.194c-2.993,1.816-5.866,3.833-8.899,5.575
	c-0.673,0.386-2.074,0.354-2.666-0.102c-5.211-4.006-10.055-3.395-15.082,0.479c-1.564,1.207-3.9,1.374-5.812,2.185
	c-0.991,0.421-1.872,1.154-2.727,1.841c-3.165,2.543-6.181,5.291-9.473,7.654c-5.32,3.818-10.923,7.306-17.203,9.233
	c-2.863,0.88-6.113,0.489-9.187,0.693c-2.715,0.182-5.329-0.062-7.648-1.677c-0.912-0.635-1.835-1.257-2.756-1.876
	c-1.233-0.83-2.471-1.654-4.284-2.02c0.375,1.263,0.881,2.504,1.098,3.794c0.514,3.056-0.949,4.865-4.047,5.14
	c-0.842,0.074-1.694,0.028-2.542,0.028c-16.103,0.001-32.205,0.006-48.308-0.008c-1.522-0.001-3.045-0.124-5.094-0.215
	c0-5.29,0-10.301,0-15.312c-0.389-0.067-0.777-0.133-1.166-0.2c-2.759,4.51-3.623,9.661-4.256,15.272
	c-4.583,0.93-9.124,0.315-14.292,0.362c0.245-7.231,1.965-13.528,4.26-19.717c-0.337,2.039-0.627,4.087-1.019,6.116
	c-0.753,3.91-1.562,7.81-2.33,11.622c3.366,1.288,7.524,1.43,11.969,0.559c0.835-3.472,1.477-7.021,2.578-10.423
	c0.72-2.219,1.987-4.299,3.269-6.272c0.367-0.566,1.64-0.546,2.498-0.796c0.044,0.758,0.331,1.602,0.095,2.257
	c-1.79,4.972-0.398,9.983-0.853,15.307c1.711,0.182,2.925,0.423,4.139,0.425c16.233,0.025,32.467,0.019,48.701,0.013
	c0.845,0,1.71,0.042,2.531-0.113c2.173-0.408,2.759-1.357,2.289-3.588c-0.176-0.825-0.677-1.637-0.645-2.439
	c0.051-1.247,0.431-2.48,0.809-4.434c2.18,1.514,3.746,2.426,5.104,3.579c2.909,2.471,6.131,3.495,10.005,3.709
	c8.249,0.454,15.013-2.856,21.359-7.453c4.878-3.533,9.594-7.29,14.383-10.947c0.336-0.257,0.647-0.666,1.02-0.735
	c6.094-1.123,10.83-4.977,16.149-8.126c-4.872-3.798-10.38-6.29-16.916-8.058c-0.143,1.385-0.277,2.691-0.411,3.996
	c-1.186-1.601-0.442-4.696-3.959-4.846c-0.136,1.304-0.263,2.519-0.389,3.732c-0.005,0.649-0.008,1.299-0.012,1.948
	C400.209,276.642,400.293,277.152,400.377,277.663z M448.311,259.66c-0.708-0.602-0.988-0.942-1.348-1.129
	c-6.728-3.489-13.426-7.042-20.244-10.347c-1.012-0.49-2.859-0.207-3.878,0.428c-5.457,3.407-11.262,6.169-16.806,9.4
	c-1.878,1.094-3.886,2.286-4.422,4.152c1.931,2.593,3.46,4.917,5.284,6.98c0.866,0.98,2.26,1.532,3.475,2.16
	c2.348,1.214,4.767,2.291,7.104,3.522c2.546,1.343,5.033,2.798,7.639,4.256c1.197-5.517,1.471-5.74,4.438-7.527
	c5.772-3.476,11.465-7.085,17.183-10.652C447.192,260.62,447.587,260.237,448.311,259.66z M450.431,263.554
	c-0.379,0-0.875-0.154-1.182,0.022c-5.676,3.249-11.338,6.521-16.983,9.824c-2.235,1.308-3.034,3.63-2.274,6.175
	c0.414,1.388,1.374,1.743,2.608,1.345c0.647-0.208,1.205-0.71,1.785-1.104c4.598-3.137,9.154-6.297,14.252-8.661
	C451.61,269.774,451.928,267.472,450.431,263.554z"/>
<path fill-rule="evenodd" clip-rule="evenodd" fill="#4F3162" d="M531.152,272.518c-1.552-0.468-3.405-0.557-4.581-1.495
	c-1.688-1.35-3.412-1.61-5.416-1.869c-3.434-0.444-6.91-1.047-10.167-2.168c-1.81-0.623-3.209-2.433-5.011-3.881
	c-0.234,4.432-3.449,6.189-7.245,7.396c-7.745-3.264-7.76-3.265-7.657-11.485c0.021-1.789,0.181-3.577-0.434-5.714
	c-0.396,0.644-1.092,1.267-1.137,1.933c-0.158,2.39-0.104,4.794-0.116,7.192c-0.01,1.969-0.841,2.984-2.913,3.43
	c-3.792,0.814-7.505,1.992-11.251,3.021c-0.135,0.036-0.272,0.146-0.397,0.13c-4.748-0.59-8.584,2.125-12.786,3.512
	c2.64-2.743,5.791-4.019,9.654-4.421c3.669-0.381,7.236-1.753,10.845-2.698c0.406-0.106,0.786-0.309,1.191-0.42
	c4.521-1.236,4.521-1.234,4.668-4.528c0.232-5.2-0.103-5.63-4.248-7.423c-4.352-1.883-6.594-5.562-7.591-9.987
	c-0.643-2.85-0.886-5.79-1.363-9.078c-2.01-0.161-3.953-0.242-5.874-0.491c-2.598-0.336-3.181-1.379-2.035-3.669
	c0.691-1.382,1.677-2.614,2.387-3.989c1.271-2.462,2.268-4.924,2.817-7.776c0.967-5.017,2.221-10.303,4.815-14.593
	c2.684-4.437,6.723-8.314,12.574-9.115c1.901-0.26,3.799-1.545,5.594-1.359c2.873,0.297,5.739,1.22,8.469,2.249
	c7.927,2.991,11.538,9.344,12.718,17.3c0.369,2.489,1.981,3.605,3.816,4.669c3.557,2.062,4.1,5.433,3.731,9.006
	c-0.333,3.238-2.065,5.31-5.564,5.96c-1.28,0.238-3.106,1.591-3.344,2.718c-1.379,6.535-5.941,11.001-9.74,15.98
	c-0.165,0.216-0.238,0.503-0.097,0.192c0.397,2.559,0.897,4.577,0.988,6.614c0.218,4.869,3.636,8.171,8.057,9.097
	C520.197,267.945,526.619,267.75,531.152,272.518z M515.284,220.493c-1.662-5.5-2.554-10.96-5.678-15.501
	c-1.368-1.99-3.279-3.697-5.207-5.194c-3.259-2.531-7.217-1.757-10.973-1.826c-3.72-0.07-6.766,1.443-9.396,3.946
	c-5.12,4.871-7.585,10.976-8.028,17.906c-0.133,2.066-0.669,3.766-1.859,5.454c-1.062,1.507-1.702,3.311-2.602,5.131
	c1.012,0.256,1.41,0.414,1.819,0.45c4.933,0.443,4.631,0.474,5.216,5.452c0.596,5.072,2.66,9.767,6.709,13.066
	c3.139,2.558,7.019,3.931,10.992,2.197c6.094-2.661,10.798-6.958,13.376-13.258c1.409-3.443,2.723-6.926,4.196-10.686
	c1.461,0.457,2.849,0.893,4.062,1.273c2.404-1.272,3.097-3.134,2.596-5.446C519.914,220.731,517.443,220.995,515.284,220.493z
	 M492.001,255.16c0,2.47-0.003,4.29,0.001,6.111c0.013,4.688,1.152,6.27,5.607,7.453c2.233,0.594,4.081-0.312,5.646-1.894
	c1.508-1.521,1.524-3.103,0.582-5.005c-0.594-1.201-0.719-2.658-0.921-4.02c-0.201-1.351-0.234-2.726-0.33-3.946
	C498.564,251.915,495.953,255.52,492.001,255.16z"/>
<path fill-rule="evenodd" clip-rule="evenodd" fill="#4F3162" d="M348.76,272.515c-3.618-1.762-7.289-3.43-10.839-5.322
	c-2.14-1.141-3.157-3.077-2.989-5.618c0.075-1.155-0.189-2.333-0.665-3.504c-1.399,1.544-0.904,3.377-0.934,5.07
	c-0.035,2.099-0.211,3.942-2.688,4.619c-0.635,0.172-1.167,0.754-1.72,1.182c-3.686,2.858-5.515,2.789-8.689-0.494
	c-1.051-1.088-1.916-2.355-2.604-3.213c-6.118,1.372-12.069,2.664-17.993,4.065c-1.337,0.316-2.583,1.017-3.873,1.532
	c-1.416,0.566-2.836,1.124-4.255,1.685c2.404-2.519,5.275-3.851,8.788-4.392c3.805-0.586,7.495-1.9,11.244-2.862
	c1.339-0.343,2.702-0.582,4.278-0.916c0.699-4.031,1.567-7.955,1.96-11.926c0.13-1.317-0.629-3.062-1.56-4.085
	c-3.158-3.467-5.471-7.331-7.07-11.739c-0.771-2.121-2.35-3.64-4.799-4.328c-4.139-1.164-5.082-2.67-5.127-6.991
	c-0.014-1.271-0.27-2.641,0.116-3.786c0.463-1.373,1.257-3.369,2.318-3.677c4.428-1.282,4.953-5.178,5.923-8.482
	c2.01-6.86,6.524-11.393,12.579-14.493c2.282-1.169,5.115-1.992,7.614-1.813c2.939,0.21,5.874,1.478,8.66,2.646
	c6.248,2.621,9.68,7.866,12.214,13.83c0.925,2.176,1.562,4.364,1.923,6.781c0.453,3.043,1.254,6.221,3.325,8.846
	c1.199,1.521,2.183,3.269,2.965,5.046c0.865,1.965-0.022,3.27-2.174,3.481c-1.788,0.176-3.593,0.195-4.838,0.257
	c-2.078,5.006-4.06,9.421-5.737,13.949c-1.018,2.743-2.716,4.459-5.416,5.468c-1.148,0.428-2.104,1.369-3.17,2.092
	c0.144,1.917,0.443,3.851,0.398,5.777c-0.064,2.775,1.106,4.408,3.676,5.479C342.966,268.079,346.367,269.539,348.76,272.515z
	 M309.321,227.967c0.624,0.933,1.716,1.87,1.906,2.962c1.266,7.271,5.329,12.915,10.471,17.787
	c4.271,4.045,12.524,5.422,17.466-0.056c2.033-2.254,3.448-4.703,4.173-7.609c0.799-3.203,1.622-6.399,2.468-9.731
	c1.915-0.33,3.886-0.67,5.896-1.017c-0.155-0.988-0.12-1.448-0.298-1.799c-2.271-4.46-5.317-8.633-4.801-14.078
	c0.067-0.715-0.598-1.529-1.002-2.253c-1.164-2.086-2.457-4.104-3.54-6.229c-2.646-5.196-6.628-8.159-12.654-7.938
	c-1.553,0.058-3.118,0.139-4.659,0.005c-2.131-0.187-3.843,0.647-5.464,1.846c-5.861,4.334-8.934,10.21-9.632,17.406
	c-0.104,1.081-0.295,2.154-0.456,3.31c-2.161,0.31-4.049,0.581-5.809,0.832C302.115,229.069,303.153,230.224,309.321,227.967z
	 M332.291,265.636c0-2.176,0.069-4.404-0.021-6.628c-0.083-2.061-1.396-3.301-3.205-4.007c-1.534-0.599-3.111-1.097-4.686-1.58
	c-2.244-0.689-3.31,0.107-3.735,2.467c-0.29,1.611-0.938,3.156-1.242,4.766c-0.257,1.357-0.774,3.031-0.239,4.09
	c0.906,1.79,2.349,3.499,3.983,4.644c0.711,0.498,2.534-0.316,3.721-0.837C328.639,267.772,330.294,266.728,332.291,265.636z"/>
<path fill-rule="evenodd" clip-rule="evenodd" fill="#7382E8" d="M469.923,474.448c4.573,0.861,7.59-2.509,11.15-4.254
	c4.008-1.966,7.772-4.427,11.636-6.686c4.337-2.537,8.714-5.009,12.978-7.663c2.648-1.649,2.567-3.177,0.038-5.461
	c-4.979,3.325-9.884,6.751-14.941,9.937c-5.051,3.183-10.252,6.125-15.408,9.186c-2.457-4.852-1.297-10.132,2.761-12.5
	c5.68-3.312,11.519-6.35,17.257-9.562c1.831-1.026,3.722-2.052,5.283-3.42c1.483-1.301,2.783-1.838,4.338-0.592
	c0.393-0.292,0.721-0.408,0.819-0.627c2.7-5.98,2.652-5.896-3.192-8.871c-3.086-1.572-5.987-3.507-8.972-5.277
	c3.437,1.532,7.013,2.824,10.258,4.69c1.851,1.064,5.194,1.08,4.84,4.473c-0.326,3.126-1.434,5.957-4.888,7.879
	c1.065,1.299,1.999,2.626,3.121,3.771c2.541,2.591,2.388,5.455-0.699,7.376c-6.301,3.921-12.641,7.783-19.032,11.553
	c-3.725,2.196-7.565,4.198-11.384,6.229C473.897,475.686,471.87,475.83,469.923,474.448z"/>
<path fill-rule="evenodd" clip-rule="evenodd" fill="#4F3162" d="M484.424,365.98c1.353,2.308-0.059,3.287-0.949,4.537
	c-1.933,2.712-4.837,4.788-5.548,8.31c-0.053,0.257,0.021,0.539,0.061,1.23c1.583,0.078,3.224,0.133,4.859,0.249
	c1.244,0.089,2.42,0.61,2.069,2.014c-0.169,0.677-1.324,1.526-2.071,1.566c-3.239,0.175-6.498,0.211-9.736,0.039
	c-2.471-0.132-3.001-1.618-1.575-3.778c2.083-3.16,4.165-6.322,6.235-9.492c0.052-0.079-0.039-0.253-0.138-0.783
	c-2-0.292-4.14-0.604-6.16-0.897c-0.771-1.909,0.177-2.878,1.548-2.937C476.914,365.872,480.82,365.98,484.424,365.98z"/>
<path fill-rule="evenodd" clip-rule="evenodd" fill="#4F3162" d="M496.64,373.819c1.181,1.383,2.906,2.515,2.817,3.479
	c-0.199,2.124-2.385,1.382-3.811,1.449c-1.654,0.078-3.321-0.115-4.839-0.185c-1.983-3.877,1.04-5.688,2.631-7.892
	c-0.205-0.375-0.273-0.721-0.473-0.83c-1.136-0.631-3.124-0.547-2.621-2.605c0.458-1.876,2.227-1.398,3.557-1.414
	c1.79-0.021,3.583,0.149,5.116,0.225C501.215,370,496.933,371.506,496.64,373.819z"/>
<path fill-rule="evenodd" clip-rule="evenodd" fill="#4F3162" d="M461.979,383.227c-2.016-0.733-3.163-1.151-4.447-1.619
	c0.44-1.818,1.841-2.122,3.197-2.21c1.394-0.091,2.822,0.008,4.206,0.218c2.487,0.376,3.168,2.137,1.676,4.248
	c-0.724,1.025-1.701,1.886-2.332,2.956c-0.477,0.811-0.585,1.838-0.917,2.975c1.312,0.454,2.541,0.881,4.295,1.488
	c-0.832,0.819-1.299,1.691-1.852,1.75c-1.95,0.208-3.938,0.247-5.899,0.144c-2.833-0.149-3.651-1.823-2.11-4.214
	c0.528-0.818,1.344-1.446,1.925-2.237C460.429,385.761,461.026,384.717,461.979,383.227z"/>
<path fill-rule="evenodd" clip-rule="evenodd" fill="#4F3162" d="M158.646,197.993c0.609-0.465,1.418-1.451,2.435-1.767
	c1.602-0.496,3.268,1.006,3.441,2.788c0.148,1.531-0.527,2.393-2.108,2.446C160.811,201.517,158.829,200.021,158.646,197.993z"/>
<path fill-rule="evenodd" clip-rule="evenodd" fill="#4F3162" d="M171.119,208.233c-0.962-1.11-1.926-2.221-2.972-3.426
	c0.764-1.912,2.227-2.062,3.717-1.282c1.959,1.024,2.332,2.651,1.033,4.54C172.305,208.12,171.713,208.177,171.119,208.233z"/>
<path fill-rule="evenodd" clip-rule="evenodd" fill="#4F3162" d="M238.7,468.757c-0.104,2.307-0.243,3.96-0.246,5.613
	c-0.017,15.83-0.006,31.659-0.02,47.488c-0.001,1.267,0.01,2.561-0.248,3.787c-0.109,0.521-0.973,1.314-1.365,1.246
	c-0.684-0.117-1.674-0.708-1.812-1.278c-0.331-1.344-0.304-2.793-0.305-4.199c-0.018-15.688-0.005-31.377-0.023-47.064
	c-0.002-1.652-0.145-3.304-0.24-5.323c-2.15-0.1-3.94-0.257-5.731-0.257c-44.803-0.013-89.606-0.009-134.408-0.013
	c-6.792,0-6.375,0.441-6.378-6.508c-0.004-7.269,0.002-7.266,7.13-7.271c2.262-0.002,4.526,0.059,6.782-0.046
	c2.714-0.126,3.521-0.898,3.867-3.481c0.973-7.236,3.883-13.903,8.183-19.488c2.974-3.862,6.77-7.94,12.84-7.853
	c2.557,0.038,5.22-0.899,7.659-1.848c1.105-0.43,1.939-1.874,2.595-3.03c0.371-0.656,0.26-1.677,0.145-2.503
	c-0.32-2.268,3.133-3.998,0.749-6.619c-1.586-1.743-2.946-3.741-4.12-5.79c-1.577-2.752-2.876-5.663-4.563-9.045
	c-1.932-0.341-4.483-0.741-5.854-3.645c-1.511-3.204-1.119-6.2,2.137-7.699c2.073-0.954,2.806-2.088,3.35-4.254
	c1.057-4.214,2.897-8.125,6.314-11.172c7.925-7.067,18.485-5.552,24.922,2.11c2.835,3.373,4.015,7.513,4.693,11.892
	c0.349,2.251,1.683,4.377,2.72,6.486c1.098,2.23,2.371,4.377,3.945,7.247c-2.942,0.255-5.238,0.453-7.865,0.681
	c-0.798,2.882-1.732,5.766-2.37,8.713c-0.6,2.771-1.556,5.111-4.498,6.081c-0.259,0.086-0.461,0.328-0.711,0.458
	c-2.018,1.047-4.326,1.975-3.841,4.862c0.457,2.714,3.507,4.73,6.125,5.647c4.817,1.686,10.394,0.838,14.605,4.474
	c3.534,3.051,7.104,6.047,7.888,11.052c0.065,0.415,0.125,0.846,0.277,1.234c1.918,4.89,3.852,9.772,5.973,15.14
	c4.082,0,8.669,0,13.632,0c-0.316-0.934-0.56-1.797-0.896-2.622c-1.146-2.807-0.913-5.708,0.397-8.214
	c0.738-1.411,2.635-2.302,4.152-3.182c0.649-0.375,1.66-0.151,2.508-0.151c14.982-0.008,29.963-0.022,44.944,0
	c4.399,0.007,4.51,0.171,4.505,4.534c-0.002,2.825,0.061,5.653-0.013,8.477c-0.08,3.066-0.321,3.255-3.481,3.441
	c-1.127,0.065-2.258,0.083-3.384,0.164c-0.264,0.02-0.514,0.209-1.351,0.572c-0.072,2.056-0.182,4.393-0.232,6.73
	c-0.094,4.231-0.153,4.32-4.221,4.418C242.164,468.784,240.767,468.757,238.7,468.757z M143.614,426.978
	c-1.79-1.688-3.577-3.373-5.077-4.786c-3.796,1.05-7.471,2.599-11.257,2.955c-3.353,0.315-5.731,1.715-8.318,3.546
	c-3.757,2.66-6.065,6.233-7.712,10.324c-1.613,4.008-3.401,8.02-4.345,12.203c-0.881,3.916-1.943,5.317-5.94,5.288
	c-3.067-0.021-6.138,0.14-9.204,0.254c-1.423,0.053-2.565,0.688-2.639,2.209c-0.134,2.766-0.679,5.59,0.685,8.741
	c1.767,0,3.576,0,5.386,0c44.813,0,89.627-0.002,134.442,0.002c6.081,0.001,6.099,0.021,6.102,6.185
	c0.007,15.55-0.011,31.101,0.024,46.652c0.004,1.398-0.442,2.984,1.157,4.737c0.217-1.546,0.454-2.467,0.459-3.389
	c0.034-6.079,0.02-12.158,0.021-18.237c0.001-10.319-0.02-20.641,0.011-30.96c0.013-4.544,0.349-4.831,4.744-4.999
	c1.36-0.051,2.716-0.213,4.608-0.367c0-3.018-0.011-5.669,0.003-8.32c0.01-2.067,1.065-3.086,3.137-3.167
	c1.636-0.064,3.267-0.238,4.877-0.361c0-4.862,0-9.236,0-13.529c-0.808-0.219-1.211-0.423-1.614-0.424
	c-15.692-0.035-31.383-0.127-47.074-0.02c-4.436,0.029-7.178,4.993-5.455,9.349c0.309,0.778,0.882,1.447,1.248,2.208
	c0.989,2.057,0.391,3.532-1.823,3.507c-4.333-0.05-8.674-0.411-12.981-0.906c-0.803-0.093-1.818-1.291-2.133-2.189
	c-1.562-4.47-3.121-8.956-4.641-13.417c-2.053-6.02-5.383-10.37-10.735-13.4c-1.062-0.602-2.278-1.173-3.464-1.273
	c-5.344-0.451-10.47-1.385-14.874-5.767C150.824,424.225,147.386,425.192,143.614,426.978z M164.496,392.543
	c-1.453-5.075-2.925-9.822-4.156-14.631c-1.293-5.051-6.834-9.842-12.021-10.1c-3.692-0.185-6.798,0.387-10.084,2.935
	c-4.134,3.207-5.841,6.812-5.862,11.699c-0.005,1.088-0.244,2.175-0.369,3.219c-4.146,0.153-6.432,1.521-6.255,3.685
	c0.052,0.64,0.443,1.69,0.855,1.785c1.644,0.375,3.355,0.448,5.455,0.679c0.651,1.869,1.472,3.921,2.081,6.032
	c1.436,4.976,5.051,8.569,8.708,11.592c4.081,3.373,12.093,1.142,14.868-3.442c1.417-2.341,2.557-4.828,2.429-7.867
	C159.968,393.942,160.572,393.514,164.496,392.543z M141.031,413.443c-0.105,2.119-0.211,4.064-0.3,6.011
	c-0.031,0.699-0.017,1.401-0.038,2.102c-0.058,1.887,1.08,2.821,2.711,3.23c2.839,0.712,6.091-1.591,6.471-4.506
	C150.604,414.688,147.31,411.942,141.031,413.443z"/>
<path fill-rule="evenodd" clip-rule="evenodd" fill="#7382E8" d="M185.243,526.291c-9.457,0-18.914,0.024-28.371-0.01
	c-5.112-0.019-6.048-0.905-6.061-5.825c-0.032-13.55-0.027-27.1-0.002-40.65c0.008-4.216,1.412-5.355,5.72-4.963
	c2.38,0.217,4.771,0.415,7.158,0.42c16.938,0.036,33.875,0.02,50.812,0.022c1.129,0,2.259,0.023,3.387,0.04
	c1.729,0.024,2.594,0.918,2.594,2.633c0.004,14.819,0.008,29.64-0.006,44.459c-0.003,2.029-1.328,3.095-3.093,3.507
	c-1.354,0.315-2.791,0.364-4.192,0.369c-9.315,0.029-18.632,0.016-27.946,0.016C185.243,526.303,185.243,526.297,185.243,526.291z
	 M219.143,523.732c0.226-1.646,0.47-2.6,0.471-3.554c0.021-13.41,0.037-26.821-0.013-40.231c-0.012-3.485-0.3-3.747-4-3.753
	c-20.045-0.029-40.091-0.018-60.137,0.011c-1.077,0.001-2.154,0.279-3.325,0.442c-0.174,1.067-0.419,1.881-0.421,2.694
	c-0.025,13.693-0.053,27.387,0.003,41.079c0.014,3.312,1.488,4.336,4.91,3.993c3.072-0.309,6.16-0.647,9.241-0.659
	c15.951-0.062,31.903-0.024,47.855-0.022C215.399,523.733,217.07,523.732,219.143,523.732z"/>
<path fill-rule="evenodd" clip-rule="evenodd" fill="#7382E8" d="M488.518,430.426c1.608,0.754,3.282,1.397,4.812,2.286
	c2.618,1.522,5.147,3.198,8.134,5.073c-7.11,6.927-15.734,10.468-23.914,14.715c-2.91,1.497-5.82,2.993-9.09,4.677
	c0.093-0.92-0.039-1.684,0.26-2.195c1.033-1.775,0.842-3.511,0.098-5.27c-1.145-2.707-0.473-4.869,1.697-6.803
	c2.488-2.219,3.803-5.113,4.557-8.358c0.617-2.658,1.573-5.237,2.49-8.212c1.502,0.651,2.859,1.318,4.272,1.834
	C484.042,428.979,486.288,429.68,488.518,430.426z"/>
<path fill-rule="evenodd" clip-rule="evenodd" fill="#7382E8" d="M488.518,430.426c-2.229-0.746-4.476-1.447-6.684-2.253
	c-1.413-0.516-2.771-1.183-4.272-1.834c-0.917,2.975-1.873,5.554-2.49,8.212c-0.754,3.245-2.068,6.14-4.557,8.358
	c-2.17,1.934-2.842,4.096-1.697,6.803c0.744,1.759,0.936,3.494-0.098,5.27c-0.299,0.512-0.167,1.275-0.26,2.195
	c3.27-1.684,6.18-3.18,9.09-4.677c-1.259,1.1-2.365,2.487-3.805,3.245c-4.261,2.245-5.631,6.05-6.18,10.415
	c-0.068,0.539-0.134,1.08-0.234,1.613c-0.021,0.108-0.197,0.186-0.617,0.555c-2.075-1.008-4.367-1.989-6.523-3.211
	c-1.679-0.95-1.657-2.153-0.118-3.225c0.69-0.48,1.472-0.828,2.215-1.232c4.429-2.41,5.848-5.058,5.202-9.885
	c-0.465-3.474-0.08-6.394,2.534-9.312c3.697-4.129,5.603-9.325,5.848-14.996c0.022-0.526,0.311-1.041,0.581-1.896
	C480.855,425.983,484.665,428.25,488.518,430.426z"/>
<path fill-rule="evenodd" clip-rule="evenodd" fill="#7382E8" d="M210.531,230.129c-7.03,7.39-13.494,14.273-20.074,21.046
	c-2.155,2.218-4.984,3.857-6.84,6.273c-2.771,3.612-6.075,2.801-9.47,1.95c-2.853-0.714-5.613-1.786-8.438-2.62
	c-4.816-1.422-9.651-2.783-15.054-4.334c0.729-1.252,1.147-2.213,1.774-3.009c2.18-2.765,4.39-5.507,6.662-8.194
	c3.73-4.414,7.518-8.779,11.28-13.164c2.94-3.426,5.904-6.832,8.813-10.282c1.933-2.291,2.622-2.364,5.394-1.024
	c4.31,2.082,8.764,3.869,13.02,6.049C201.817,224.98,205.867,227.474,210.531,230.129z"/>
<path fill-rule="evenodd" clip-rule="evenodd" fill="#7382E8" d="M448.311,259.66c-0.724,0.577-1.118,0.96-1.574,1.244
	c-5.718,3.567-11.41,7.177-17.183,10.652c-2.968,1.787-3.241,2.011-4.438,7.527c-2.605-1.458-5.093-2.913-7.639-4.256
	c-2.338-1.231-4.757-2.309-7.104-3.522c-1.215-0.628-2.608-1.18-3.475-2.16c-1.824-2.063-3.354-4.388-5.284-6.98
	c0.536-1.866,2.544-3.059,4.422-4.152c5.544-3.231,11.349-5.993,16.806-9.4c1.019-0.635,2.866-0.918,3.878-0.428
	c6.818,3.305,13.517,6.857,20.244,10.347C447.322,258.718,447.603,259.059,448.311,259.66z"/>
<path fill-rule="evenodd" clip-rule="evenodd" fill="#7382E8" d="M450.431,263.554c1.497,3.918,1.18,6.221-1.794,7.601
	c-5.098,2.364-9.654,5.524-14.252,8.661c-0.58,0.395-1.138,0.896-1.785,1.104c-1.234,0.398-2.194,0.043-2.608-1.345
	c-0.76-2.545,0.039-4.867,2.274-6.175c5.646-3.303,11.308-6.575,16.983-9.824C449.556,263.399,450.052,263.554,450.431,263.554z"/>
<path fill-rule="evenodd" clip-rule="evenodd" fill="#4F3162" d="M143.614,426.978c3.771-1.785,7.21-2.753,7.616-7.353
	c4.404,4.382,9.53,5.315,14.874,5.767c1.186,0.101,2.402,0.672,3.464,1.273c5.353,3.03,8.683,7.381,10.735,13.4
	c1.52,4.461,3.079,8.947,4.641,13.417c0.314,0.898,1.33,2.097,2.133,2.189c4.308,0.495,8.648,0.856,12.981,0.906
	c2.214,0.025,2.812-1.45,1.823-3.507c-0.366-0.761-0.939-1.43-1.248-2.208c-1.723-4.355,1.02-9.319,5.455-9.349
	c15.691-0.107,31.382-0.016,47.074,0.02c0.403,0.001,0.807,0.205,1.614,0.424c0,4.293,0,8.667,0,13.529
	c-1.61,0.123-3.241,0.297-4.877,0.361c-2.071,0.081-3.127,1.1-3.137,3.167c-0.014,2.651-0.003,5.303-0.003,8.32
	c-1.893,0.154-3.248,0.316-4.608,0.367c-4.396,0.168-4.731,0.455-4.744,4.999c-0.03,10.319-0.01,20.641-0.011,30.96
	c-0.001,6.079,0.014,12.158-0.021,18.237c-0.005,0.922-0.242,1.843-0.459,3.389c-1.6-1.753-1.153-3.339-1.157-4.737
	c-0.035-15.552-0.018-31.103-0.024-46.652c-0.003-6.163-0.021-6.184-6.102-6.185c-44.815-0.004-89.629-0.002-134.442-0.002
	c-1.81,0-3.619,0-5.386,0c-1.363-3.151-0.818-5.976-0.685-8.741c0.073-1.521,1.216-2.156,2.639-2.209
	c3.066-0.114,6.137-0.275,9.204-0.254c3.997,0.029,5.06-1.372,5.94-5.288c0.943-4.184,2.731-8.195,4.345-12.203
	c1.646-4.091,3.955-7.664,7.712-10.324c2.587-1.831,4.966-3.23,8.318-3.546c3.786-0.356,7.461-1.905,11.257-2.955
	C140.037,423.604,141.824,425.29,143.614,426.978z M251.047,444.321c-0.703-0.096-1.251-0.235-1.799-0.236
	c-10.562-0.011-21.126-0.012-31.688,0.01c-0.836,0.001-1.742-0.002-2.494,0.301c-1.829,0.736-2.925,2.086-2.989,4.18
	c-0.06,1.908,0.988,2.84,2.668,3.242c2.038,0.489,4.094,1.326,6.135,1.308c9.704-0.091,19.404-0.412,29.106-0.691
	c0.496-0.016,0.981-0.41,1.577-0.676C251.396,449.328,251.234,447.008,251.047,444.321z M167.86,466.003
	c23.607,0,47.214,0,70.82-0.004c1.271,0,2.547,0.01,3.813-0.084c1.468-0.107,2.239-0.958,2.463-2.431
	c0.462-3.056-0.678-4.237-4.563-4.246c-20.312-0.04-40.625-0.03-60.938-0.038c-6.196-0.002-12.392-0.002-18.588-0.001
	c-18.333,0.004-36.665,0.005-54.998,0.015c-3.958,0.002-7.918-0.062-11.872,0.077c-2.583,0.091-3.303,0.98-3.289,3.372
	c0.015,2.378,0.734,3.118,3.364,3.31c1.126,0.082,2.262,0.03,3.392,0.03C120.93,466.005,144.396,466.004,167.86,466.003z
	 M209.777,444.649c-2.941-1.143-4.328-0.936-5.662,0.926c-1,1.395-1.038,2.848-0.126,4.285c1.208,1.906,2.633,2.158,5.281,1.24
	C209.449,448.815,209.612,446.745,209.777,444.649z M122.035,443.03c-0.477-0.114-0.954-0.229-1.432-0.345
	c-0.431,3.753-2.664,6.882-2.688,10.718c-0.003,0.562,1.192,1.484,1.944,1.618c1.264,0.227,2.143-0.63,2.161-1.979
	C122.065,449.706,122.035,446.368,122.035,443.03z M174.105,455.116c0.745-3.748-1.042-7.63-4.229-8.963
	c-0.143,0.543-0.366,1.059-0.399,1.587c-0.069,1.114-0.092,2.234-0.038,3.349C169.602,454.522,170.196,455.019,174.105,455.116z"/>
<path fill-rule="evenodd" clip-rule="evenodd" fill="#7382E8" d="M219.143,523.732c-2.072,0-3.743,0.001-5.415,0
	c-15.952-0.002-31.904-0.04-47.855,0.022c-3.081,0.012-6.169,0.351-9.241,0.659c-3.422,0.343-4.896-0.682-4.91-3.993
	c-0.056-13.692-0.028-27.386-0.003-41.079c0.002-0.813,0.247-1.627,0.421-2.694c1.171-0.163,2.248-0.441,3.325-0.442
	c20.046-0.028,40.092-0.04,60.137-0.011c3.7,0.006,3.988,0.268,4,3.753c0.05,13.41,0.033,26.821,0.013,40.231
	C219.612,521.133,219.368,522.086,219.143,523.732z M215.913,520.9c0.119-1.671,0.284-2.911,0.287-4.152
	c0.02-10.733,0.031-21.467,0.003-32.2c-0.014-5.113-0.704-5.775-5.984-5.781c-16.523-0.02-33.048-0.015-49.571,0.006
	c-1.366,0.001-2.732,0.183-3.98,0.272c-1.013,4.293-0.931,38.229,0.091,41.855C176.241,520.9,195.806,520.9,215.913,520.9z"/>
<path fill-rule="evenodd" clip-rule="evenodd" fill="#4F3162" d="M441.935,414.495c1.291,0.978,2.52,1.441,1.743,3.442
	c-1.015,2.616,1.181,5.243,3.95,5.142c0.55-0.02,1.193-0.473,1.617-0.298c0.817,0.336,1.91,0.845,2.138,1.531
	c0.229,0.69-0.211,1.916-0.778,2.503c-1.69,1.754-5.023,1.587-7.782-0.174C438.52,423.896,437.943,417.892,441.935,414.495z"/>
<path fill-rule="evenodd" clip-rule="evenodd" fill="#4F3162" d="M134.156,193.82c0.675-1.824,0.94-3.432,1.802-4.603
	c0.726-0.988,2.157-2.068,3.249-2.04c1.876,0.048,1.89,2.11,1.481,3.266c-0.664,1.877-1.593,3.942-3.046,5.182
	C135.996,197.032,135.101,195.005,134.156,193.82z"/>
<path fill-rule="evenodd" clip-rule="evenodd" fill="#4F3162" d="M483.494,215.878c3.139,1.047,3.804,2.764,3.398,4.902
	c-0.125,0.662-0.985,1.71-1.427,1.669c-0.8-0.072-2.113-0.75-2.189-1.313C483.06,219.56,483.367,217.912,483.494,215.878z"/>
<path fill-rule="evenodd" clip-rule="evenodd" fill="#4F3162" d="M339.338,224.309c-2.986-1.083-2.312-3.027-2.065-4.704
	c0.197-1.345-0.581-3.721,1.631-3.554c2.102,0.159,1.731,2.557,1.65,4.085C340.482,221.505,339.792,222.841,339.338,224.309z"/>
<path fill-rule="evenodd" clip-rule="evenodd" fill="#7382E8" d="M251.047,444.321c0.188,2.687,0.349,5.007,0.517,7.437
	c-0.596,0.266-1.081,0.66-1.577,0.676c-9.702,0.279-19.402,0.601-29.106,0.691c-2.041,0.019-4.097-0.818-6.135-1.308
	c-1.68-0.402-2.728-1.334-2.668-3.242c0.064-2.094,1.16-3.443,2.989-4.18c0.752-0.303,1.658-0.3,2.494-0.301
	c10.562-0.021,21.125-0.021,31.688-0.01C249.796,444.086,250.344,444.226,251.047,444.321z"/>
<path fill-rule="evenodd" clip-rule="evenodd" fill="#4F3162" d="M167.86,466.003c-23.465,0.001-46.931,0.002-70.396,0
	c-1.13,0-2.266,0.052-3.392-0.03c-2.63-0.191-3.35-0.932-3.364-3.31c-0.014-2.392,0.706-3.281,3.289-3.372
	c3.954-0.14,7.914-0.075,11.872-0.077c18.333-0.01,36.665-0.011,54.998-0.015c6.196-0.001,12.392-0.001,18.588,0.001
	c20.313,0.008,40.627-0.002,60.938,0.038c3.886,0.009,5.025,1.19,4.563,4.246c-0.224,1.473-0.995,2.323-2.463,2.431
	c-1.267,0.094-2.542,0.084-3.813,0.084C215.074,466.003,191.468,466.003,167.86,466.003z M167.896,464.935
	c23.312,0,46.623,0.001,69.935-0.002c1.271-0.001,2.542-0.014,3.813-0.043c1.57-0.035,2.291-0.856,2.235-2.424
	c-0.05-1.388-0.791-2.066-2.123-2.11c-1.693-0.057-3.39-0.077-5.084-0.077c-45.913-0.014-91.827-0.023-137.741-0.026
	c-1.694,0-3.39,0.053-5.082,0.128c-1.36,0.06-2.021,0.821-2.031,2.185c-0.01,1.316,0.494,2.204,1.91,2.281
	c1.268,0.069,2.54,0.085,3.812,0.085C120.991,464.936,144.445,464.935,167.896,464.935z"/>
<path fill-rule="evenodd" clip-rule="evenodd" fill="#4F3162" d="M156.584,382.177c0,2.297,0,4.136,0,6.162
	c-2.005-0.009-3.019-1.068-3.188-2.72C153.203,383.757,154.577,383.012,156.584,382.177z"/>
<g>
	<path fill="#7382E8" d="M72.274,284.607c1.03,0.35,1.927,0.747,2.689,1.194l-1.593,3.098c-0.889-0.537-1.7-0.93-2.435-1.179
		c-1.879-0.636-3.744-0.417-5.595,0.656c-1.852,1.073-3.163,2.747-3.933,5.021l-4.219,12.459l-3.517-1.191l7.862-23.222l2.903,0.982
		l-1.054,4.438l0.169,0.058c1.373-1.22,2.807-2.033,4.299-2.441S70.819,284.115,72.274,284.607z"/>
	<path fill="#7382E8" d="M85.003,313.041c-3.579-0.567-6.231-2.105-7.954-4.613c-1.725-2.508-2.279-5.699-1.665-9.573
		c0.619-3.902,2.071-6.852,4.358-8.844c2.286-1.993,5.05-2.733,8.29-2.219c3.034,0.48,5.276,1.859,6.728,4.136
		c1.451,2.275,1.918,5.049,1.399,8.318l-0.368,2.32l-16.681-2.646c-0.377,2.854-0.001,5.127,1.128,6.815s2.931,2.729,5.405,3.122
		c2.606,0.413,5.271,0.277,7.992-0.409l-0.519,3.27c-1.386,0.354-2.675,0.562-3.87,0.621
		C88.053,313.399,86.638,313.3,85.003,313.041z M87.501,290.855c-1.944-0.308-3.595,0.079-4.952,1.163
		c-1.357,1.083-2.316,2.728-2.877,4.934l12.659,2.008c0.367-2.312,0.132-4.165-0.704-5.559S89.416,291.159,87.501,290.855z"/>
	<path fill="#7382E8" d="M118.016,315.022l-0.65-3.507l-0.179-0.005c-1.261,1.505-2.506,2.515-3.734,3.028
		c-1.229,0.513-2.753,0.747-4.571,0.701c-2.431-0.061-4.319-0.734-5.666-2.021c-1.348-1.287-1.993-3.086-1.935-5.396
		c0.124-4.95,4.147-7.444,12.07-7.484l4.162-0.029l0.038-1.521c0.049-1.924-0.329-3.354-1.134-4.292s-2.116-1.429-3.935-1.475
		c-2.043-0.052-4.369,0.517-6.979,1.704l-1.069-2.868c1.224-0.626,2.56-1.107,4.008-1.443c1.448-0.337,2.896-0.487,4.342-0.451
		c2.922,0.074,5.071,0.776,6.447,2.109c1.376,1.332,2.028,3.43,1.956,6.292l-0.42,16.728L118.016,315.022z M109.695,312.195
		c2.312,0.058,4.143-0.53,5.493-1.764c1.352-1.234,2.056-2.992,2.113-5.272l0.056-2.214l-3.717,0.062
		c-2.954,0.03-5.094,0.436-6.419,1.215c-1.325,0.78-2.009,2.027-2.052,3.741c-0.033,1.342,0.347,2.374,1.142,3.095
		C107.106,311.78,108.234,312.158,109.695,312.195z"/>
	<path fill="#7382E8" d="M147.152,309.902l-0.2,0.02c-1.464,2.646-3.895,4.137-7.293,4.471c-3.191,0.314-5.78-0.532-7.769-2.54
		c-1.988-2.007-3.18-5.021-3.575-9.044c-0.396-4.021,0.188-7.233,1.75-9.635c1.562-2.401,3.931-3.759,7.106-4.071
		c3.31-0.325,5.966,0.628,7.969,2.858l0.289-0.028l-0.328-1.744l-0.258-1.705l-0.977-9.929l3.695-0.363l3.406,34.64l-3.005,0.296
		L147.152,309.902z M139.822,311.253c2.523-0.249,4.285-1.114,5.285-2.6c1.001-1.484,1.351-3.755,1.05-6.812l-0.077-0.779
		c-0.34-3.458-1.157-5.868-2.453-7.232c-1.295-1.363-3.204-1.921-5.728-1.673c-2.167,0.213-3.742,1.219-4.727,3.016
		c-0.985,1.798-1.326,4.232-1.024,7.305c0.307,3.117,1.109,5.413,2.408,6.889S137.61,311.47,139.822,311.253z"/>
</g>
<g>
	<path fill="#7382E8" d="M197.262,359.196c0.606,0.903,1.077,1.764,1.411,2.582l-3.146,1.493c-0.38-0.966-0.786-1.771-1.219-2.415
		c-1.105-1.646-2.72-2.605-4.843-2.877c-2.123-0.272-4.181,0.262-6.174,1.601l-10.919,7.334l-2.07-3.082l20.352-13.671l1.709,2.544
		l-3.532,2.885l0.1,0.148c1.832-0.135,3.464,0.089,4.897,0.672C195.26,356.992,196.405,357.921,197.262,359.196z"/>
	<path fill="#7382E8" d="M190.867,389.963c-2.604-2.52-3.894-5.301-3.865-8.344s1.405-5.975,4.133-8.794
		c2.747-2.841,5.629-4.421,8.645-4.74c3.017-0.319,5.704,0.661,8.062,2.942c2.208,2.135,3.253,4.552,3.135,7.248
		s-1.328,5.234-3.63,7.614l-1.633,1.688l-12.141-11.74c-1.947,2.12-2.943,4.196-2.988,6.228s0.833,3.917,2.634,5.659
		c1.897,1.835,4.157,3.252,6.779,4.253l-2.302,2.38c-1.338-0.505-2.513-1.076-3.525-1.713
		C193.158,392.007,192.058,391.113,190.867,389.963z M205.648,373.23c-1.415-1.368-2.989-1.998-4.723-1.89
		c-1.733,0.107-3.463,0.904-5.188,2.389l9.214,8.91c1.628-1.683,2.499-3.335,2.614-4.956
		C207.681,376.063,207.042,374.578,205.648,373.23z"/>
	<path fill="#7382E8" d="M225.005,404.018c-1.045,2.028-2.607,3.203-4.686,3.524s-4.482-0.223-7.213-1.63
		c-2.89-1.49-4.907-3.108-6.053-4.857l1.578-3.062c0.773,1.07,1.682,2.066,2.725,2.99c1.042,0.923,2.12,1.672,3.233,2.245
		c1.724,0.889,3.19,1.297,4.402,1.226c1.211-0.072,2.107-0.671,2.688-1.798c0.438-0.849,0.443-1.764,0.019-2.746
		s-1.492-2.435-3.203-4.356c-1.638-1.802-2.74-3.204-3.305-4.208s-0.871-1.972-0.919-2.902c-0.049-0.932,0.184-1.894,0.695-2.888
		c0.916-1.776,2.36-2.806,4.335-3.089c1.975-0.282,4.222,0.226,6.74,1.524c2.346,1.209,4.393,2.868,6.142,4.978l-2.558,2.08
		c-1.722-2.029-3.472-3.502-5.248-4.417c-1.563-0.807-2.87-1.169-3.918-1.089s-1.795,0.552-2.238,1.413
		c-0.301,0.583-0.408,1.157-0.321,1.722c0.086,0.564,0.364,1.204,0.836,1.916c0.472,0.713,1.468,1.906,2.987,3.579
		c2.1,2.273,3.357,4.121,3.774,5.544C225.914,401.139,225.75,402.573,225.005,404.018z"/>
	<path fill="#7382E8" d="M243.019,416.224c-3.551-0.726-6.132-2.38-7.742-4.962c-1.61-2.581-2.023-5.794-1.238-9.637
		c0.792-3.872,2.374-6.753,4.746-8.643c2.373-1.89,5.166-2.506,8.381-1.849c3.01,0.615,5.189,2.092,6.538,4.43
		c1.349,2.339,1.691,5.13,1.028,8.373l-0.471,2.301l-16.547-3.382c-0.503,2.835-0.229,5.121,0.824,6.858s2.807,2.857,5.262,3.358
		c2.586,0.529,5.253,0.511,8.002-0.054l-0.663,3.244c-1.399,0.292-2.697,0.441-3.893,0.448
		C246.049,416.718,244.641,416.555,243.019,416.224z M246.498,394.171c-1.929-0.394-3.595-0.08-4.998,0.942
		c-1.404,1.022-2.436,2.623-3.094,4.802l12.559,2.566c0.469-2.294,0.316-4.155-0.457-5.584S248.397,394.56,246.498,394.171z"/>
	<path fill="#7382E8" d="M265.151,418.163L261.442,418l1.529-34.773l3.71,0.163L265.151,418.163z"/>
	<path fill="#7382E8" d="M278.235,418.098l-3.711,0.114l-1.07-34.791l3.712-0.113L278.235,418.098z"/>
</g>
<g>
	<path fill="#7382E8" d="M348.664,397.479c1.6,1.627,2.228,3.478,1.883,5.553c-0.345,2.074-1.613,4.188-3.804,6.342
		c-2.318,2.279-4.487,3.689-6.506,4.23l-2.415-2.456c1.258-0.4,2.489-0.951,3.691-1.653c1.203-0.701,2.252-1.491,3.145-2.369
		c1.383-1.359,2.229-2.625,2.54-3.799c0.311-1.173,0.021-2.212-0.867-3.115c-0.669-0.681-1.536-0.973-2.603-0.877
		c-1.065,0.097-2.778,0.656-5.139,1.68c-2.224,0.994-3.9,1.602-5.03,1.824c-1.131,0.222-2.146,0.211-3.045-0.034
		s-1.741-0.767-2.525-1.564c-1.4-1.425-1.927-3.119-1.578-5.083c0.35-1.964,1.534-3.938,3.555-5.925
		c1.883-1.851,4.099-3.276,6.649-4.277l1.176,3.079c-2.466,1.001-4.411,2.203-5.837,3.604c-1.255,1.233-2.008,2.361-2.259,3.382
		c-0.252,1.021-0.037,1.877,0.642,2.567c0.461,0.469,0.973,0.75,1.535,0.844c0.563,0.095,1.258,0.03,2.082-0.195
		c0.824-0.225,2.269-0.798,4.333-1.719c2.816-1.283,4.965-1.9,6.446-1.851C346.214,395.716,347.525,396.32,348.664,397.479z"/>
	<path fill="#7382E8" d="M360.322,396.928l-2.957,2.247l-21.059-27.714l2.956-2.247L360.322,396.928z"/>
	<path fill="#7382E8" d="M375.031,388.1c-3.154,1.784-6.187,2.231-9.098,1.342c-2.91-0.889-5.331-3.04-7.262-6.454
		c-1.945-3.439-2.645-6.651-2.096-9.635c0.548-2.983,2.25-5.282,5.105-6.897c2.674-1.513,5.287-1.83,7.84-0.952
		s4.645,2.757,6.274,5.639l1.156,2.044l-14.7,8.315c1.482,2.469,3.19,4.013,5.125,4.632c1.936,0.618,3.993,0.312,6.174-0.923
		c2.298-1.299,4.297-3.064,6-5.295l1.63,2.881c-0.863,1.14-1.744,2.104-2.642,2.896C377.641,386.481,376.472,387.284,375.031,388.1z
		 M363.174,369.184c-1.713,0.969-2.764,2.3-3.151,3.992c-0.388,1.693-0.114,3.577,0.82,5.653l11.156-6.312
		c-1.152-2.037-2.489-3.341-4.012-3.911C366.466,368.037,364.861,368.229,363.174,369.184z"/>
	<path fill="#7382E8" d="M397.251,378.066c-3.397,1.262-6.463,1.223-9.195-0.116c-2.732-1.34-4.781-3.848-6.147-7.524
		c-1.376-3.704-1.557-6.986-0.543-9.845c1.015-2.858,3.06-4.859,6.135-6.002c2.88-1.069,5.511-0.969,7.892,0.303
		c2.382,1.271,4.148,3.458,5.301,6.562l0.818,2.202l-15.832,5.881c1.072,2.672,2.515,4.467,4.327,5.385
		c1.812,0.918,3.893,0.939,6.241,0.067c2.475-0.919,4.729-2.345,6.763-4.278l1.153,3.104c-1.033,0.989-2.056,1.802-3.067,2.44
		C400.084,376.882,398.803,377.489,397.251,378.066z M388.541,357.51c-1.846,0.686-3.094,1.833-3.744,3.443
		c-0.651,1.61-0.68,3.514-0.086,5.711l12.016-4.463c-0.815-2.195-1.93-3.694-3.341-4.498
		C391.973,356.899,390.358,356.835,388.541,357.51z"/>
	<path fill="#7382E8" d="M421.73,371.36c-1.565,0.311-3.053,0.305-4.462-0.018c-1.409-0.321-2.671-0.995-3.786-2.021l-0.264,0.052
		c0.454,1.37,0.805,2.684,1.054,3.941l1.959,9.896l-3.643,0.722l-6.897-34.848l2.963-0.586l1.156,3.191l0.176-0.034
		c0.675-1.502,1.577-2.669,2.705-3.5c1.127-0.831,2.495-1.406,4.104-1.725c3.189-0.631,5.867-0.028,8.031,1.808
		c2.165,1.837,3.638,4.723,4.416,8.658c0.782,3.95,0.508,7.193-0.822,9.729C427.091,369.163,424.86,370.741,421.73,371.36z
		 M416.882,349.631c-2.457,0.486-4.101,1.519-4.928,3.096c-0.828,1.578-0.963,3.854-0.404,6.83l0.16,0.812
		c0.669,3.379,1.711,5.686,3.125,6.918c1.415,1.232,3.365,1.603,5.853,1.11c2.077-0.411,3.538-1.574,4.383-3.49
		c0.845-1.915,0.975-4.351,0.39-7.306c-0.593-2.999-1.638-5.183-3.132-6.552C420.833,349.681,419.018,349.208,416.882,349.631z"/>
</g>
<g>
	<path fill="#7382E8" d="M388.594,168.748l0.311,2.328l-4.431,1.131c0.482,0.463,0.942,1.09,1.378,1.882
		c0.437,0.792,0.725,1.712,0.864,2.762c0.316,2.381-0.244,4.388-1.681,6.023c-1.438,1.636-3.575,2.642-6.414,3.02
		c-0.725,0.097-1.412,0.128-2.063,0.094c-1.457,1.037-2.102,2.184-1.935,3.439c0.089,0.665,0.428,1.12,1.017,1.365
		s1.549,0.279,2.88,0.103l4.302-0.572c2.631-0.351,4.727-0.064,6.286,0.856c1.559,0.921,2.479,2.438,2.761,4.552
		c0.357,2.69-0.449,4.886-2.419,6.584c-1.971,1.699-5.026,2.824-9.165,3.375c-3.179,0.423-5.707,0.157-7.587-0.797
		c-1.879-0.953-2.963-2.509-3.25-4.667c-0.196-1.479,0.106-2.82,0.909-4.025s2.035-2.113,3.699-2.727
		c-0.658-0.197-1.237-0.564-1.737-1.1s-0.802-1.194-0.906-1.979c-0.118-0.887,0.016-1.694,0.4-2.423
		c0.384-0.728,1.045-1.471,1.982-2.227c-1.325-0.351-2.466-1.094-3.422-2.23s-1.54-2.503-1.753-4.1
		c-0.354-2.661,0.172-4.818,1.576-6.472c1.405-1.654,3.571-2.676,6.498-3.065c1.271-0.169,2.437-0.173,3.496-0.014L388.594,168.748z
		 M372.245,178.844c0.226,1.7,0.877,2.922,1.954,3.666c1.077,0.745,2.473,1.003,4.188,0.774c3.593-0.478,5.156-2.461,4.692-5.949
		c-0.485-3.651-2.547-5.235-6.184-4.752c-1.729,0.23-2.998,0.873-3.806,1.928C372.283,175.566,372.001,177.011,372.245,178.844z
		 M372.989,199.709c0.176,1.315,0.862,2.239,2.062,2.772c1.199,0.532,2.833,0.661,4.903,0.386c3.09-0.411,5.315-1.178,6.679-2.299
		c1.362-1.122,1.938-2.474,1.729-4.056c-0.175-1.315-0.703-2.174-1.584-2.576c-0.881-0.401-2.445-0.453-4.691-0.154l-4.413,0.587
		c-1.671,0.223-2.918,0.795-3.743,1.717S372.791,198.216,372.989,199.709z"/>
	<path fill="#7382E8" d="M394.923,161.958c-0.022-0.85,0.169-1.478,0.576-1.884s0.924-0.617,1.55-0.634
		c0.596-0.017,1.116,0.172,1.559,0.562c0.443,0.391,0.676,1.004,0.698,1.839s-0.178,1.463-0.599,1.885
		c-0.422,0.421-0.931,0.64-1.527,0.655c-0.626,0.017-1.153-0.174-1.581-0.573C395.17,163.41,394.945,162.793,394.923,161.958z
		 M399.774,193.001l-3.712,0.099l-0.65-24.509l3.712-0.099L399.774,193.001z"/>
	<path fill="#7382E8" d="M411.828,193.5l-6.256-25.467l3.952,0.483l3.473,15.074c0.771,3.521,1.198,5.797,1.282,6.828l0.178,0.022
		c0.259-0.765,0.972-2.326,2.14-4.686c1.168-2.358,3.77-7.497,7.805-15.417l3.952,0.484l-12.218,23.204L411.828,193.5z"/>
	<path fill="#7382E8" d="M437.411,199.765c-3.44-1.137-5.811-3.081-7.107-5.834c-1.298-2.753-1.332-5.991-0.102-9.716
		c1.239-3.752,3.147-6.429,5.725-8.027c2.578-1.599,5.424-1.884,8.54-0.855c2.917,0.964,4.908,2.686,5.974,5.165
		c1.065,2.48,1.08,5.292,0.042,8.436l-0.737,2.23l-16.037-5.296c-0.832,2.757-0.826,5.06,0.016,6.908
		c0.843,1.849,2.453,3.165,4.832,3.951c2.507,0.827,5.158,1.122,7.954,0.883l-1.038,3.144c-1.424,0.127-2.73,0.123-3.919-0.01
		C440.363,200.609,438.983,200.283,437.411,199.765z M443.449,178.271c-1.869-0.617-3.562-0.5-5.075,0.351s-2.725,2.32-3.634,4.407
		l12.171,4.019c0.734-2.223,0.801-4.09,0.2-5.6S445.29,178.879,443.449,178.271z"/>
</g>
<g>
	<path fill="#4F3162" d="M155.007,94.929v18.747c0,2.355,0.536,4.113,1.608,5.273c1.071,1.16,2.751,1.74,5.036,1.74
		c3.022,0,5.233-0.826,6.631-2.479s2.097-4.351,2.097-8.095V94.929h4.377v28.898h-3.612l-0.633-3.876h-0.237
		c-0.896,1.424-2.141,2.514-3.731,3.27s-3.405,1.134-5.444,1.134c-3.517,0-6.148-0.835-7.897-2.505s-2.623-4.342-2.623-8.016V94.929
		H155.007z"/>
	<path fill="#4F3162" d="M203.812,123.827v-18.694c0-2.355-0.537-4.113-1.608-5.273c-1.072-1.16-2.752-1.74-5.036-1.74
		c-3.023,0-5.238,0.817-6.645,2.452c-1.407,1.635-2.109,4.333-2.109,8.095v15.161h-4.377V94.929h3.56l0.712,3.955h0.211
		c0.896-1.424,2.152-2.526,3.771-3.309c1.617-0.782,3.418-1.174,5.405-1.174c3.48,0,6.1,0.84,7.857,2.518
		c1.757,1.68,2.637,4.364,2.637,8.056v18.853H203.812z"/>
	<path fill="#4F3162" d="M230.364,94.401c1.282,0,2.435,0.105,3.454,0.316l-0.606,4.061c-1.196-0.264-2.251-0.396-3.164-0.396
		c-2.338,0-4.338,0.949-5.999,2.848s-2.491,4.263-2.491,7.093v15.504h-4.377V94.929h3.612l0.501,5.353h0.211
		c1.071-1.881,2.363-3.331,3.876-4.351C226.893,94.911,228.554,94.401,230.364,94.401z"/>
	<path fill="#4F3162" d="M251.432,124.354c-4.271,0-7.643-1.301-10.112-3.902s-3.704-6.214-3.704-10.837
		c0-4.658,1.146-8.358,3.44-11.101s5.375-4.113,9.242-4.113c3.621,0,6.486,1.191,8.596,3.572c2.109,2.383,3.164,5.524,3.164,9.427
		v2.769H242.15c0.088,3.393,0.944,5.968,2.57,7.726s3.916,2.637,6.869,2.637c3.111,0,6.187-0.65,9.229-1.951v3.902
		c-1.547,0.668-3.011,1.147-4.391,1.437C255.048,124.21,253.383,124.354,251.432,124.354z M250.245,98.066
		c-2.32,0-4.171,0.756-5.551,2.268s-2.192,3.604-2.438,6.275h15.108c0-2.76-0.616-4.873-1.846-6.341
		C254.288,98.801,252.529,98.066,250.245,98.066z"/>
	<path fill="#4F3162" d="M293.171,94.929v2.769l-5.353,0.633c0.491,0.615,0.932,1.42,1.318,2.413c0.386,0.993,0.58,2.113,0.58,3.361
		c0,2.83-0.967,5.089-2.9,6.776c-1.935,1.688-4.588,2.531-7.963,2.531c-0.861,0-1.671-0.07-2.426-0.211
		c-1.863,0.984-2.795,2.224-2.795,3.718c0,0.791,0.325,1.376,0.976,1.754c0.649,0.378,1.767,0.566,3.349,0.566h5.115
		c3.128,0,5.532,0.659,7.211,1.978s2.519,3.234,2.519,5.748c0,3.199-1.283,5.638-3.85,7.317c-2.567,1.678-6.312,2.518-11.232,2.518
		c-3.78,0-6.693-0.703-8.741-2.109s-3.071-3.393-3.071-5.959c0-1.758,0.562-3.278,1.688-4.562c1.124-1.283,2.706-2.153,4.746-2.61
		c-0.738-0.334-1.358-0.853-1.859-1.556s-0.751-1.521-0.751-2.452c0-1.055,0.28-1.978,0.844-2.769
		c0.562-0.791,1.45-1.556,2.663-2.294c-1.494-0.615-2.712-1.661-3.652-3.138s-1.41-3.164-1.41-5.062
		c0-3.164,0.949-5.603,2.848-7.317c1.898-1.713,4.588-2.57,8.068-2.57c1.512,0,2.874,0.176,4.087,0.527H293.171z M270.126,128.679
		c0,1.564,0.659,2.751,1.978,3.56s3.207,1.213,5.669,1.213c3.674,0,6.394-0.55,8.16-1.647c1.767-1.1,2.65-2.589,2.65-4.47
		c0-1.564-0.484-2.649-1.45-3.257c-0.967-0.605-2.786-0.909-5.458-0.909h-5.247c-1.987,0-3.533,0.475-4.641,1.424
		S270.126,126.903,270.126,128.679z M272.499,104.184c0,2.021,0.57,3.551,1.714,4.588c1.143,1.037,2.732,1.556,4.772,1.556
		c4.271,0,6.407-2.074,6.407-6.223c0-4.342-2.162-6.513-6.486-6.513c-2.057,0-3.639,0.554-4.746,1.661
		S272.499,102.004,272.499,104.184z"/>
	<path fill="#4F3162" d="M303.217,94.929v18.747c0,2.355,0.536,4.113,1.608,5.273s2.751,1.74,5.036,1.74
		c3.023,0,5.234-0.826,6.631-2.479c1.398-1.652,2.097-4.351,2.097-8.095V94.929h4.377v28.898h-3.612l-0.633-3.876h-0.237
		c-0.896,1.424-2.141,2.514-3.731,3.27s-3.405,1.134-5.444,1.134c-3.516,0-6.148-0.835-7.897-2.505s-2.623-4.342-2.623-8.016V94.929
		H303.217z"/>
	<path fill="#4F3162" d="M336.624,123.827h-4.377V82.8h4.377V123.827z"/>
	<path fill="#4F3162" d="M363.677,123.827l-0.87-4.113h-0.211c-1.441,1.811-2.879,3.037-4.312,3.678
		c-1.433,0.642-3.221,0.963-5.365,0.963c-2.865,0-5.111-0.738-6.736-2.215c-1.627-1.477-2.439-3.577-2.439-6.302
		c0-5.836,4.667-8.895,14.001-9.176l4.904-0.158v-1.793c0-2.268-0.487-3.942-1.464-5.022c-0.975-1.082-2.535-1.622-4.68-1.622
		c-2.408,0-5.133,0.738-8.174,2.215l-1.345-3.349c1.424-0.773,2.983-1.38,4.681-1.819c1.695-0.439,3.396-0.659,5.102-0.659
		c3.445,0,5.998,0.765,7.66,2.294c1.66,1.529,2.491,3.981,2.491,7.356v19.723H363.677z M353.789,120.742
		c2.725,0,4.864-0.747,6.421-2.241c1.555-1.494,2.333-3.586,2.333-6.275v-2.61l-4.377,0.185c-3.48,0.123-5.99,0.664-7.528,1.621
		c-1.538,0.959-2.307,2.448-2.307,4.47c0,1.582,0.479,2.786,1.438,3.612C350.726,120.329,352.066,120.742,353.789,120.742z"/>
	<path fill="#4F3162" d="M385.271,120.742c0.773,0,1.521-0.057,2.241-0.171s1.292-0.233,1.714-0.356v3.349
		c-0.475,0.229-1.174,0.417-2.096,0.566c-0.924,0.149-1.754,0.225-2.492,0.225c-5.59,0-8.385-2.944-8.385-8.833V98.33h-4.14v-2.109
		l4.14-1.819l1.846-6.17h2.531v6.697h8.385v3.401h-8.385v17.007c0,1.74,0.413,3.076,1.239,4.008S383.83,120.742,385.271,120.742z"/>
	<path fill="#4F3162" d="M407.209,124.354c-4.271,0-7.643-1.301-10.112-3.902s-3.704-6.214-3.704-10.837
		c0-4.658,1.147-8.358,3.44-11.101c2.295-2.742,5.375-4.113,9.242-4.113c3.621,0,6.486,1.191,8.596,3.572
		c2.109,2.383,3.164,5.524,3.164,9.427v2.769h-19.907c0.088,3.393,0.944,5.968,2.571,7.726c1.625,1.758,3.915,2.637,6.868,2.637
		c3.111,0,6.188-0.65,9.229-1.951v3.902c-1.547,0.668-3.011,1.147-4.39,1.437C410.825,124.21,409.16,124.354,407.209,124.354z
		 M406.022,98.066c-2.32,0-4.171,0.756-5.551,2.268s-2.192,3.604-2.438,6.275h15.108c0-2.76-0.615-4.873-1.846-6.341
		S408.308,98.066,406.022,98.066z"/>
	<path fill="#4F3162" d="M444.967,119.951h-0.237c-2.021,2.936-5.045,4.403-9.07,4.403c-3.779,0-6.72-1.292-8.819-3.876
		c-2.102-2.584-3.151-6.258-3.151-11.021s1.055-8.464,3.164-11.101s5.045-3.955,8.807-3.955c3.92,0,6.926,1.424,9.018,4.271h0.343
		l-0.185-2.083l-0.105-2.03V82.8h4.377v41.027h-3.56L444.967,119.951z M436.213,120.689c2.988,0,5.154-0.812,6.5-2.438
		c1.344-1.626,2.017-4.25,2.017-7.871v-0.923c0-4.096-0.682-7.018-2.044-8.767s-3.537-2.624-6.525-2.624
		c-2.566,0-4.531,0.998-5.893,2.993c-1.363,1.995-2.044,4.812-2.044,8.45c0,3.691,0.677,6.478,2.03,8.358
		S433.594,120.689,436.213,120.689z"/>
</g>
<g>
	<g>
		<path fill="#7382E8" d="M174.628,510.868c-2.459-0.111-4.828-0.662-7.107-1.65v-5.591c1.303,0.662,2.717,1.215,4.244,1.658
			c1.526,0.444,2.868,0.666,4.025,0.666c0.954,0,1.653-0.115,2.097-0.346s0.665-0.614,0.665-1.153c0-0.371-0.16-0.685-0.479-0.943
			c-0.32-0.258-0.854-0.55-1.601-0.876c-0.746-0.325-1.754-0.718-3.022-1.179c-1.427-0.527-2.577-1.12-3.453-1.776
			c-0.876-0.657-1.513-1.393-1.911-2.207c-0.398-0.813-0.598-1.827-0.598-3.04c0-1.853,0.595-3.301,1.785-4.345
			c1.189-1.044,2.975-1.689,5.355-1.937v-2.308h3.486v2.273c2.233,0.124,4.485,0.674,6.753,1.65l-2.004,4.8
			c-2.347-1.055-4.463-1.583-6.35-1.583c-0.898,0-1.529,0.109-1.895,0.329c-0.365,0.219-0.547,0.541-0.547,0.968
			c0,0.371,0.132,0.677,0.396,0.918c0.264,0.242,0.722,0.511,1.373,0.809c0.65,0.298,1.555,0.643,2.711,1.036
			c2.347,0.831,4.03,1.776,5.053,2.837c1.021,1.062,1.532,2.429,1.532,4.102c0,1.886-0.598,3.419-1.794,4.598
			c-1.195,1.179-2.938,1.909-5.229,2.189v3.25h-3.486V510.868z"/>
		<path fill="#7382E8" d="M202.214,512.014h-6.753v-13.035c0-1.583,0.033-3.031,0.101-4.346c-0.415,0.506-0.932,1.033-1.549,1.584
			l-2.796,2.307l-3.452-4.244l8.454-6.888h5.995V512.014z"/>
	</g>
</g>
<g>
	<g>
		<defs>
			<circle id="SVGID_17_" cx="1133.878" cy="398.112" r="136.493"/>
		</defs>
		<clipPath id="SVGID_1_">
			<use xlink:href="#SVGID_17_"  overflow="visible"/>
		</clipPath>
		<g clip-path="url(#SVGID_1_)">
			<path fill="#629BF7" d="M1227.516,146.864c0,240.414-194.892,435.306-435.309,435.306
				c-240.414,0-435.306-194.892-435.306-435.306c0-240.417,194.892-435.309,435.306-435.309
				C1032.624-288.444,1227.516-93.553,1227.516,146.864z"/>
			<path fill="#66050E" d="M1186.902,146.868c0,217.979-176.714,394.691-394.691,394.691
				c-217.986,0-394.699-176.713-394.699-394.691c0-217.985,176.713-394.699,394.699-394.699
				C1010.188-247.831,1186.902-71.117,1186.902,146.868z"/>
		</g>
	</g>
</g>
</svg>
