<?xml version="1.0" encoding="utf-8"?>
<!-- Generator: Adobe Illustrator 16.0.0, SVG Export Plug-In . SVG Version: 6.00 Build 0)  -->
<!DOCTYPE svg PUBLIC "-//W3C//DTD SVG 1.1//EN" "http://www.w3.org/Graphics/SVG/1.1/DTD/svg11.dtd">
<svg version="1.1" id="Layer_1" xmlns="http://www.w3.org/2000/svg" xmlns:xlink="http://www.w3.org/1999/xlink" x="0px" y="0px"
	 width="733.422px" height="681.112px" viewBox="0 0 733.422 681.112" enable-background="new 0 0 733.422 681.112"
	 xml:space="preserve">
<circle fill="none" stroke="#000000" stroke-width="12" stroke-miterlimit="10" cx="300" cy="299.906" r="290.235"/>
<circle fill="none" stroke="#4F3162" stroke-width="12" stroke-miterlimit="10" cx="299" cy="299.906" r="290.235"/>
<g>
	<path fill="#4F3162" d="M155.108,108.93v18.747c0,2.355,0.536,4.113,1.608,5.273c1.071,1.16,2.751,1.74,5.036,1.74
		c3.022,0,5.233-0.826,6.631-2.479s2.097-4.351,2.097-8.095V108.93h4.377v28.898h-3.612l-0.633-3.876h-0.237
		c-0.896,1.424-2.141,2.514-3.731,3.27s-3.405,1.134-5.444,1.134c-3.517,0-6.148-0.835-7.897-2.505s-2.623-4.342-2.623-8.016V108.93
		H155.108z"/>
	<path fill="#4F3162" d="M203.914,137.828v-18.694c0-2.355-0.537-4.113-1.608-5.273c-1.072-1.16-2.752-1.74-5.036-1.74
		c-3.023,0-5.238,0.817-6.645,2.452c-1.407,1.635-2.109,4.333-2.109,8.095v15.161h-4.377V108.93h3.56l0.712,3.955h0.211
		c0.896-1.424,2.152-2.526,3.771-3.309c1.617-0.782,3.418-1.174,5.405-1.174c3.48,0,6.1,0.84,7.857,2.518
		c1.757,1.68,2.637,4.364,2.637,8.056v18.853H203.914z"/>
	<path fill="#4F3162" d="M230.466,108.402c1.282,0,2.435,0.105,3.454,0.316l-0.606,4.061c-1.196-0.264-2.251-0.396-3.164-0.396
		c-2.338,0-4.338,0.949-5.999,2.848s-2.491,4.263-2.491,7.093v15.504h-4.377V108.93h3.612l0.501,5.353h0.211
		c1.071-1.881,2.363-3.331,3.876-4.351C226.994,108.912,228.655,108.402,230.466,108.402z"/>
	<path fill="#4F3162" d="M251.533,138.355c-4.271,0-7.643-1.301-10.112-3.902s-3.704-6.214-3.704-10.837
		c0-4.658,1.146-8.358,3.44-11.101s5.375-4.113,9.242-4.113c3.621,0,6.486,1.191,8.596,3.572c2.109,2.383,3.164,5.524,3.164,9.427
		v2.769h-19.907c0.088,3.393,0.944,5.968,2.57,7.726s3.916,2.637,6.869,2.637c3.111,0,6.187-0.65,9.229-1.951v3.902
		c-1.547,0.668-3.011,1.147-4.391,1.437C255.149,138.211,253.484,138.355,251.533,138.355z M250.347,112.067
		c-2.32,0-4.171,0.756-5.551,2.268s-2.192,3.604-2.438,6.275h15.108c0-2.76-0.616-4.873-1.846-6.341
		C254.39,112.802,252.631,112.067,250.347,112.067z"/>
	<path fill="#4F3162" d="M293.272,108.93v2.769l-5.353,0.633c0.491,0.615,0.932,1.42,1.318,2.413c0.386,0.993,0.58,2.113,0.58,3.361
		c0,2.83-0.967,5.089-2.9,6.776c-1.935,1.688-4.588,2.531-7.963,2.531c-0.861,0-1.671-0.07-2.426-0.211
		c-1.863,0.984-2.795,2.224-2.795,3.718c0,0.791,0.325,1.376,0.976,1.754c0.649,0.378,1.767,0.566,3.349,0.566h5.115
		c3.128,0,5.532,0.659,7.211,1.978s2.519,3.234,2.519,5.748c0,3.199-1.283,5.638-3.85,7.317c-2.567,1.678-6.312,2.518-11.232,2.518
		c-3.78,0-6.693-0.703-8.741-2.109s-3.071-3.393-3.071-5.959c0-1.758,0.562-3.278,1.688-4.562c1.124-1.283,2.706-2.153,4.746-2.61
		c-0.738-0.334-1.358-0.853-1.859-1.556s-0.751-1.521-0.751-2.452c0-1.055,0.28-1.978,0.844-2.769
		c0.562-0.791,1.45-1.556,2.663-2.294c-1.494-0.615-2.712-1.661-3.652-3.138s-1.41-3.164-1.41-5.062
		c0-3.164,0.949-5.603,2.848-7.317c1.898-1.713,4.588-2.57,8.068-2.57c1.512,0,2.874,0.176,4.087,0.527H293.272z M270.228,142.68
		c0,1.564,0.659,2.751,1.978,3.56s3.207,1.213,5.669,1.213c3.674,0,6.394-0.55,8.16-1.647c1.767-1.1,2.65-2.589,2.65-4.47
		c0-1.564-0.484-2.649-1.45-3.257c-0.967-0.605-2.786-0.909-5.458-0.909h-5.247c-1.987,0-3.533,0.475-4.641,1.424
		S270.228,140.904,270.228,142.68z M272.601,118.185c0,2.021,0.57,3.551,1.714,4.588c1.143,1.037,2.732,1.556,4.772,1.556
		c4.271,0,6.407-2.074,6.407-6.223c0-4.342-2.162-6.513-6.486-6.513c-2.057,0-3.639,0.554-4.746,1.661
		S272.601,116.005,272.601,118.185z"/>
	<path fill="#4F3162" d="M303.318,108.93v18.747c0,2.355,0.536,4.113,1.608,5.273s2.751,1.74,5.036,1.74
		c3.023,0,5.234-0.826,6.631-2.479c1.398-1.652,2.097-4.351,2.097-8.095V108.93h4.377v28.898h-3.612l-0.633-3.876h-0.237
		c-0.896,1.424-2.141,2.514-3.731,3.27s-3.405,1.134-5.444,1.134c-3.516,0-6.148-0.835-7.897-2.505s-2.623-4.342-2.623-8.016V108.93
		H303.318z"/>
	<path fill="#4F3162" d="M336.726,137.828h-4.377V96.801h4.377V137.828z"/>
	<path fill="#4F3162" d="M363.778,137.828l-0.87-4.113h-0.211c-1.441,1.811-2.879,3.037-4.312,3.678
		c-1.433,0.642-3.221,0.963-5.365,0.963c-2.865,0-5.111-0.738-6.736-2.215c-1.627-1.477-2.439-3.577-2.439-6.302
		c0-5.836,4.667-8.895,14.001-9.176l4.904-0.158v-1.793c0-2.268-0.487-3.942-1.464-5.022c-0.975-1.082-2.535-1.622-4.68-1.622
		c-2.408,0-5.133,0.738-8.174,2.215l-1.345-3.349c1.424-0.773,2.983-1.38,4.681-1.819c1.695-0.439,3.396-0.659,5.102-0.659
		c3.445,0,5.998,0.765,7.66,2.294c1.66,1.529,2.491,3.981,2.491,7.356v19.723H363.778z M353.891,134.743
		c2.725,0,4.864-0.747,6.421-2.241c1.555-1.494,2.333-3.586,2.333-6.275v-2.61l-4.377,0.185c-3.48,0.123-5.99,0.664-7.528,1.621
		c-1.538,0.959-2.307,2.448-2.307,4.47c0,1.582,0.479,2.786,1.438,3.612C350.827,134.33,352.168,134.743,353.891,134.743z"/>
	<path fill="#4F3162" d="M385.373,134.743c0.773,0,1.521-0.057,2.241-0.171s1.292-0.233,1.714-0.356v3.349
		c-0.475,0.229-1.174,0.417-2.096,0.566c-0.924,0.149-1.754,0.225-2.492,0.225c-5.59,0-8.385-2.944-8.385-8.833v-17.191h-4.14
		v-2.109l4.14-1.819l1.846-6.17h2.531v6.697h8.385v3.401h-8.385v17.007c0,1.74,0.413,3.076,1.239,4.008
		S383.932,134.743,385.373,134.743z"/>
	<path fill="#4F3162" d="M407.311,138.355c-4.271,0-7.643-1.301-10.112-3.902s-3.704-6.214-3.704-10.837
		c0-4.658,1.147-8.358,3.44-11.101c2.295-2.742,5.375-4.113,9.242-4.113c3.621,0,6.486,1.191,8.596,3.572
		c2.109,2.383,3.164,5.524,3.164,9.427v2.769h-19.907c0.088,3.393,0.944,5.968,2.571,7.726c1.625,1.758,3.915,2.637,6.868,2.637
		c3.111,0,6.188-0.65,9.229-1.951v3.902c-1.547,0.668-3.011,1.147-4.39,1.437C410.927,138.211,409.262,138.355,407.311,138.355z
		 M406.124,112.067c-2.32,0-4.171,0.756-5.551,2.268s-2.192,3.604-2.438,6.275h15.108c0-2.76-0.615-4.873-1.846-6.341
		S408.409,112.067,406.124,112.067z"/>
	<path fill="#4F3162" d="M445.068,133.952h-0.237c-2.021,2.936-5.045,4.403-9.07,4.403c-3.779,0-6.72-1.292-8.819-3.876
		c-2.102-2.584-3.151-6.258-3.151-11.021s1.055-8.464,3.164-11.101s5.045-3.955,8.807-3.955c3.92,0,6.926,1.424,9.018,4.271h0.343
		l-0.185-2.083l-0.105-2.03v-11.76h4.377v41.027h-3.56L445.068,133.952z M436.314,134.69c2.988,0,5.154-0.812,6.5-2.438
		c1.344-1.626,2.017-4.25,2.017-7.871v-0.923c0-4.096-0.682-7.018-2.044-8.767s-3.537-2.624-6.525-2.624
		c-2.566,0-4.531,0.998-5.893,2.993c-1.363,1.995-2.044,4.812-2.044,8.45c0,3.691,0.677,6.478,2.03,8.358
		S433.695,134.69,436.314,134.69z"/>
</g>
<circle fill="#629BF7" cx="306.31" cy="294.863" r="118.823"/>
<circle fill="#66050E" cx="306.31" cy="294.864" r="107.737"/>
<g>
	<path fill="#F90310" d="M241.126,294.906c0-11.558,2.89-22.393,8.668-32.505c5.778-10.113,13.724-18.088,23.837-23.924
		c10.113-5.837,21.006-8.755,32.679-8.755c11.558,0,22.392,2.89,32.505,8.668s18.088,13.725,23.924,23.837
		c5.836,10.113,8.755,21.006,8.755,32.679c0,11.384-2.803,22.075-8.408,32.071c-5.605,9.998-13.464,18.001-23.577,24.011
		s-21.179,9.015-33.198,9.015c-11.962,0-22.999-2.992-33.112-8.97c-10.112-5.983-17.984-13.972-23.621-23.969
		C243.944,317.067,241.126,306.349,241.126,294.906z M250.227,294.906c0,9.997,2.514,19.346,7.542,28.043
		c5.027,8.696,11.888,15.544,20.585,20.54c8.697,5.002,18.017,7.499,27.956,7.499c10.055,0,19.388-2.514,27.997-7.541
		c8.611-5.027,15.442-11.83,20.499-20.415c5.056-8.578,7.586-17.955,7.586-28.126c0-10.055-2.514-19.388-7.541-27.998
		c-5.028-8.61-11.833-15.441-20.411-20.501c-8.586-5.053-17.959-7.583-28.13-7.583c-10.056,0-19.388,2.514-27.998,7.541
		s-15.444,11.83-20.498,20.415C252.754,275.358,250.227,284.735,250.227,294.906z M309.863,266.476
		c-7.223,0-12.787,2.514-16.685,7.541c-3.903,5.027-5.853,11.99-5.853,20.89c0,9.708,1.834,16.903,5.506,21.583
		c3.666,4.682,9.287,7.021,16.857,7.021c4.971,0,11.066-1.3,18.29-3.9v10.748c-2.774,1.156-5.622,2.139-8.54,2.947
		s-6.398,1.214-10.443,1.214c-11.211,0-19.82-3.48-25.83-10.447c-6.01-6.96-9.016-16.685-9.016-29.166
		c0-12.077,3.191-21.67,9.577-28.778c6.386-7.107,15.099-10.661,26.136-10.661c7.396,0,14.504,1.733,21.323,5.2l-5.027,10.229
		C319.918,267.948,314.486,266.476,309.863,266.476z"/>
</g>
<g>
	<g>
		<defs>
			<circle id="SVGID_17_" cx="457.979" cy="398.112" r="136.493"/>
		</defs>
		<clipPath id="SVGID_1_">
			<use xlink:href="#SVGID_17_"  overflow="visible"/>
		</clipPath>
		<g clip-path="url(#SVGID_1_)">
			<circle fill="#FFFFFF" cx="459.922" cy="398.644" r="134.316"/>
			<path fill="#629BF7" d="M551.617,146.864c0,240.414-194.892,435.306-435.309,435.306c-240.414,0-435.306-194.892-435.306-435.306
				c0-240.417,194.892-435.309,435.306-435.309C356.726-288.444,551.617-93.553,551.617,146.864z"/>
			<path fill="#66050E" d="M511.004,146.868c0,217.979-176.714,394.691-394.691,394.691c-217.986,0-394.699-176.713-394.699-394.691
				c0-217.985,176.713-394.699,394.699-394.699C334.29-247.831,511.004-71.117,511.004,146.868z"/>
		</g>
	</g>
	<circle fill="none" stroke="#000000" stroke-width="12" stroke-miterlimit="10" cx="457.979" cy="398.112" r="136.493"/>
	
		<line fill="none" stroke="#000000" stroke-width="21" stroke-miterlimit="10" x1="553.717" y1="495.388" x2="715.16" y2="656.831"/>
	
		<line fill="none" stroke="#000000" stroke-width="44" stroke-miterlimit="10" x1="590.935" y1="534.605" x2="713.16" y2="656.831"/>
	<g>
		<path fill="#4F3162" d="M458.178,449.771h-4.495v15.582h-2.675v-15.582h-3.158v-1.208l3.158-0.967v-0.983
			c0-4.339,1.896-6.51,5.688-6.51c0.935,0,2.03,0.188,3.287,0.564l-0.692,2.143c-1.031-0.332-1.912-0.499-2.643-0.499
			c-1.01,0-1.757,0.336-2.24,1.007c-0.483,0.672-0.725,1.748-0.725,3.23v1.145h4.495V449.771z"/>
		<path fill="#4F3162" d="M472.261,465.354l-0.531-2.514h-0.129c-0.881,1.106-1.76,1.855-2.635,2.248
			c-0.876,0.392-1.969,0.588-3.279,0.588c-1.751,0-3.123-0.451-4.117-1.354c-0.993-0.902-1.49-2.186-1.49-3.852
			c0-3.565,2.853-5.435,8.557-5.607l2.997-0.096v-1.096c0-1.387-0.299-2.409-0.895-3.07c-0.597-0.66-1.55-0.99-2.86-0.99
			c-1.472,0-3.137,0.451-4.995,1.354l-0.821-2.047c0.87-0.473,1.823-0.843,2.859-1.111c1.037-0.269,2.076-0.403,3.118-0.403
			c2.105,0,3.666,0.468,4.681,1.401c1.016,0.936,1.523,2.434,1.523,4.496v12.053H472.261z M466.219,463.469
			c1.665,0,2.973-0.457,3.923-1.37c0.951-0.913,1.427-2.191,1.427-3.835v-1.596l-2.675,0.113c-2.127,0.075-3.661,0.405-4.601,0.991
			c-0.94,0.585-1.41,1.496-1.41,2.731c0,0.967,0.293,1.702,0.878,2.207C464.347,463.216,465.166,463.469,466.219,463.469z"/>
		<path fill="#4F3162" d="M479.528,442.908c0-0.613,0.15-1.062,0.451-1.346c0.301-0.285,0.677-0.428,1.128-0.428
			c0.43,0,0.8,0.146,1.111,0.436s0.468,0.736,0.468,1.338s-0.156,1.05-0.468,1.345c-0.312,0.296-0.682,0.443-1.111,0.443
			c-0.451,0-0.827-0.147-1.128-0.443C479.679,443.958,479.528,443.51,479.528,442.908z M482.429,465.354h-2.675v-17.66h2.675
			V465.354z"/>
		<path fill="#4F3162" d="M496.157,447.371c0.784,0,1.487,0.064,2.11,0.193l-0.37,2.481c-0.73-0.161-1.375-0.241-1.934-0.241
			c-1.429,0-2.65,0.58-3.666,1.74c-1.015,1.16-1.522,2.604-1.522,4.334v9.475h-2.675v-17.66h2.207l0.307,3.271h0.129
			c0.655-1.149,1.444-2.036,2.368-2.659S495.051,447.371,496.157,447.371z"/>
		<path fill="#4F3162" d="M512.657,447.693v11.457c0,1.439,0.327,2.514,0.982,3.223s1.682,1.062,3.078,1.062
			c1.848,0,3.198-0.504,4.053-1.514c0.854-1.01,1.281-2.659,1.281-4.947v-9.281h2.674v17.66h-2.207l-0.387-2.369h-0.145
			c-0.549,0.871-1.309,1.537-2.28,1.998c-0.973,0.462-2.082,0.693-3.327,0.693c-2.149,0-3.758-0.51-4.826-1.531
			c-1.069-1.02-1.604-2.652-1.604-4.898v-11.553H512.657z"/>
		<path fill="#4F3162" d="M541.79,460.535c0,1.645-0.613,2.912-1.838,3.803c-1.225,0.893-2.943,1.338-5.156,1.338
			c-2.342,0-4.168-0.371-5.479-1.111v-2.482c0.849,0.431,1.76,0.769,2.731,1.016c0.973,0.247,1.909,0.371,2.812,0.371
			c1.396,0,2.471-0.224,3.223-0.669c0.752-0.446,1.129-1.125,1.129-2.038c0-0.688-0.299-1.276-0.895-1.765
			c-0.597-0.489-1.76-1.066-3.488-1.732c-1.645-0.612-2.812-1.146-3.505-1.604c-0.693-0.456-1.209-0.975-1.547-1.555
			c-0.339-0.58-0.508-1.272-0.508-2.079c0-1.438,0.585-2.575,1.757-3.407c1.17-0.833,2.776-1.249,4.817-1.249
			c1.901,0,3.76,0.387,5.575,1.16l-0.951,2.176c-1.771-0.73-3.378-1.096-4.817-1.096c-1.268,0-2.224,0.198-2.868,0.596
			s-0.967,0.945-0.967,1.644c0,0.473,0.121,0.876,0.362,1.208c0.242,0.334,0.631,0.65,1.169,0.951
			c0.536,0.301,1.567,0.736,3.094,1.305c2.094,0.764,3.51,1.531,4.245,2.305C541.422,458.393,541.79,459.365,541.79,460.535z"/>
		<path fill="#4F3162" d="M553.601,465.676c-2.611,0-4.671-0.795-6.18-2.385c-1.51-1.59-2.264-3.797-2.264-6.623
			c0-2.846,0.7-5.107,2.103-6.783c1.401-1.676,3.284-2.514,5.647-2.514c2.213,0,3.964,0.728,5.253,2.184
			c1.289,1.455,1.934,3.375,1.934,5.76v1.692h-12.165c0.053,2.073,0.577,3.647,1.57,4.722c0.994,1.074,2.393,1.611,4.197,1.611
			c1.902,0,3.781-0.397,5.641-1.193v2.385c-0.946,0.409-1.84,0.701-2.684,0.879C555.811,465.587,554.792,465.676,553.601,465.676z
			 M552.875,449.611c-1.418,0-2.549,0.462-3.392,1.385c-0.844,0.925-1.341,2.203-1.49,3.836h9.232c0-1.687-0.376-2.979-1.128-3.876
			C555.346,450.06,554.271,449.611,552.875,449.611z"/>
	</g>
	<g>
		<g>
			
				<line fill="none" stroke="#4F3162" stroke-width="4" stroke-miterlimit="10" x1="441.422" y1="452.112" x2="419.25" y2="429.94"/>
			<g>
				<path fill="#4F3162" d="M412.422,423.112c4.405,2.021,10.426,3.973,15.051,4.289l-7.326,3.435l-3.434,7.326
					C416.396,433.536,414.443,427.517,412.422,423.112z"/>
			</g>
		</g>
	</g>
</g>
</svg>
