<?xml version="1.0" encoding="utf-8"?>
<!-- Generator: Adobe Illustrator 16.0.0, SVG Export Plug-In . SVG Version: 6.00 Build 0)  -->
<!DOCTYPE svg PUBLIC "-//W3C//DTD SVG 1.1//EN" "http://www.w3.org/Graphics/SVG/1.1/DTD/svg11.dtd">
<svg version="1.1" id="Layer_1" xmlns="http://www.w3.org/2000/svg" xmlns:xlink="http://www.w3.org/1999/xlink" x="0px" y="0px"
	 width="600px" height="599px" viewBox="0 0 600 599" enable-background="new 0 0 600 599" xml:space="preserve">
<circle cx="300.512" cy="287.125" r="25.912"/>
<linearGradient id="SVGID_1_" gradientUnits="userSpaceOnUse" x1="90.958" y1="287.2988" x2="264.834" y2="287.2988">
	<stop  offset="0" style="stop-color:#FFFFFF"/>
	<stop  offset="1" style="stop-color:#000000"/>
</linearGradient>
<polygon fill="url(#SVGID_1_)" points="264.834,287.299 236.958,260.383 236.958,279 90.958,279 90.958,294 236.958,294 
	236.958,314.216 "/>
<linearGradient id="SVGID_2_" gradientUnits="userSpaceOnUse" x1="-1088.5967" y1="1690.0508" x2="-913.7207" y2="1690.0508" gradientTransform="matrix(1.192488e-08 -1 1 1.192488e-08 -1389.5938 -590.5967)">
	<stop  offset="0" style="stop-color:#FFFFFF"/>
	<stop  offset="1" style="stop-color:#000000"/>
</linearGradient>
<polygon fill="url(#SVGID_2_)" points="300.458,323.124 273.54,351 291.958,351 291.958,498 305.958,498 305.958,351 327.374,351 
	"/>
<linearGradient id="SVGID_3_" gradientUnits="userSpaceOnUse" x1="-2486.7021" y1="511.7148" x2="-2312.8262" y2="511.7148" gradientTransform="matrix(-1 0 0 -1 -1979.7441 798.5508)">
	<stop  offset="0" style="stop-color:#FFFFFF"/>
	<stop  offset="1" style="stop-color:#000000"/>
</linearGradient>
<polygon fill="url(#SVGID_3_)" points="333.082,286.835 360.958,313.752 360.958,295 506.958,295 506.958,280 360.958,280 
	360.958,259.92 "/>
<linearGradient id="SVGID_4_" gradientUnits="userSpaceOnUse" x1="-1311.7021" y1="-888.9814" x2="-1138.8252" y2="-888.9814" gradientTransform="matrix(-1.192488e-08 1 -1 -1.192488e-08 -590.5967 1388.7021)">
	<stop  offset="0" style="stop-color:#FFFFFF"/>
	<stop  offset="1" style="stop-color:#000000"/>
</linearGradient>
<polygon fill="url(#SVGID_4_)" points="298.384,249.877 325.302,222 305.958,222 305.958,77 291.958,77 291.958,222 271.468,222 "/>
<ellipse fill="#193282" cx="300.167" cy="76.718" rx="148.911" ry="75.318"/>
<g>
	<path fill="#FFFFFF" d="M264.452,89.071V57.994h3.613v27.804h13.711v3.273H264.452z"/>
	<path fill="#FFFFFF" d="M300.844,89.071l-0.702-3.316h-0.17c-1.162,1.46-2.32,2.448-3.476,2.966
		c-1.155,0.517-2.597,0.775-4.325,0.775c-2.311,0-4.121-0.595-5.432-1.785s-1.966-2.884-1.966-5.08
		c0-4.705,3.763-7.171,11.287-7.397l3.954-0.128V73.66c0-1.828-0.394-3.178-1.18-4.049c-0.787-0.872-2.045-1.308-3.773-1.308
		c-1.941,0-4.138,0.596-6.59,1.785l-1.084-2.699c1.148-0.623,2.405-1.112,3.773-1.467c1.367-0.354,2.738-0.531,4.113-0.531
		c2.777,0,4.836,0.616,6.175,1.85c1.339,1.232,2.009,3.21,2.009,5.931v15.899H300.844z M292.872,86.584
		c2.196,0,3.922-0.602,5.176-1.807c1.254-1.204,1.882-2.891,1.882-5.059v-2.104l-3.529,0.148c-2.806,0.1-4.828,0.535-6.068,1.308
		s-1.86,1.974-1.86,3.603c0,1.275,0.387,2.246,1.159,2.912C290.402,86.252,291.483,86.584,292.872,86.584z"/>
	<path fill="#FFFFFF" d="M329.752,89.071l-4.272-13.668c-0.27-0.836-0.772-2.734-1.51-5.696h-0.17
		c-0.566,2.479-1.062,4.393-1.487,5.739l-4.4,13.625h-4.081l-6.355-23.297h3.698c1.502,5.853,2.646,10.31,3.433,13.37
		c0.787,3.061,1.236,5.123,1.35,6.186h0.171c0.155-0.808,0.407-1.853,0.754-3.135c0.348-1.283,0.648-2.3,0.903-3.051l4.272-13.37
		h3.826l4.167,13.37c0.793,2.438,1.331,4.485,1.615,6.144h0.17c0.057-0.511,0.209-1.297,0.457-2.36
		c0.248-1.062,1.726-6.78,4.432-17.153h3.656l-6.44,23.297H329.752z"/>
</g>
<ellipse fill="#840AAC" cx="300.299" cy="549.25" rx="92.129" ry="46.599"/>
<g>
	<path fill="#FFFFFF" d="M238.347,556.892l-2.394-6.115h-7.707l-2.367,6.115h-2.262l7.602-19.306h1.881l7.562,19.306H238.347z
		 M235.256,548.765l-2.235-5.958c-0.29-0.754-0.588-1.679-0.895-2.774c-0.193,0.841-0.469,1.767-0.828,2.774l-2.263,5.958H235.256z"
		/>
	<path fill="#FFFFFF" d="M249.552,542.215c0.64,0,1.214,0.053,1.723,0.158l-0.303,2.025c-0.597-0.132-1.122-0.197-1.578-0.197
		c-1.166,0-2.163,0.473-2.992,1.42c-0.828,0.947-1.242,2.126-1.242,3.538v7.732h-2.184v-14.414h1.802l0.25,2.67h0.105
		c0.534-0.938,1.179-1.661,1.933-2.17C247.819,542.47,248.648,542.215,249.552,542.215z"/>
	<path fill="#FFFFFF" d="M259.73,557.154c-2.087,0-3.702-0.642-4.847-1.927c-1.145-1.284-1.716-3.101-1.716-5.451
		c0-2.41,0.58-4.273,1.742-5.589s2.816-1.973,4.965-1.973c0.692,0,1.385,0.074,2.078,0.224c0.692,0.149,1.235,0.324,1.63,0.526
		l-0.67,1.854c-0.482-0.192-1.009-0.353-1.578-0.479c-0.57-0.127-1.074-0.19-1.513-0.19c-2.929,0-4.393,1.867-4.393,5.603
		c0,1.771,0.357,3.13,1.072,4.076c0.714,0.947,1.772,1.421,3.176,1.421c1.201,0,2.433-0.259,3.695-0.776v1.934
		C262.408,556.904,261.194,557.154,259.73,557.154z"/>
	<path fill="#FFFFFF" d="M276.655,556.892v-9.324c0-1.175-0.268-2.052-0.802-2.63c-0.535-0.579-1.372-0.868-2.512-0.868
		c-1.518,0-2.624,0.412-3.321,1.236c-0.696,0.824-1.045,2.174-1.045,4.051v7.535h-2.184v-20.463h2.184v6.194
		c0,0.745-0.035,1.363-0.105,1.854h0.132c0.429-0.692,1.041-1.238,1.834-1.637c0.794-0.399,1.699-0.599,2.716-0.599
		c1.763,0,3.084,0.419,3.965,1.256c0.882,0.838,1.322,2.168,1.322,3.991v9.403H276.655z"/>
	<path fill="#FFFFFF" d="M283.14,538.572c0-0.5,0.122-0.866,0.368-1.099c0.245-0.232,0.552-0.349,0.92-0.349
		c0.351,0,0.653,0.119,0.908,0.355c0.254,0.236,0.381,0.601,0.381,1.092s-0.127,0.856-0.381,1.098
		c-0.255,0.241-0.558,0.362-0.908,0.362c-0.368,0-0.675-0.121-0.92-0.362C283.262,539.429,283.14,539.063,283.14,538.572z
		 M285.507,556.892h-2.184v-14.414h2.184V556.892z"/>
	<path fill="#FFFFFF" d="M294.791,555.353c0.386,0,0.759-0.028,1.118-0.085s0.645-0.116,0.854-0.178v1.67
		c-0.236,0.114-0.585,0.208-1.045,0.283c-0.461,0.074-0.875,0.111-1.243,0.111c-2.788,0-4.182-1.468-4.182-4.405v-8.574h-2.065
		v-1.053l2.065-0.907l0.92-3.077h1.263v3.34h4.183v1.697h-4.183v8.482c0,0.867,0.206,1.534,0.618,1.999
		S294.072,555.353,294.791,555.353z"/>
	<path fill="#FFFFFF" d="M305.732,557.154c-2.13,0-3.812-0.648-5.043-1.946c-1.232-1.297-1.848-3.099-1.848-5.405
		c0-2.323,0.571-4.169,1.716-5.536c1.145-1.368,2.681-2.052,4.609-2.052c1.807,0,3.235,0.594,4.287,1.782
		c1.053,1.188,1.578,2.755,1.578,4.701v1.381h-9.929c0.044,1.692,0.471,2.977,1.282,3.854c0.811,0.877,1.953,1.315,3.426,1.315
		c1.552,0,3.086-0.324,4.603-0.974v1.946c-0.771,0.333-1.501,0.572-2.189,0.717S306.706,557.154,305.732,557.154z M305.141,544.043
		c-1.157,0-2.08,0.377-2.768,1.131c-0.688,0.754-1.095,1.798-1.217,3.13h7.535c0-1.376-0.307-2.431-0.92-3.163
		C307.157,544.409,306.28,544.043,305.141,544.043z"/>
	<path fill="#FFFFFF" d="M320.515,557.154c-2.087,0-3.702-0.642-4.847-1.927c-1.145-1.284-1.716-3.101-1.716-5.451
		c0-2.41,0.58-4.273,1.742-5.589s2.816-1.973,4.965-1.973c0.692,0,1.385,0.074,2.078,0.224c0.692,0.149,1.235,0.324,1.63,0.526
		l-0.67,1.854c-0.482-0.192-1.009-0.353-1.578-0.479c-0.57-0.127-1.074-0.19-1.513-0.19c-2.929,0-4.393,1.867-4.393,5.603
		c0,1.771,0.357,3.13,1.072,4.076c0.714,0.947,1.772,1.421,3.176,1.421c1.201,0,2.433-0.259,3.695-0.776v1.934
		C323.192,556.904,321.979,557.154,320.515,557.154z"/>
	<path fill="#FFFFFF" d="M332.231,555.353c0.386,0,0.759-0.028,1.118-0.085s0.645-0.116,0.854-0.178v1.67
		c-0.236,0.114-0.585,0.208-1.045,0.283c-0.461,0.074-0.875,0.111-1.243,0.111c-2.788,0-4.182-1.468-4.182-4.405v-8.574h-2.065
		v-1.053l2.065-0.907l0.92-3.077h1.263v3.34h4.183v1.697h-4.183v8.482c0,0.867,0.206,1.534,0.618,1.999
		S331.513,555.353,332.231,555.353z"/>
	<path fill="#FFFFFF" d="M339.136,542.478v9.351c0,1.175,0.268,2.052,0.802,2.631c0.535,0.578,1.372,0.867,2.513,0.867
		c1.508,0,2.61-0.411,3.308-1.235c0.696-0.824,1.045-2.17,1.045-4.038v-7.575h2.184v14.414h-1.802l-0.316-1.934h-0.118
		c-0.447,0.711-1.067,1.254-1.86,1.631c-0.794,0.377-1.699,0.565-2.716,0.565c-1.754,0-3.066-0.416-3.938-1.249
		c-0.873-0.833-1.309-2.165-1.309-3.998v-9.43H339.136z"/>
	<path fill="#FFFFFF" d="M360.191,542.215c0.64,0,1.214,0.053,1.723,0.158l-0.303,2.025c-0.597-0.132-1.122-0.197-1.578-0.197
		c-1.166,0-2.163,0.473-2.992,1.42c-0.828,0.947-1.242,2.126-1.242,3.538v7.732h-2.184v-14.414h1.802l0.25,2.67h0.105
		c0.534-0.938,1.179-1.661,1.933-2.17C358.459,542.47,359.288,542.215,360.191,542.215z"/>
	<path fill="#FFFFFF" d="M370.698,557.154c-2.13,0-3.812-0.648-5.043-1.946c-1.232-1.297-1.848-3.099-1.848-5.405
		c0-2.323,0.571-4.169,1.716-5.536c1.145-1.368,2.681-2.052,4.609-2.052c1.807,0,3.235,0.594,4.287,1.782
		c1.053,1.188,1.578,2.755,1.578,4.701v1.381h-9.929c0.044,1.692,0.471,2.977,1.282,3.854c0.811,0.877,1.953,1.315,3.426,1.315
		c1.552,0,3.086-0.324,4.603-0.974v1.946c-0.771,0.333-1.501,0.572-2.189,0.717S371.672,557.154,370.698,557.154z M370.106,544.043
		c-1.157,0-2.08,0.377-2.768,1.131c-0.688,0.754-1.095,1.798-1.217,3.13h7.535c0-1.376-0.307-2.431-0.92-3.163
		C372.123,544.409,371.246,544.043,370.106,544.043z"/>
</g>
<ellipse fill="#B7530C" cx="85.958" cy="287.473" rx="75.318" ry="148.911"/>
<g>
	<path fill="#FFFFFF" d="M98.314,327.652v4.123L72.232,348.76v0.17c3.062-0.227,5.867-0.34,8.418-0.34h17.664v3.337H67.237v-4.081
		l25.976-16.941v-0.17c-0.383,0.028-1.611,0.092-3.688,0.191c-2.076,0.099-3.561,0.135-4.454,0.105H67.237v-3.379H98.314z"/>
	<path fill="#FFFFFF" d="M86.645,299.529c3.798,0,6.764,0.956,8.896,2.869c2.134,1.913,3.199,4.557,3.199,7.929
		c0,2.083-0.488,3.933-1.467,5.548c-0.978,1.616-2.38,2.863-4.208,3.741c-1.828,0.879-3.968,1.318-6.42,1.318
		c-3.798,0-6.756-0.949-8.874-2.849c-2.119-1.898-3.178-4.534-3.178-7.907c0-3.259,1.084-5.849,3.252-7.77
		C80.013,300.489,82.946,299.529,86.645,299.529z M86.645,317.278c2.976,0,5.243-0.595,6.802-1.785
		c1.56-1.19,2.339-2.94,2.339-5.251c0-2.31-0.776-4.063-2.328-5.261s-3.822-1.796-6.812-1.796c-2.962,0-5.211,0.599-6.749,1.796
		c-1.537,1.197-2.306,2.966-2.306,5.304c0,2.31,0.758,4.053,2.274,5.229C81.381,316.69,83.641,317.278,86.645,317.278z"/>
	<path fill="#FFFFFF" d="M74.593,282.716c0-1.034,0.085-1.963,0.255-2.785l3.273,0.489c-0.213,0.964-0.319,1.814-0.319,2.551
		c0,1.885,0.766,3.497,2.296,4.836s3.437,2.009,5.718,2.009h12.499v3.528H75.018v-2.912l4.314-0.403v-0.171
		c-1.516-0.864-2.685-1.905-3.507-3.124C75.004,285.515,74.593,284.176,74.593,282.716z"/>
	<path fill="#FFFFFF" d="M98.314,245.878H83.158c-1.855,0-3.248,0.397-4.177,1.19c-0.928,0.794-1.392,2.026-1.392,3.699
		c0,2.196,0.63,3.818,1.892,4.867s3.202,1.573,5.824,1.573h13.009v3.528H83.158c-1.855,0-3.248,0.396-4.177,1.19
		c-0.928,0.794-1.392,2.033-1.392,3.72c0,2.211,0.662,3.83,1.987,4.857s3.496,1.541,6.515,1.541h12.223v3.528H75.018v-2.869
		l3.188-0.574v-0.17c-1.134-0.666-2.02-1.605-2.657-2.816c-0.638-1.212-0.956-2.568-0.956-4.071c0-3.642,1.317-6.022,3.953-7.142
		v-0.17c-1.219-0.694-2.182-1.701-2.891-3.019c-0.709-1.318-1.062-2.82-1.062-4.507c0-2.636,0.677-4.608,2.029-5.92
		c1.354-1.311,3.519-1.966,6.494-1.966h15.198V245.878z"/>
	<path fill="#FFFFFF" d="M91.959,220.052c2.168,0,3.84,0.808,5.017,2.424c1.176,1.615,1.764,3.883,1.764,6.802
		c0,3.089-0.488,5.498-1.467,7.227h-3.273c0.567-1.119,1.014-2.32,1.34-3.603s0.488-2.519,0.488-3.709
		c0-1.842-0.294-3.26-0.882-4.252c-0.588-0.991-1.484-1.487-2.688-1.487c-0.907,0-1.683,0.393-2.328,1.18
		c-0.645,0.786-1.406,2.32-2.285,4.602c-0.808,2.168-1.513,3.71-2.115,4.624c-0.602,0.913-1.285,1.594-2.051,2.04
		s-1.68,0.67-2.742,0.67c-1.898,0-3.397-0.772-4.496-2.317c-1.098-1.544-1.646-3.663-1.646-6.355c0-2.508,0.51-4.96,1.53-7.354
		l2.869,1.254c-0.963,2.338-1.445,4.457-1.445,6.355c0,1.673,0.263,2.934,0.786,3.784c0.524,0.85,1.248,1.275,2.169,1.275
		c0.623,0,1.155-0.16,1.594-0.479c0.439-0.319,0.857-0.832,1.254-1.541c0.397-0.709,0.971-2.069,1.722-4.081
		c1.007-2.764,2.02-4.631,3.04-5.602S90.414,220.052,91.959,220.052z"/>
</g>
<ellipse fill="#2EA923" cx="511.958" cy="286.781" rx="75.319" ry="148.91"/>
<g>
	<path fill="#FFFFFF" d="M499.604,233.188l27.548-10.543v-0.17c-2.182,0.198-4.775,0.297-7.779,0.297h-19.769v-3.337h31.077v5.441
		l-25.636,9.842v0.17l25.636,9.927v5.399h-31.077v-3.613h20.023c2.296,0,4.79,0.099,7.482,0.297v-0.17l-27.506-10.628V233.188z"/>
	<path fill="#FFFFFF" d="M499.604,272.534l3.316-0.702v-0.17c-1.46-1.162-2.448-2.32-2.966-3.476
		c-0.517-1.155-0.775-2.597-0.775-4.325c0-2.311,0.595-4.121,1.785-5.432s2.884-1.966,5.08-1.966c4.705,0,7.171,3.763,7.397,11.287
		l0.128,3.954h1.445c1.828,0,3.178-0.394,4.049-1.18c0.872-0.787,1.308-2.045,1.308-3.773c0-1.941-0.596-4.138-1.785-6.59
		l2.699-1.084c0.623,1.148,1.112,2.405,1.467,3.773c0.354,1.367,0.531,2.738,0.531,4.113c0,2.777-0.616,4.836-1.85,6.175
		c-1.232,1.339-3.21,2.009-5.931,2.009h-15.899V272.534z M502.092,264.562c0,2.196,0.602,3.922,1.807,5.176
		c1.204,1.254,2.891,1.882,5.059,1.882h2.104l-0.148-3.529c-0.1-2.806-0.535-4.828-1.308-6.068s-1.974-1.86-3.603-1.86
		c-1.275,0-2.246,0.387-2.912,1.159C502.424,262.093,502.092,263.174,502.092,264.562z"/>
	<path fill="#FFFFFF" d="M523.326,293.046c0,1.034-0.085,1.963-0.255,2.785l-3.273-0.489c0.213-0.964,0.319-1.814,0.319-2.551
		c0-1.885-0.766-3.497-2.296-4.836s-3.437-2.009-5.718-2.009h-12.499v-3.528h23.297v2.912l-4.314,0.403v0.171
		c1.516,0.864,2.685,1.905,3.507,3.124C522.915,290.247,523.326,291.586,523.326,293.046z"/>
	<path fill="#FFFFFF" d="M511.529,303.675c0.864,0.608,1.998,1.537,3.401,2.784l7.971,7.524v4.188l-9.927-9.438l-13.37,10.097
		v-4.272l11.011-8.227l-2.296-2.656h-8.715v-3.486h33.075v3.486h-17.537c-0.779,0-1.983-0.058-3.613-0.171V303.675z"/>
	<path fill="#FFFFFF" d="M499.18,332.881c0-3.443,1.048-6.161,3.146-8.152s5.01-2.986,8.736-2.986c3.755,0,6.738,0.925,8.949,2.774
		c2.211,1.849,3.315,4.332,3.315,7.45c0,2.919-0.96,5.229-2.88,6.93c-1.92,1.7-4.453,2.551-7.599,2.551h-2.232v-16.049
		c-2.735,0.07-4.812,0.762-6.229,2.072s-2.125,3.157-2.125,5.537c0,2.509,0.523,4.988,1.573,7.44h-3.146
		c-0.539-1.247-0.925-2.427-1.158-3.539C499.296,335.796,499.18,334.454,499.18,332.881z M520.372,331.924
		c0-1.87-0.609-3.362-1.828-4.475s-2.905-1.768-5.059-1.966v12.18c2.225,0,3.929-0.496,5.111-1.487
		C519.78,335.184,520.372,333.767,520.372,331.924z"/>
	<path fill="#FFFFFF" d="M502.092,354.987c0,0.624,0.046,1.226,0.138,1.807s0.188,1.042,0.287,1.382h-2.699
		c-0.185-0.383-0.337-0.945-0.457-1.689s-0.181-1.414-0.181-2.009c0-4.507,2.373-6.76,7.12-6.76h13.859v-3.337h1.701l1.466,3.337
		l4.975,1.488v2.04h-5.399v6.76h-2.742v-6.76h-13.71c-1.403,0-2.48,0.333-3.231,0.999S502.092,353.825,502.092,354.987z"/>
</g>
<circle cx="300.511" cy="287.125" r="207.912"/>
<g>
	<g>
		<defs>
			<circle id="SVGID_17_" cx="1144.516" cy="1042" r="136.493"/>
		</defs>
		<clipPath id="SVGID_5_">
			<use xlink:href="#SVGID_17_"  overflow="visible"/>
		</clipPath>
		<g clip-path="url(#SVGID_5_)">
			<path fill="#629BF7" d="M1238.153,790.752c0,240.414-194.892,435.306-435.309,435.306
				c-240.414,0-435.306-194.892-435.306-435.306c0-240.417,194.892-435.309,435.306-435.309
				C1043.262,355.443,1238.153,550.335,1238.153,790.752z"/>
			<path fill="#66050E" d="M1197.54,790.756c0,217.979-176.714,394.691-394.691,394.691c-217.986,0-394.699-176.713-394.699-394.691
				c0-217.985,176.713-394.699,394.699-394.699C1020.826,396.057,1197.54,572.771,1197.54,790.756z"/>
		</g>
	</g>
</g>
</svg>
