<?xml version="1.0" encoding="utf-8"?>
<!-- Generator: Adobe Illustrator 16.0.0, SVG Export Plug-In . SVG Version: 6.00 Build 0)  -->
<!DOCTYPE svg PUBLIC "-//W3C//DTD SVG 1.1//EN" "http://www.w3.org/Graphics/SVG/1.1/DTD/svg11.dtd">
<svg version="1.1" id="Layer_1" xmlns="http://www.w3.org/2000/svg" xmlns:xlink="http://www.w3.org/1999/xlink" x="0px" y="0px"
	 width="600px" height="600px" viewBox="0 0 600 600" enable-background="new 0 0 600 600" xml:space="preserve">
<circle fill="none" stroke="#4F3162" stroke-width="12" stroke-miterlimit="10" cx="300" cy="299.851" r="290.235"/>
<path fill="#66050E" d="M518.562,299.81c0,120.808-97.938,218.746-218.746,218.746c-120.812,0-218.75-97.938-218.75-218.746
	c0-120.812,97.938-218.75,218.75-218.75C420.623,81.06,518.562,178.998,518.562,299.81z"/>
<g>
	<path fill="#FFFFFF" d="M197.034,276.172c1.282,0,2.435,0.105,3.454,0.316l-0.606,4.061c-1.196-0.264-2.251-0.396-3.164-0.396
		c-2.338,0-4.338,0.949-5.999,2.848s-2.491,4.263-2.491,7.093v15.504h-4.377v-28.898h3.612l0.501,5.353h0.211
		c1.071-1.881,2.363-3.331,3.876-4.351C193.562,276.682,195.224,276.172,197.034,276.172z"/>
	<path fill="#FFFFFF" d="M218.102,306.125c-4.271,0-7.643-1.301-10.112-3.902s-3.704-6.214-3.704-10.837
		c0-4.658,1.146-8.358,3.44-11.101s5.375-4.113,9.242-4.113c3.621,0,6.486,1.191,8.596,3.572c2.109,2.383,3.164,5.524,3.164,9.427
		v2.769H208.82c0.088,3.393,0.944,5.968,2.57,7.726s3.916,2.637,6.869,2.637c3.111,0,6.187-0.65,9.229-1.951v3.902
		c-1.547,0.668-3.011,1.147-4.391,1.437C221.718,305.98,220.053,306.125,218.102,306.125z M216.915,279.837
		c-2.32,0-4.171,0.756-5.551,2.268s-2.192,3.604-2.438,6.275h15.108c0-2.76-0.616-4.873-1.846-6.341
		C220.958,280.571,219.199,279.837,216.915,279.837z"/>
	<path fill="#FFFFFF" d="M259.841,276.699v2.769l-5.353,0.633c0.491,0.615,0.932,1.42,1.318,2.413
		c0.386,0.993,0.58,2.113,0.58,3.361c0,2.83-0.967,5.089-2.9,6.776c-1.935,1.688-4.588,2.531-7.963,2.531
		c-0.861,0-1.671-0.07-2.426-0.211c-1.863,0.984-2.795,2.224-2.795,3.718c0,0.791,0.325,1.376,0.976,1.754
		c0.649,0.378,1.767,0.566,3.349,0.566h5.115c3.128,0,5.532,0.659,7.211,1.978s2.519,3.234,2.519,5.748
		c0,3.199-1.283,5.638-3.85,7.317c-2.567,1.678-6.312,2.518-11.232,2.518c-3.78,0-6.693-0.703-8.741-2.109s-3.071-3.393-3.071-5.959
		c0-1.758,0.562-3.278,1.688-4.562c1.124-1.283,2.706-2.153,4.746-2.61c-0.738-0.334-1.358-0.853-1.859-1.556
		s-0.751-1.521-0.751-2.452c0-1.055,0.28-1.978,0.844-2.769c0.562-0.791,1.45-1.556,2.663-2.294
		c-1.494-0.615-2.712-1.661-3.652-3.138s-1.41-3.164-1.41-5.062c0-3.164,0.949-5.603,2.848-7.317c1.898-1.713,4.588-2.57,8.068-2.57
		c1.512,0,2.874,0.176,4.087,0.527H259.841z M236.796,310.449c0,1.564,0.659,2.751,1.978,3.56s3.207,1.213,5.669,1.213
		c3.674,0,6.394-0.55,8.16-1.647c1.767-1.1,2.65-2.589,2.65-4.47c0-1.564-0.484-2.649-1.45-3.257
		c-0.967-0.605-2.786-0.909-5.458-0.909h-5.247c-1.987,0-3.533,0.475-4.641,1.424S236.796,308.674,236.796,310.449z
		 M239.169,285.954c0,2.021,0.57,3.551,1.714,4.588c1.143,1.037,2.732,1.556,4.772,1.556c4.271,0,6.407-2.074,6.407-6.223
		c0-4.342-2.162-6.513-6.486-6.513c-2.057,0-3.639,0.554-4.746,1.661S239.169,283.774,239.169,285.954z"/>
	<path fill="#FFFFFF" d="M269.887,276.699v18.747c0,2.355,0.536,4.113,1.608,5.273c1.071,1.16,2.751,1.74,5.036,1.74
		c3.022,0,5.233-0.826,6.631-2.479s2.097-4.351,2.097-8.095v-15.188h4.377v28.898h-3.612l-0.633-3.876h-0.237
		c-0.896,1.424-2.141,2.514-3.731,3.27s-3.405,1.134-5.444,1.134c-3.517,0-6.148-0.835-7.897-2.505s-2.623-4.342-2.623-8.016
		v-18.905H269.887z"/>
	<path fill="#FFFFFF" d="M303.294,305.598h-4.377V264.57h4.377V305.598z"/>
	<path fill="#FFFFFF" d="M330.347,305.598l-0.87-4.113h-0.211c-1.441,1.811-2.879,3.037-4.312,3.678
		c-1.433,0.642-3.221,0.963-5.365,0.963c-2.865,0-5.111-0.738-6.736-2.215c-1.627-1.477-2.439-3.577-2.439-6.302
		c0-5.836,4.667-8.895,14.001-9.176l4.904-0.158v-1.793c0-2.268-0.487-3.942-1.464-5.022c-0.975-1.082-2.535-1.622-4.68-1.622
		c-2.408,0-5.133,0.738-8.174,2.215l-1.345-3.349c1.424-0.773,2.983-1.38,4.681-1.819c1.695-0.439,3.396-0.659,5.102-0.659
		c3.445,0,5.998,0.765,7.66,2.294c1.66,1.529,2.491,3.981,2.491,7.356v19.723H330.347z M320.459,302.513
		c2.725,0,4.864-0.747,6.421-2.241c1.555-1.494,2.333-3.586,2.333-6.275v-2.61l-4.377,0.185c-3.48,0.123-5.99,0.664-7.528,1.621
		c-1.538,0.959-2.307,2.448-2.307,4.47c0,1.582,0.479,2.786,1.438,3.612C317.396,302.1,318.736,302.513,320.459,302.513z"/>
	<path fill="#FFFFFF" d="M351.941,302.513c0.773,0,1.521-0.057,2.241-0.171s1.292-0.233,1.714-0.356v3.349
		c-0.475,0.229-1.174,0.417-2.096,0.566c-0.924,0.149-1.754,0.225-2.492,0.225c-5.59,0-8.385-2.944-8.385-8.833v-17.191h-4.14
		v-2.109l4.14-1.819l1.846-6.17h2.531v6.697h8.385v3.401h-8.385v17.007c0,1.74,0.413,3.076,1.239,4.008
		S350.5,302.513,351.941,302.513z"/>
	<path fill="#FFFFFF" d="M373.879,306.125c-4.271,0-7.643-1.301-10.112-3.902s-3.704-6.214-3.704-10.837
		c0-4.658,1.147-8.358,3.44-11.101c2.295-2.742,5.375-4.113,9.242-4.113c3.621,0,6.486,1.191,8.596,3.572
		c2.109,2.383,3.164,5.524,3.164,9.427v2.769h-19.907c0.088,3.393,0.944,5.968,2.571,7.726c1.625,1.758,3.915,2.637,6.868,2.637
		c3.111,0,6.188-0.65,9.229-1.951v3.902c-1.547,0.668-3.011,1.147-4.39,1.437C377.495,305.98,375.83,306.125,373.879,306.125z
		 M372.692,279.837c-2.32,0-4.171,0.756-5.551,2.268s-2.192,3.604-2.438,6.275h15.108c0-2.76-0.615-4.873-1.846-6.341
		S374.978,279.837,372.692,279.837z"/>
	<path fill="#FFFFFF" d="M411.637,301.722h-0.237c-2.021,2.936-5.045,4.403-9.07,4.403c-3.779,0-6.72-1.292-8.819-3.876
		c-2.102-2.584-3.151-6.258-3.151-11.021s1.055-8.464,3.164-11.101s5.045-3.955,8.807-3.955c3.92,0,6.926,1.424,9.018,4.271h0.343
		l-0.185-2.083l-0.105-2.03v-11.76h4.377v41.027h-3.56L411.637,301.722z M402.883,302.46c2.988,0,5.154-0.812,6.5-2.438
		c1.344-1.626,2.017-4.25,2.017-7.871v-0.923c0-4.096-0.682-7.018-2.044-8.767s-3.537-2.624-6.525-2.624
		c-2.566,0-4.531,0.998-5.893,2.993c-1.363,1.995-2.044,4.812-2.044,8.45c0,3.691,0.677,6.478,2.03,8.358
		S400.264,302.46,402.883,302.46z"/>
</g>
<g>
	<path fill-rule="evenodd" clip-rule="evenodd" fill="#FFFFFF" d="M215.228,527.755c-0.109-0.136-0.438-0.09-0.661-0.127
		c-3.118,4.438-6.371,4.339-8.609-0.561c-0.682-1.49-0.198-3.603,0.088-5.377c0.066-0.401,1.528-0.759,2.368-0.808
		c1.237-0.076,2.61,0.553,3.293-0.834c-0.896-3.237-1.931-6.292-2.57-9.429c-1.021-5.02-0.213-9.868,1.785-14.586
		c2.579-6.083,7.276-9.393,13.554-10.679c6.203-1.273,11.501,1.154,16.786,4.021c4.318,2.341,6.546,6.479,9.509,9.998
		c1.656,1.966,3.088,4.125,4.799,6.038c1.13,1.263,2.616,2.202,3.863,3.37c0.89,0.831,1.646,1.805,2.718,3
		c-1.724,0.636-2.756,0.871-3.64,1.369c-3.11,1.757-3.199,2.369-2.21,5.853c1.379,4.861,1.766,9.606,0.771,14.603
		c-0.275,1.382-0.762,2.45-1.398,3.45h-0.06c-0.149,0-0.314,0.778-0.481,1.052c-1.666,2.34-4.108,4.116-6.761,5.515
		c-5.547,2.924-10.938,1.849-16.12-1.146c-0.696-0.402-1.391-0.782-2.077-1.2c-2.243-1.373-4.331-2.939-6.431-4.513
		C220.303,534.189,217.842,530.967,215.228,527.755z"/>
	<path fill-rule="evenodd" clip-rule="evenodd" fill="#7382E8" d="M324.438,388.016c4.355,12.524,4.226,24.416,0.263,35.937
		c-14.697,20.742-35.485,28.282-59.929,27.736c-6.46,8.666-12.743,17.093-19.998,26.825c-1.974-11.103-0.02-20.998-1.387-31.07
		c-1.653-0.484-3.315-0.889-4.921-1.455c-15.131-5.339-23.009-17.006-26.076-31.866c-1.898-9.2,2.845-17.375,7.954-24.696
		c2.833-4.058,6.494-7.859,10.542-10.69c20.968-14.66,43.777-18.619,67.984-9.509c5.919,2.229,11.094,6.621,16.33,10.408
		C318.527,382.038,321.335,385.159,324.438,388.016z M261.593,446.172c5.967,0,11.292,0.32,16.561-0.096
		c4.637-0.365,9.279-1.274,13.792-2.442c9.57-2.479,16.089-9.497,23.048-15.911c9.386-8.649,10.989-19.037,7.612-30.736
		c-1.521-5.27-4.195-9.475-9.252-12.361c-5.587-3.188-10.25-8.363-16.106-10.639c-15.996-6.213-32.722-6.328-48.324,0.634
		c-11.22,5.005-22.424,10.658-28.221,23.524c-6.297,13.979-2.319,26.401,7.789,35.758c5.286,4.895,12.09,8.148,19.401,12.922
		c0,5.188,0,11.339,0,17.489c0.453,0.035,0.907,0.069,1.36,0.104C253.187,458.604,257.119,452.788,261.593,446.172z"/>
	<path fill-rule="evenodd" clip-rule="evenodd" fill="#FEFEFE" d="M261.593,446.172c-4.474,6.616-8.406,12.432-12.34,18.246
		c-0.453-0.035-0.907-0.069-1.36-0.104c0-6.15,0-12.302,0-17.489c-7.312-4.773-14.115-8.027-19.401-12.922
		c-10.108-9.356-14.086-21.779-7.789-35.758c5.797-12.866,17.001-18.52,28.221-23.524c15.603-6.962,32.328-6.847,48.324-0.634
		c5.856,2.275,10.52,7.45,16.106,10.639c5.057,2.887,7.731,7.092,9.252,12.361c3.377,11.699,1.773,22.087-7.612,30.736
		c-6.959,6.414-13.478,13.432-23.048,15.911c-4.513,1.168-9.155,2.077-13.792,2.442C272.885,446.492,267.56,446.172,261.593,446.172
		z"/>
	<g>
		<path fill-rule="evenodd" clip-rule="evenodd" fill="#4F3162" d="M244.916,509.292c1.142-0.519,2.95-0.825,2.154-2.433
			c-0.699-1.418-2.169-2.581-3.541-3.494c-0.843-0.562-2.502-0.969-2.919,0.526c-0.245,0.87,0.331,2.238,0.979,3.021
			C242.353,507.841,243.59,508.381,244.916,509.292z"/>
		<path fill-rule="evenodd" clip-rule="evenodd" fill="#4F3162" d="M278.387,577.623c-5.516-8.123-11.866-14.92-21.016-19.066
			c-1.193-3.911-2.497-7.992-3.911-12.628c1.173-0.966,2.21-1.961,3.126-3.013c0.463-0.49,0.882-1.242,1.261-1.822
			c0.839-1.185,1.542-2.037,2.093-4.037h-0.273c1.501-3,2.805-6.683,1.656-10.702c-0.633-2.209-0.977-4.394-1.418-6.655
			c-0.53-2.719,0.217-4.032,2.82-4.596c2.569-0.555,4.24-2.149,6.04-4.246c-2.087-1.607-4.095-3.045-5.994-4.629
			c-2.2-1.835-4.581-3.55-6.387-5.734c-2.505-3.031-4.565-6.431-6.785-9.695c-1.882-2.768-4.892-4.125-7.482-5.975
			c-3.931-2.808-8.597-3.258-13.248-3.747c-2.79-0.297-5.302,0.224-7.744,1.522c-0.998,0.531-2.243,0.661-3.147,1.3
			c-2.345,1.65-4.624,3.407-6.799,5.275c-0.926,0.795-1.4,2.104-2.293,2.953c-1.942,1.847-3.112,4.009-3.529,6.661
			c-0.641,4.059-1.113,8.11-0.043,12.156c0.792,2.997,0.844,5.683-2.378,7.361c-0.188,0.099-0.352,0.331-0.435,0.538
			c-1.54,3.829-1.868,7.583,0.208,11.411c2.275,4.192,5.962,4.969,10.093,4.232c1.623-0.291,2.754,0.047,3.837,0.938
			c1.169,0.959,2.445,1.933,3.231,3.18c1.407,2.233,3.474,3.547,5.624,4.741c-0.166,0.142-0.332,0.284-0.497,0.429
			c3.24,1.893,6.479,3.775,10.132,5.91c0.226,1.255,0.606,2.885,0.726,3.557c-8.301,3.959-14.928,7.55-24.928,11.924v12.789
			c14,4.883,28.229,8.623,42.867,10.35c8.551,1.01,17.133,1.467,25.133,1.791v-12.459
			C278.926,577.631,278.516,577.629,278.387,577.623z M238.025,545.309c-0.252-0.047-0.5-0.104-0.75-0.157l4.684,0.472
			C240.688,545.651,239.376,545.558,238.025,545.309z M215.228,527.755c-0.109-0.136-0.438-0.09-0.661-0.127
			c-3.118,4.438-6.371,4.339-8.609-0.561c-0.682-1.49-0.198-3.603,0.088-5.377c0.066-0.401,1.528-0.759,2.368-0.808
			c1.237-0.076,2.61,0.553,3.293-0.834c-0.896-3.237-1.931-6.292-2.57-9.429c-1.021-5.02-0.213-9.868,1.785-14.586
			c2.579-6.083,7.276-9.393,13.554-10.679c6.203-1.273,11.501,1.154,16.786,4.021c4.318,2.341,6.546,6.479,9.509,9.998
			c1.656,1.966,3.088,4.125,4.799,6.038c1.13,1.263,2.616,2.202,3.863,3.37c0.89,0.831,1.646,1.805,2.718,3
			c-1.724,0.636-2.756,0.871-3.64,1.369c-3.11,1.757-3.199,2.369-2.21,5.853c1.379,4.861,1.766,9.606,0.771,14.603
			c-0.275,1.382-0.762,2.45-1.398,3.45h-0.06c-0.149,0-0.314,0.778-0.481,1.052c-1.666,2.34-4.108,4.116-6.761,5.515
			c-5.547,2.924-10.938,1.849-16.12-1.146c-0.696-0.402-1.391-0.782-2.077-1.2c-2.243-1.373-4.331-2.939-6.431-4.513
			C220.303,534.189,217.842,530.967,215.228,527.755z M241.059,559.714c-0.45-2.907-0.936-6.036-1.506-9.718
			c1.711-0.395,3.419-0.789,5.314-1.227l0.447-0.016c-0.131-0.001-0.264,0.003-0.395,0.003c1.428-0.329,2.96-0.683,4.695-1.084
			c1.26,3.84,2.469,7.524,3.775,11.505C248.692,563.186,245.061,562.713,241.059,559.714z"/>
	</g>
	<g>
		<path fill="#4F3162" d="M274.998,411.695h-9.017l-1.395-25.851h11.805L274.998,411.695z M264.696,421.259
			c0-1.657,0.492-2.946,1.476-3.866c0.984-0.92,2.414-1.38,4.29-1.38c1.858,0,3.266,0.46,4.223,1.38
			c0.956,0.92,1.435,2.209,1.435,3.866c0,1.64-0.497,2.92-1.489,3.839c-0.993,0.92-2.383,1.381-4.168,1.381
			c-1.803,0-3.215-0.461-4.235-1.381C265.206,424.179,264.696,422.898,264.696,421.259z"/>
	</g>
</g>
</svg>
