<?xml version="1.0" encoding="utf-8"?>
<!-- Generator: Adobe Illustrator 16.0.0, SVG Export Plug-In . SVG Version: 6.00 Build 0)  -->
<!DOCTYPE svg PUBLIC "-//W3C//DTD SVG 1.1//EN" "http://www.w3.org/Graphics/SVG/1.1/DTD/svg11.dtd">
<svg version="1.1" id="Layer_1" xmlns="http://www.w3.org/2000/svg" xmlns:xlink="http://www.w3.org/1999/xlink" x="0px" y="0px"
	 width="600px" height="648.941px" viewBox="0 0 600 648.941" enable-background="new 0 0 600 648.941" xml:space="preserve">
<circle cx="275.561" cy="323.789" r="26.029"/>
<circle fill="#840AAC" cx="275.214" cy="487.06" r="149.582"/>
<g>
	<path fill="#FFFFFF" d="M174.63,496.173l-3.886-9.929h-12.512l-3.844,9.929h-3.672l12.342-31.345h3.053l12.277,31.345H174.63z
		 M169.612,482.978l-3.63-9.673c-0.47-1.224-0.954-2.726-1.452-4.505c-0.313,1.366-0.762,2.868-1.345,4.505l-3.673,9.673H169.612z"
		/>
	<path fill="#FFFFFF" d="M192.822,472.344c1.039,0,1.971,0.086,2.797,0.256l-0.491,3.289c-0.968-0.214-1.822-0.32-2.562-0.32
		c-1.893,0-3.512,0.769-4.857,2.306s-2.018,3.452-2.018,5.744v12.555h-3.544v-23.402h2.925l0.406,4.335h0.171
		c0.868-1.523,1.915-2.697,3.139-3.523C190.01,472.757,191.355,472.344,192.822,472.344z"/>
	<path fill="#FFFFFF" d="M209.349,496.6c-3.388,0-6.011-1.042-7.868-3.128c-1.858-2.085-2.787-5.035-2.787-8.851
		c0-3.914,0.943-6.939,2.829-9.074c1.886-2.136,4.573-3.203,8.061-3.203c1.124,0,2.249,0.121,3.374,0.363s2.007,0.526,2.647,0.854
		l-1.089,3.011c-0.783-0.312-1.637-0.572-2.562-0.779c-0.926-0.206-1.744-0.31-2.456-0.31c-4.754,0-7.132,3.032-7.132,9.097
		c0,2.875,0.58,5.081,1.74,6.619c1.16,1.537,2.879,2.306,5.157,2.306c1.95,0,3.95-0.42,6-1.26v3.139
		C213.697,496.194,211.726,496.6,209.349,496.6z"/>
	<path fill="#FFFFFF" d="M236.829,496.173v-15.139c0-1.907-0.434-3.331-1.302-4.271c-0.869-0.939-2.228-1.409-4.078-1.409
		c-2.463,0-4.26,0.669-5.392,2.007c-1.132,1.339-1.698,3.53-1.698,6.577v12.234h-3.544v-33.224h3.544v10.057
		c0,1.21-0.057,2.214-0.17,3.011h0.213c0.697-1.125,1.69-2.011,2.979-2.658c1.288-0.647,2.758-0.972,4.409-0.972
		c2.861,0,5.007,0.68,6.438,2.039c1.43,1.359,2.146,3.52,2.146,6.48v15.267H236.829z"/>
	<path fill="#FFFFFF" d="M247.355,466.43c0-0.812,0.199-1.406,0.598-1.783c0.398-0.377,0.896-0.566,1.495-0.566
		c0.569,0,1.06,0.192,1.473,0.577c0.413,0.384,0.619,0.975,0.619,1.772c0,0.797-0.207,1.392-0.619,1.782
		c-0.413,0.392-0.904,0.588-1.473,0.588c-0.598,0-1.097-0.196-1.495-0.588C247.555,467.821,247.355,467.227,247.355,466.43z
		 M251.199,496.173h-3.544v-23.402h3.544V496.173z"/>
	<path fill="#FFFFFF" d="M266.274,493.675c0.626,0,1.231-0.046,1.814-0.139c0.584-0.093,1.046-0.188,1.388-0.288v2.711
		c-0.384,0.186-0.95,0.338-1.698,0.459c-0.747,0.121-1.42,0.182-2.018,0.182c-4.527,0-6.79-2.384-6.79-7.152v-13.922h-3.352v-1.708
		l3.352-1.474l1.495-4.996h2.05v5.423h6.79v2.755h-6.79v13.772c0,1.409,0.334,2.491,1.003,3.245
		C264.188,493.298,265.106,493.675,266.274,493.675z"/>
	<path fill="#FFFFFF" d="M284.038,496.6c-3.459,0-6.188-1.053-8.188-3.16c-2-2.106-3-5.031-3-8.775c0-3.772,0.929-6.769,2.787-8.989
		c1.857-2.221,4.352-3.331,7.483-3.331c2.933,0,5.253,0.965,6.961,2.894s2.562,4.473,2.562,7.633v2.242h-16.121
		c0.071,2.747,0.766,4.833,2.082,6.256c1.316,1.424,3.171,2.136,5.562,2.136c2.52,0,5.01-0.526,7.473-1.58v3.16
		c-1.253,0.541-2.438,0.929-3.555,1.164C286.967,496.482,285.618,496.6,284.038,496.6z M283.078,475.312
		c-1.879,0-3.378,0.612-4.495,1.837c-1.117,1.224-1.775,2.918-1.975,5.081h12.234c0-2.234-0.498-3.946-1.494-5.135
		C286.352,475.906,284.928,475.312,283.078,475.312z"/>
	<path fill="#FFFFFF" d="M308.038,496.6c-3.388,0-6.011-1.042-7.868-3.128c-1.857-2.085-2.787-5.035-2.787-8.851
		c0-3.914,0.943-6.939,2.829-9.074c1.887-2.136,4.573-3.203,8.061-3.203c1.125,0,2.249,0.121,3.374,0.363
		c1.124,0.242,2.007,0.526,2.647,0.854l-1.089,3.011c-0.783-0.312-1.637-0.572-2.562-0.779c-0.925-0.206-1.743-0.31-2.455-0.31
		c-4.755,0-7.132,3.032-7.132,9.097c0,2.875,0.58,5.081,1.74,6.619c1.16,1.537,2.879,2.306,5.156,2.306c1.95,0,3.95-0.42,6-1.26
		v3.139C312.387,496.194,310.415,496.6,308.038,496.6z"/>
	<path fill="#FFFFFF" d="M327.062,493.675c0.627,0,1.231-0.046,1.815-0.139c0.583-0.093,1.046-0.188,1.388-0.288v2.711
		c-0.385,0.186-0.95,0.338-1.697,0.459c-0.748,0.121-1.42,0.182-2.018,0.182c-4.527,0-6.79-2.384-6.79-7.152v-13.922h-3.353v-1.708
		l3.353-1.474l1.494-4.996h2.05v5.423h6.79v2.755h-6.79v13.772c0,1.409,0.334,2.491,1.004,3.245
		C324.978,493.298,325.896,493.675,327.062,493.675z"/>
	<path fill="#FFFFFF" d="M338.272,472.771v15.182c0,1.908,0.435,3.331,1.303,4.271s2.228,1.409,4.078,1.409
		c2.448,0,4.238-0.669,5.37-2.007s1.697-3.523,1.697-6.556v-12.299h3.545v23.402h-2.926l-0.513-3.139h-0.191
		c-0.727,1.153-1.733,2.036-3.021,2.647c-1.289,0.612-2.758,0.918-4.409,0.918c-2.848,0-4.979-0.676-6.396-2.028
		c-1.416-1.352-2.124-3.516-2.124-6.491v-15.31H338.272z"/>
	<path fill="#FFFFFF" d="M372.457,472.344c1.039,0,1.972,0.086,2.798,0.256l-0.491,3.289c-0.969-0.214-1.822-0.32-2.562-0.32
		c-1.894,0-3.513,0.769-4.857,2.306c-1.346,1.537-2.018,3.452-2.018,5.744v12.555h-3.545v-23.402h2.926l0.405,4.335h0.171
		c0.868-1.523,1.914-2.697,3.139-3.523C369.646,472.757,370.991,472.344,372.457,472.344z"/>
	<path fill="#FFFFFF" d="M389.518,496.6c-3.459,0-6.188-1.053-8.188-3.16c-2-2.106-3-5.031-3-8.775c0-3.772,0.93-6.769,2.787-8.989
		s4.352-3.331,7.483-3.331c2.933,0,5.253,0.965,6.961,2.894s2.562,4.473,2.562,7.633v2.242h-16.121
		c0.071,2.747,0.766,4.833,2.082,6.256c1.316,1.424,3.171,2.136,5.562,2.136c2.52,0,5.01-0.526,7.473-1.58v3.16
		c-1.253,0.541-2.438,0.929-3.555,1.164C392.446,496.482,391.098,496.6,389.518,496.6z M388.558,475.312
		c-1.879,0-3.378,0.612-4.495,1.837c-1.117,1.224-1.775,2.918-1.975,5.081h12.234c0-2.234-0.498-3.946-1.494-5.135
		C391.831,475.906,390.407,475.312,388.558,475.312z"/>
</g>
<ellipse fill="#B7530C" cx="60.039" cy="324.138" rx="33.961" ry="149.583"/>
<g>
	<path fill="#FFFFFF" d="M72.451,364.499v4.143l-26.199,17.06v0.171c3.075-0.228,5.893-0.342,8.456-0.342h17.744v3.353H41.234v-4.1
		l26.092-17.018v-0.171c-0.384,0.029-1.619,0.093-3.705,0.192c-2.085,0.1-3.577,0.136-4.473,0.106H41.234v-3.395H72.451z"/>
	<path fill="#FFFFFF" d="M60.729,336.25c3.815,0,6.793,0.961,8.936,2.883c2.143,1.921,3.214,4.576,3.214,7.964
		c0,2.093-0.491,3.95-1.474,5.573c-0.982,1.622-2.391,2.875-4.228,3.758s-3.985,1.324-6.448,1.324c-3.815,0-6.787-0.954-8.915-2.861
		s-3.192-4.556-3.192-7.943c0-3.273,1.089-5.875,3.267-7.804C54.066,337.215,57.013,336.25,60.729,336.25z M60.729,354.079
		c2.989,0,5.267-0.598,6.833-1.794c1.566-1.195,2.349-2.953,2.349-5.273s-0.779-4.082-2.338-5.285
		c-1.559-1.202-3.84-1.804-6.843-1.804c-2.975,0-5.235,0.602-6.779,1.804c-1.544,1.203-2.317,2.979-2.317,5.327
		c0,2.32,0.762,4.071,2.285,5.253C55.44,353.488,57.71,354.079,60.729,354.079z"/>
	<path fill="#FFFFFF" d="M48.622,319.36c0-1.039,0.085-1.972,0.256-2.798l3.288,0.491c-0.213,0.969-0.32,1.822-0.32,2.562
		c0,1.894,0.769,3.513,2.306,4.857c1.538,1.346,3.452,2.018,5.744,2.018h12.555v3.545H49.049v-2.926l4.334-0.405v-0.171
		c-1.523-0.868-2.697-1.914-3.523-3.139C49.035,322.171,48.622,320.826,48.622,319.36z"/>
	<path fill="#FFFFFF" d="M72.451,282.356H57.227c-1.865,0-3.263,0.398-4.196,1.195c-0.932,0.798-1.398,2.036-1.398,3.716
		c0,2.206,0.634,3.836,1.9,4.89c1.267,1.054,3.217,1.58,5.851,1.58h13.067v3.544H57.227c-1.865,0-3.263,0.399-4.196,1.196
		c-0.932,0.797-1.398,2.043-1.398,3.736c0,2.221,0.666,3.847,1.997,4.879s3.512,1.548,6.544,1.548h12.277v3.545H49.049v-2.883
		l3.203-0.576v-0.171c-1.139-0.669-2.028-1.612-2.669-2.829c-0.641-1.218-0.961-2.58-0.961-4.089c0-3.658,1.324-6.05,3.972-7.175
		v-0.171c-1.224-0.697-2.192-1.708-2.904-3.032c-0.712-1.323-1.068-2.832-1.068-4.526c0-2.647,0.68-4.63,2.039-5.946
		c1.36-1.316,3.534-1.976,6.523-1.976h15.267V282.356z"/>
	<path fill="#FFFFFF" d="M66.066,256.414c2.178,0,3.858,0.811,5.039,2.434c1.182,1.623,1.772,3.9,1.772,6.833
		c0,3.104-0.491,5.523-1.474,7.26h-3.288c0.569-1.125,1.018-2.331,1.345-3.619c0.328-1.288,0.491-2.53,0.491-3.727
		c0-1.85-0.295-3.273-0.886-4.271c-0.59-0.996-1.491-1.494-2.701-1.494c-0.911,0-1.69,0.395-2.338,1.185
		c-0.647,0.79-1.413,2.331-2.295,4.623c-0.812,2.178-1.52,3.726-2.125,4.645c-0.605,0.918-1.292,1.601-2.061,2.05
		c-0.769,0.448-1.687,0.672-2.754,0.672c-1.907,0-3.413-0.775-4.516-2.327c-1.103-1.551-1.655-3.68-1.655-6.384
		c0-2.52,0.513-4.982,1.538-7.389l2.882,1.26c-0.968,2.35-1.452,4.478-1.452,6.385c0,1.68,0.263,2.946,0.79,3.801
		c0.527,0.854,1.253,1.281,2.178,1.281c0.626,0,1.16-0.16,1.602-0.48s0.861-0.836,1.26-1.548s0.975-2.078,1.729-4.1
		c1.011-2.776,2.028-4.651,3.053-5.627C63.227,256.901,64.515,256.414,66.066,256.414z"/>
</g>
<path fill="#2EA923" d="M440.959,473.024c-82.607,0-149.58-66.968-149.58-149.581c0-82.61,66.973-149.581,149.58-149.581
	c82.611,0,149.583,66.971,149.583,149.581C590.542,406.057,523.57,473.024,440.959,473.024z"/>
<g>
	<path fill="#FFFFFF" d="M428.551,269.609l27.673-10.591v-0.171c-2.192,0.199-4.798,0.3-7.815,0.3h-19.857v-3.353h31.217v5.466
		l-25.751,9.886v0.171l25.751,9.972v5.424h-31.217v-3.63h20.113c2.307,0,4.812,0.1,7.517,0.299v-0.171l-27.63-10.676V269.609z"/>
	<path fill="#FFFFFF" d="M428.551,309.133l3.331-0.705v-0.171c-1.467-1.167-2.459-2.331-2.979-3.49
		c-0.52-1.161-0.779-2.609-0.779-4.346c0-2.32,0.598-4.139,1.793-5.455c1.196-1.317,2.896-1.976,5.104-1.976
		c4.726,0,7.203,3.779,7.431,11.338l0.128,3.972h1.452c1.836,0,3.192-0.395,4.067-1.185c0.876-0.79,1.313-2.054,1.313-3.79
		c0-1.95-0.598-4.157-1.794-6.619l2.712-1.089c0.626,1.152,1.117,2.416,1.474,3.79c0.355,1.373,0.533,2.75,0.533,4.131
		c0,2.79-0.619,4.858-1.857,6.203c-1.238,1.346-3.225,2.018-5.957,2.018h-15.972V309.133z M431.049,301.126
		c0,2.206,0.605,3.939,1.815,5.199c1.209,1.26,2.903,1.89,5.081,1.89h2.114l-0.149-3.545c-0.1-2.818-0.537-4.851-1.313-6.096
		c-0.775-1.246-1.982-1.868-3.619-1.868c-1.281,0-2.256,0.388-2.925,1.163C431.383,298.646,431.049,299.73,431.049,301.126z"/>
	<path fill="#FFFFFF" d="M452.38,329.737c0,1.039-0.086,1.972-0.256,2.798l-3.289-0.491c0.214-0.969,0.32-1.822,0.32-2.562
		c0-1.894-0.769-3.513-2.306-4.857c-1.537-1.346-3.452-2.018-5.744-2.018h-12.555v-3.545h23.402v2.926l-4.335,0.405v0.171
		c1.523,0.868,2.697,1.914,3.523,3.139C451.967,326.927,452.38,328.271,452.38,329.737z"/>
	<path fill="#FFFFFF" d="M440.529,340.414c0.868,0.612,2.007,1.544,3.416,2.797l8.008,7.559v4.207l-9.972-9.48l-13.431,10.142
		v-4.291l11.061-8.264l-2.307-2.669h-8.754v-3.502h33.224v3.502h-17.615c-0.783,0-1.993-0.057-3.63-0.171V340.414z"/>
	<path fill="#FFFFFF" d="M428.124,369.751c0-3.459,1.053-6.188,3.16-8.188c2.106-2,5.031-3,8.775-3c3.772,0,6.769,0.93,8.989,2.787
		s3.331,4.352,3.331,7.483c0,2.933-0.965,5.253-2.894,6.961s-4.473,2.562-7.633,2.562h-2.242v-16.121
		c-2.747,0.071-4.833,0.766-6.256,2.082c-1.424,1.316-2.136,3.171-2.136,5.562c0,2.52,0.526,5.01,1.58,7.473h-3.16
		c-0.541-1.253-0.929-2.438-1.164-3.555C428.241,372.68,428.124,371.331,428.124,369.751z M449.412,368.791
		c0-1.879-0.612-3.378-1.837-4.495c-1.224-1.117-2.918-1.775-5.081-1.975v12.234c2.234,0,3.946-0.498,5.135-1.494
		C448.817,372.064,449.412,370.641,449.412,368.791z"/>
	<path fill="#FFFFFF" d="M431.049,391.957c0,0.627,0.046,1.231,0.139,1.815c0.093,0.583,0.188,1.046,0.288,1.388h-2.711
		c-0.186-0.385-0.338-0.95-0.459-1.697c-0.121-0.748-0.182-1.42-0.182-2.018c0-4.527,2.384-6.79,7.152-6.79h13.922v-3.353h1.708
		l1.474,3.353l4.996,1.494v2.05h-5.423v6.79h-2.755v-6.79h-13.772c-1.409,0-2.491,0.334-3.245,1.004
		C431.426,389.872,431.049,390.79,431.049,391.957z"/>
</g>
<circle fill="#193282" cx="275.214" cy="158.627" r="149.582"/>
<g>
	<path fill="#FFFFFF" d="M239.338,167.74v-31.217h3.63v27.929h13.772v3.288H239.338z"/>
	<path fill="#FFFFFF" d="M275.893,167.74l-0.705-3.331h-0.17c-1.168,1.467-2.332,2.459-3.492,2.979s-2.608,0.779-4.345,0.779
		c-2.32,0-4.139-0.598-5.455-1.793c-1.317-1.196-1.975-2.896-1.975-5.104c0-4.726,3.779-7.203,11.338-7.431l3.971-0.128v-1.452
		c0-1.836-0.395-3.192-1.185-4.067c-0.79-0.876-2.053-1.313-3.79-1.313c-1.951,0-4.157,0.598-6.62,1.794l-1.089-2.712
		c1.153-0.626,2.416-1.117,3.79-1.474c1.374-0.355,2.751-0.533,4.132-0.533c2.79,0,4.858,0.619,6.203,1.857
		c1.346,1.238,2.018,3.225,2.018,5.957v15.972H275.893z M267.885,165.242c2.207,0,3.939-0.605,5.199-1.815
		c1.26-1.209,1.89-2.903,1.89-5.081v-2.114l-3.545,0.149c-2.818,0.1-4.851,0.537-6.096,1.313c-1.246,0.775-1.869,1.982-1.869,3.619
		c0,1.281,0.388,2.256,1.164,2.925C265.405,164.908,266.49,165.242,267.885,165.242z"/>
	<path fill="#FFFFFF" d="M304.932,167.74l-4.292-13.729c-0.271-0.84-0.775-2.747-1.516-5.723h-0.171
		c-0.569,2.491-1.067,4.413-1.495,5.766l-4.42,13.687h-4.1l-6.384-23.402h3.715c1.509,5.88,2.658,10.356,3.448,13.431
		c0.79,3.075,1.242,5.146,1.356,6.214h0.171c0.156-0.812,0.409-1.861,0.758-3.149s0.651-2.31,0.907-3.064l4.292-13.431h3.844
		l4.185,13.431c0.797,2.448,1.338,4.506,1.623,6.171h0.171c0.057-0.513,0.21-1.303,0.459-2.37s1.732-6.812,4.452-17.231h3.672
		l-6.47,23.402H304.932z"/>
</g>
</svg>
