<?xml version="1.0" encoding="utf-8"?>
<!-- Generator: Adobe Illustrator 16.0.0, SVG Export Plug-In . SVG Version: 6.00 Build 0)  -->
<!DOCTYPE svg PUBLIC "-//W3C//DTD SVG 1.1//EN" "http://www.w3.org/Graphics/SVG/1.1/DTD/svg11.dtd">
<svg version="1.1" id="Layer_1" xmlns="http://www.w3.org/2000/svg" xmlns:xlink="http://www.w3.org/1999/xlink" x="0px" y="0px"
	 width="600px" height="386.333px" viewBox="0 0 600 386.333" enable-background="new 0 0 600 386.333" xml:space="preserve">
<linearGradient id="SVGID_1_" gradientUnits="userSpaceOnUse" x1="216.249" y1="72.6143" x2="189.7542" y2="99.109">
	<stop  offset="0" style="stop-color:#FFFFFF"/>
	<stop  offset="1" style="stop-color:#000000"/>
</linearGradient>
<polygon fill="url(#SVGID_1_)" points="218.82,80.275 209.099,70.554 188.576,91.076 179.936,82.437 179.464,109.4 206.428,108.928 
	198.298,100.798 "/>
<linearGradient id="SVGID_2_" gradientUnits="userSpaceOnUse" x1="326.8545" y1="406.3135" x2="300.3597" y2="432.8083" gradientTransform="matrix(-4.371139e-08 -1 1 -4.371139e-08 -17.9038 399.7241)">
	<stop  offset="0" style="stop-color:#FFFFFF"/>
	<stop  offset="1" style="stop-color:#000000"/>
</linearGradient>
<polygon fill="url(#SVGID_2_)" points="396.069,70.299 386.348,80.021 406.871,100.543 398.23,109.184 425.194,109.654 
	424.724,82.69 416.592,90.822 "/>
<circle cx="302.981" cy="192.633" r="16.97"/>
<linearGradient id="SVGID_3_" gradientUnits="userSpaceOnUse" x1="165.9258" y1="192.7461" x2="279.1816" y2="192.7461">
	<stop  offset="0" style="stop-color:#FFFFFF"/>
	<stop  offset="1" style="stop-color:#000000"/>
</linearGradient>
<polygon fill="url(#SVGID_3_)" points="279.182,192.747 260.926,175.119 260.926,188 165.926,188 165.926,197 260.926,197 
	260.926,210.374 "/>
<linearGradient id="SVGID_4_" gradientUnits="userSpaceOnUse" x1="-275.6289" y1="1047.5703" x2="-162.3721" y2="1047.5703" gradientTransform="matrix(1.192488e-08 -1 1 1.192488e-08 -744.626 54.3711)">
	<stop  offset="0" style="stop-color:#FFFFFF"/>
	<stop  offset="1" style="stop-color:#000000"/>
</linearGradient>
<polygon fill="url(#SVGID_4_)" points="302.945,216.743 285.317,235 297.926,235 297.926,330 305.926,330 305.926,235 320.572,235 
	"/>
<linearGradient id="SVGID_5_" gradientUnits="userSpaceOnUse" x1="-1127.7344" y1="606.1074" x2="-1014.4775" y2="606.1074" gradientTransform="matrix(-1 0 0 -1 -689.8086 798.5508)">
	<stop  offset="0" style="stop-color:#FFFFFF"/>
	<stop  offset="1" style="stop-color:#000000"/>
</linearGradient>
<polygon fill="url(#SVGID_5_)" points="324.669,192.443 342.926,210.071 342.926,198 437.926,198 437.926,188 342.926,188 
	342.926,174.815 "/>
<linearGradient id="SVGID_6_" gradientUnits="userSpaceOnUse" x1="-688.7344" y1="-247.2168" x2="-575.4785" y2="-247.2168" gradientTransform="matrix(-1.192488e-08 1 -1 -1.192488e-08 54.3711 743.7344)">
	<stop  offset="0" style="stop-color:#FFFFFF"/>
	<stop  offset="1" style="stop-color:#000000"/>
</linearGradient>
<polygon fill="url(#SVGID_6_)" points="301.588,168.256 319.216,150 305.926,150 305.926,55 297.926,55 297.926,150 283.96,150 "/>
<ellipse fill="#193282" cx="302.755" cy="54.838" rx="97.521" ry="49.326"/>
<g>
	<path fill="#FFFFFF" d="M279.365,62.929V42.577h2.367v18.208h8.979v2.144H279.365z"/>
	<path fill="#FFFFFF" d="M303.198,62.929l-0.46-2.172h-0.111c-0.761,0.956-1.52,1.604-2.276,1.942
		c-0.756,0.339-1.7,0.508-2.832,0.508c-1.513,0-2.699-0.39-3.557-1.169c-0.859-0.78-1.288-1.889-1.288-3.327
		c0-3.081,2.464-4.696,7.392-4.845l2.59-0.083v-0.947c0-1.197-0.258-2.081-0.773-2.651c-0.515-0.571-1.338-0.856-2.471-0.856
		c-1.271,0-2.71,0.39-4.315,1.169l-0.71-1.768c0.752-0.408,1.575-0.729,2.472-0.96c0.895-0.232,1.793-0.349,2.693-0.349
		c1.818,0,3.167,0.404,4.044,1.211c0.877,0.808,1.315,2.103,1.315,3.884v10.413H303.198z M297.978,61.3
		c1.438,0,2.568-0.395,3.39-1.183c0.821-0.789,1.232-1.894,1.232-3.313v-1.378l-2.312,0.097c-1.837,0.065-3.162,0.351-3.974,0.856
		c-0.812,0.506-1.219,1.293-1.219,2.359c0,0.836,0.253,1.472,0.759,1.907C296.36,61.082,297.068,61.3,297.978,61.3z"/>
	<path fill="#FFFFFF" d="M322.13,62.929l-2.798-8.951c-0.177-0.547-0.506-1.791-0.988-3.73h-0.111
		c-0.372,1.624-0.696,2.877-0.975,3.759l-2.882,8.923h-2.673l-4.162-15.257h2.422c0.983,3.833,1.733,6.751,2.248,8.756
		c0.516,2.005,0.81,3.354,0.885,4.051h0.111c0.102-0.529,0.267-1.213,0.494-2.053c0.227-0.84,0.424-1.506,0.591-1.998l2.799-8.756
		h2.505l2.729,8.756c0.521,1.597,0.873,2.938,1.059,4.023h0.111c0.037-0.334,0.137-0.85,0.299-1.546
		c0.162-0.695,1.13-4.44,2.902-11.233h2.395l-4.218,15.257H322.13z"/>
</g>
<ellipse transform="matrix(0.977 -0.2131 0.2131 0.977 -63.6057 72.1121)" fill="#840AAC" cx="302.761" cy="331.154" rx="97.521" ry="49.324"/>
<g>
	<path fill="#FFFFFF" d="M240.414,353.03l-3.854-5.785l-7.97,1.738l-1.069,6.858l-2.34,0.51l3.508-21.681l1.944-0.425l12.175,18.262
		L240.414,353.03z M235.385,345.321l-3.656-5.656c-0.469-0.716-0.986-1.605-1.551-2.669c-0.01,0.915-0.086,1.934-0.23,3.057
		l-0.996,6.672L235.385,345.321z"/>
	<path fill="#FFFFFF" d="M248.691,335.324c0.662-0.145,1.269-0.219,1.817-0.226l0.144,2.163c-0.646-0.002-1.205,0.049-1.676,0.152
		c-1.206,0.263-2.131,0.977-2.773,2.143c-0.645,1.167-0.807,2.48-0.488,3.939l1.744,7.998l-2.258,0.492l-3.25-14.906l1.863-0.406
		l0.859,2.703l0.109-0.023c0.342-1.09,0.845-1.983,1.51-2.681C246.958,335.978,247.758,335.527,248.691,335.324z"/>
	<path fill="#FFFFFF" d="M262.588,348.479c-2.158,0.471-3.973,0.171-5.445-0.898c-1.473-1.07-2.475-2.82-3.005-5.251
		c-0.544-2.493-0.364-4.552,0.541-6.174s2.469-2.675,4.689-3.159c0.717-0.156,1.45-0.235,2.2-0.237
		c0.749-0.002,1.352,0.058,1.805,0.176l-0.275,2.068c-0.542-0.09-1.122-0.137-1.74-0.14s-1.154,0.045-1.607,0.144
		c-3.028,0.66-4.122,2.922-3.279,6.785c0.399,1.831,1.075,3.156,2.028,3.975s2.154,1.068,3.604,0.752
		c1.242-0.271,2.458-0.815,3.647-1.636l0.437,2C265.302,347.617,264.103,348.148,262.588,348.479z"/>
	<path fill="#FFFFFF" d="M280.034,344.39l-2.104-9.644c-0.265-1.215-0.739-2.061-1.423-2.538c-0.684-0.479-1.615-0.589-2.793-0.331
		c-1.569,0.342-2.621,1.018-3.156,2.027c-0.534,1.01-0.591,2.483-0.168,4.425l1.7,7.793l-2.258,0.492l-4.614-21.163l2.257-0.492
		l1.397,6.406c0.167,0.771,0.271,1.417,0.309,1.941l0.137-0.029c0.287-0.813,0.797-1.516,1.527-2.107s1.622-1.002,2.674-1.231
		c1.823-0.397,3.284-0.263,4.385,0.405c1.1,0.667,1.855,1.942,2.266,3.829l2.121,9.725L280.034,344.39z"/>
	<path fill="#FFFFFF" d="M282.607,323.981c-0.113-0.518-0.068-0.923,0.133-1.219c0.202-0.296,0.492-0.485,0.873-0.567
		c0.363-0.08,0.702-0.025,1.02,0.162c0.316,0.188,0.529,0.535,0.64,1.043c0.111,0.508,0.062,0.915-0.146,1.222
		c-0.21,0.308-0.495,0.499-0.857,0.579c-0.381,0.082-0.726,0.027-1.033-0.167C282.927,324.841,282.718,324.489,282.607,323.981z
		 M289.187,342.395l-2.257,0.492l-3.251-14.906l2.257-0.492L289.187,342.395z"/>
	<path fill="#FFFFFF" d="M298.442,338.708c0.398-0.087,0.777-0.2,1.137-0.34c0.358-0.14,0.64-0.266,0.844-0.376l0.377,1.727
		c-0.22,0.171-0.559,0.348-1.018,0.528s-0.879,0.312-1.26,0.396c-2.884,0.629-4.656-0.575-5.319-3.612l-1.934-8.868l-2.135,0.466
		l-0.237-1.088l1.931-1.404l0.258-3.391l1.305-0.284l0.754,3.455l4.325-0.943l0.383,1.754l-4.325,0.943l1.913,8.772
		c0.195,0.898,0.56,1.54,1.091,1.929C297.062,338.759,297.698,338.87,298.442,338.708z"/>
	<path fill="#FFFFFF" d="M310.164,338.104c-2.203,0.48-4.088,0.19-5.654-0.875c-1.566-1.064-2.609-2.788-3.13-5.173
		c-0.524-2.403-0.349-4.44,0.526-6.114c0.874-1.672,2.31-2.726,4.305-3.16c1.867-0.407,3.479-0.115,4.835,0.876
		c1.356,0.991,2.254,2.493,2.692,4.506l0.312,1.429l-10.27,2.239c0.427,1.739,1.158,2.972,2.195,3.696
		c1.036,0.724,2.316,0.919,3.84,0.587c1.604-0.35,3.118-1.031,4.54-2.045l0.439,2.014c-0.723,0.518-1.424,0.93-2.104,1.235
		C312.014,337.623,311.171,337.885,310.164,338.104z M306.596,324.678c-1.197,0.261-2.066,0.858-2.608,1.794
		c-0.542,0.935-0.726,2.105-0.552,3.512l7.793-1.699c-0.311-1.424-0.865-2.445-1.665-3.065
		C308.764,324.602,307.773,324.421,306.596,324.678z"/>
	<path fill="#FFFFFF" d="M325.452,334.77c-2.158,0.471-3.974,0.172-5.446-0.898s-2.475-2.82-3.005-5.251
		c-0.544-2.493-0.364-4.552,0.542-6.173c0.904-1.623,2.468-2.676,4.689-3.16c0.716-0.156,1.449-0.235,2.199-0.237
		s1.352,0.058,1.805,0.177l-0.275,2.068c-0.542-0.091-1.122-0.137-1.74-0.141c-0.618-0.002-1.154,0.045-1.607,0.144
		c-3.028,0.661-4.121,2.923-3.279,6.786c0.4,1.831,1.075,3.155,2.028,3.974s2.154,1.069,3.604,0.753
		c1.243-0.271,2.458-0.816,3.647-1.637l0.437,2C328.165,333.908,326.967,334.439,325.452,334.77z"/>
	<path fill="#FFFFFF" d="M337.164,330.264c0.398-0.087,0.778-0.2,1.137-0.34c0.359-0.14,0.641-0.266,0.844-0.376l0.377,1.727
		c-0.219,0.172-0.559,0.348-1.018,0.528c-0.459,0.182-0.879,0.312-1.26,0.396c-2.883,0.629-4.656-0.575-5.318-3.612l-1.935-8.868
		l-2.135,0.466l-0.237-1.088l1.931-1.404l0.258-3.39l1.306-0.285l0.754,3.455l4.324-0.943l0.383,1.754l-4.325,0.943l1.913,8.772
		c0.196,0.898,0.559,1.54,1.09,1.929C335.783,330.314,336.42,330.426,337.164,330.264z"/>
	<path fill="#FFFFFF" d="M341.4,315.393l2.109,9.67c0.265,1.215,0.739,2.062,1.423,2.54c0.683,0.477,1.615,0.588,2.794,0.331
		c1.559-0.341,2.606-1.016,3.142-2.024c0.534-1.01,0.592-2.48,0.171-4.412l-1.709-7.834l2.258-0.492l3.251,14.906l-1.863,0.406
		l-0.763-1.928l-0.122,0.026c-0.303,0.835-0.821,1.538-1.558,2.106c-0.734,0.569-1.629,0.968-2.68,1.196
		c-1.814,0.396-3.267,0.263-4.355-0.402c-1.091-0.666-1.842-1.945-2.256-3.841l-2.126-9.751L341.4,315.393z"/>
	<path fill="#FFFFFF" d="M363.116,310.372c0.662-0.145,1.269-0.22,1.817-0.226l0.144,2.162c-0.646-0.002-1.205,0.05-1.676,0.152
		c-1.206,0.263-2.131,0.977-2.774,2.144c-0.643,1.166-0.806,2.479-0.487,3.938l1.744,7.998l-2.258,0.492l-3.251-14.906l1.863-0.406
		l0.86,2.703l0.109-0.023c0.341-1.089,0.845-1.982,1.51-2.68C361.383,311.024,362.183,310.575,363.116,310.372z"/>
	<path fill="#FFFFFF" d="M377.354,323.452c-2.203,0.48-4.09,0.189-5.655-0.875c-1.566-1.064-2.609-2.789-3.13-5.174
		c-0.523-2.403-0.349-4.44,0.525-6.113c0.875-1.672,2.311-2.726,4.306-3.161c1.867-0.407,3.479-0.115,4.835,0.876
		c1.356,0.991,2.254,2.494,2.693,4.507l0.311,1.429l-10.269,2.239c0.427,1.739,1.159,2.972,2.195,3.696
		c1.036,0.724,2.316,0.919,3.84,0.587c1.604-0.351,3.118-1.031,4.541-2.045l0.438,2.014c-0.723,0.518-1.424,0.929-2.103,1.234
		C379.202,322.971,378.359,323.232,377.354,323.452z M373.784,310.025c-1.197,0.262-2.066,0.859-2.608,1.795
		c-0.542,0.935-0.727,2.105-0.552,3.512l7.793-1.699c-0.311-1.424-0.865-2.446-1.665-3.065
		C375.952,309.95,374.962,309.769,373.784,310.025z"/>
</g>
<ellipse transform="matrix(-0.3669 -0.9303 0.9303 -0.3669 42.7944 414.8141)" fill="#B7530C" cx="162.553" cy="192.845" rx="97.521" ry="49.328"/>
<g>
	<path fill="#FFFFFF" d="M179.733,214.354l0.991,2.512l-11.809,16.613l0.041,0.104c1.81-0.873,3.492-1.616,5.046-2.229l10.762-4.243
		l0.802,2.033l-18.933,7.467l-0.98-2.486l11.754-16.562l-0.041-0.104c-0.226,0.109-0.96,0.443-2.201,1.002
		c-1.24,0.56-2.136,0.938-2.687,1.135l-10.865,4.285l-0.812-2.059L179.733,214.354z"/>
	<path fill="#FFFFFF" d="M165.867,200.024c2.314-0.913,4.351-1.042,6.109-0.389c1.759,0.652,3.044,2.007,3.854,4.062
		c0.5,1.27,0.646,2.513,0.438,3.732c-0.207,1.218-0.762,2.316-1.665,3.29c-0.902,0.975-2.101,1.756-3.594,2.346
		c-2.313,0.912-4.344,1.045-6.091,0.396s-3.025-1.999-3.836-4.054c-0.783-1.985-0.745-3.823,0.114-5.515
		C162.058,202.203,163.614,200.913,165.867,200.024z M170.132,210.838c1.813-0.716,3.052-1.623,3.715-2.723
		c0.664-1.1,0.718-2.353,0.163-3.76s-1.449-2.289-2.682-2.646c-1.233-0.356-2.761-0.176-4.582,0.543
		c-1.805,0.711-3.031,1.617-3.68,2.716c-0.649,1.099-0.693,2.361-0.131,3.785c0.555,1.407,1.436,2.287,2.642,2.64
		C166.784,211.745,168.302,211.56,170.132,210.838z"/>
	<path fill="#FFFFFF" d="M154.484,192.677c-0.248-0.63-0.419-1.216-0.514-1.758l2.112-0.488c0.103,0.639,0.241,1.182,0.419,1.631
		c0.453,1.147,1.307,1.946,2.561,2.394c1.254,0.449,2.576,0.398,3.966-0.149l7.614-3.003l0.848,2.148l-14.192,5.598l-0.7-1.773
		l2.532-1.282l-0.041-0.104c-1.132-0.162-2.094-0.517-2.888-1.061C155.408,194.284,154.836,193.566,154.484,192.677z"/>
	<path fill="#FFFFFF" d="M160.086,164.535l-9.232,3.641c-1.132,0.446-1.885,1.023-2.26,1.729c-0.374,0.706-0.36,1.57,0.041,2.589
		c0.527,1.338,1.302,2.174,2.322,2.51c1.021,0.337,2.328,0.188,3.926-0.441l7.926-3.125l0.848,2.148l-9.233,3.642
		c-1.131,0.446-1.884,1.024-2.259,1.73s-0.359,1.573,0.046,2.601c0.531,1.347,1.323,2.174,2.378,2.481s2.5,0.098,4.339-0.627
		l7.446-2.937l0.848,2.148l-14.192,5.598l-0.689-1.747l1.804-1.115l-0.04-0.104c-0.851-0.133-1.616-0.492-2.296-1.077
		c-0.68-0.584-1.2-1.335-1.561-2.25c-0.875-2.219-0.645-3.985,0.692-5.301l-0.041-0.104c-0.909-0.13-1.738-0.512-2.486-1.145
		c-0.748-0.632-1.325-1.462-1.73-2.49c-0.633-1.604-0.694-2.969-0.186-4.093c0.51-1.124,1.671-2.044,3.484-2.759l9.259-3.652
		L160.086,164.535z"/>
	<path fill="#FFFFFF" d="M150.009,150.328c1.321-0.521,2.534-0.431,3.639,0.271c1.104,0.701,2.008,1.941,2.709,3.72
		c0.742,1.882,1.022,3.467,0.843,4.756l-1.994,0.786c0.076-0.817,0.06-1.657-0.05-2.517c-0.109-0.86-0.308-1.652-0.593-2.378
		c-0.443-1.122-0.963-1.914-1.56-2.377s-1.262-0.55-1.995-0.261c-0.553,0.218-0.932,0.644-1.135,1.278
		c-0.204,0.633-0.3,1.751-0.287,3.352c0.029,1.516-0.029,2.624-0.177,3.325s-0.401,1.281-0.76,1.736s-0.862,0.812-1.51,1.067
		c-1.157,0.456-2.255,0.346-3.296-0.332c-1.039-0.677-1.884-1.836-2.53-3.477c-0.603-1.528-0.881-3.145-0.835-4.848l2.05,0.073
		c-0.024,1.656,0.19,3.063,0.646,4.22c0.401,1.02,0.864,1.725,1.388,2.116c0.524,0.393,1.066,0.479,1.628,0.257
		c0.38-0.149,0.665-0.375,0.856-0.675s0.322-0.713,0.394-1.24s0.094-1.493,0.068-2.899c-0.051-1.926,0.118-3.307,0.506-4.144
		C148.403,151.304,149.067,150.699,150.009,150.328z"/>
</g>
<ellipse transform="matrix(-0.3302 0.9439 -0.9439 -0.3302 770.106 -153.453)" fill="#2EA923" cx="439.495" cy="196.492" rx="97.52" ry="49.326"/>
<g>
	<path fill="#FFFFFF" d="M443.452,160.69l19.309-0.56l0.036-0.105c-1.391-0.35-3.015-0.849-4.872-1.498l-12.22-4.275l0.722-2.063
		l19.209,6.722l-1.178,3.363l-17.974,0.54l-0.037,0.104l13.699,11.681l-1.168,3.338l-19.209-6.722l0.781-2.233l12.377,4.331
		c1.419,0.496,2.939,1.096,4.562,1.802l0.037-0.104l-14.704-12.52L443.452,160.69z"/>
	<path fill="#FFFFFF" d="M434.942,185.012l2.202,0.283l0.036-0.104c-0.651-1.034-1.012-1.964-1.082-2.79
		c-0.069-0.826,0.083-1.772,0.457-2.842c0.499-1.428,1.258-2.418,2.277-2.971c1.021-0.553,2.208-0.592,3.565-0.117
		c2.908,1.018,3.619,3.877,2.132,8.577l-0.776,2.472l0.895,0.312c1.13,0.396,2.049,0.444,2.757,0.146
		c0.71-0.297,1.251-0.98,1.624-2.049c0.421-1.201,0.528-2.687,0.322-4.46l1.903-0.086c0.137,0.844,0.167,1.728,0.09,2.649
		c-0.076,0.922-0.263,1.808-0.56,2.657c-0.602,1.717-1.428,2.856-2.479,3.417c-1.052,0.562-2.419,0.547-4.101-0.041l-9.828-3.438
		L434.942,185.012z M438.203,180.622c-0.475,1.358-0.476,2.555-0.003,3.591c0.474,1.035,1.381,1.787,2.722,2.257l1.301,0.454
		l0.671-2.213c0.546-1.756,0.714-3.101,0.504-4.034c-0.209-0.934-0.817-1.576-1.824-1.929c-0.789-0.275-1.474-0.247-2.052,0.086
		C438.943,179.168,438.504,179.764,438.203,180.622z"/>
	<path fill="#FFFFFF" d="M445.17,202.821c-0.225,0.64-0.478,1.195-0.76,1.667l-1.918-1.011c0.34-0.55,0.59-1.053,0.749-1.508
		c0.407-1.165,0.283-2.326-0.374-3.485c-0.656-1.159-1.689-1.985-3.1-2.479l-7.726-2.703l0.763-2.182l14.4,5.039l-0.63,1.8
		l-2.754-0.684l-0.037,0.105c0.75,0.862,1.247,1.759,1.492,2.69C445.521,201.003,445.485,201.92,445.17,202.821z"/>
	<path fill="#FFFFFF" d="M435.579,206.84c0.401,0.563,0.902,1.383,1.5,2.457l3.3,6.375l-0.906,2.589l-4.095-7.98l-10.448,3.35
		l0.924-2.642l8.585-2.703l-0.844-2.14l-5.387-1.885l0.754-2.154l20.444,7.153l-0.754,2.154l-10.84-3.793
		c-0.482-0.168-1.214-0.464-2.197-0.886L435.579,206.84z"/>
	<path fill="#FFFFFF" d="M421.628,222.224c0.745-2.129,1.98-3.582,3.708-4.358c1.727-0.778,3.742-0.764,6.046,0.043
		c2.321,0.812,3.965,2.029,4.933,3.65c0.966,1.62,1.111,3.395,0.438,5.322c-0.632,1.804-1.725,3.024-3.279,3.661
		c-1.555,0.636-3.305,0.613-5.249-0.067l-1.38-0.482l3.471-9.921c-1.705-0.548-3.139-0.569-4.297-0.065
		c-1.16,0.504-1.997,1.491-2.512,2.963c-0.542,1.551-0.756,3.196-0.637,4.939l-1.945-0.681c-0.062-0.888-0.046-1.7,0.049-2.438
		C421.069,224.051,421.288,223.195,421.628,222.224z M434.935,226.216c0.405-1.156,0.351-2.211-0.162-3.162
		c-0.512-0.95-1.413-1.721-2.702-2.31l-2.635,7.529c1.376,0.48,2.537,0.543,3.483,0.187
		C433.865,228.102,434.536,227.354,434.935,226.216z"/>
	<path fill="#FFFFFF" d="M418.647,236.519c-0.135,0.385-0.237,0.768-0.306,1.146c-0.069,0.379-0.109,0.685-0.121,0.917l-1.668-0.584
		c-0.032-0.276-0.005-0.657,0.082-1.144c0.086-0.486,0.194-0.913,0.323-1.28c0.975-2.786,2.929-3.665,5.863-2.639l8.566,2.997
		l0.722-2.062l1.052,0.368l0.185,2.38l2.753,1.995l-0.441,1.261l-3.338-1.167l-1.462,4.179l-1.695-0.594l1.462-4.178l-8.475-2.966
		c-0.867-0.304-1.605-0.33-2.213-0.081C419.328,235.315,418.898,235.8,418.647,236.519z"/>
</g>
<linearGradient id="SVGID_7_" gradientUnits="userSpaceOnUse" x1="94.8535" y1="50.1934" x2="94.8535" y2="369.3965">
	<stop  offset="0" style="stop-color:#FFFFFF"/>
	<stop  offset="1" style="stop-color:#000000"/>
</linearGradient>
<path fill="url(#SVGID_7_)" d="M186.556,354.305l-15.63-15.091v10.087c-47-4.177-84.813-19.364-112.551-45.193
	c-24.792-23.087-40.3-53.806-44.719-88.835c-4.163-32.999,1.861-67.08,17.025-95.965c15.555-29.63,39.566-51.088,67.641-60.421
	l-2.898-8.693C65.09,60.277,39.203,83.311,22.541,115.049C6.515,145.576,0.107,181.577,4.503,216.42
	c4.689,37.185,21.248,69.824,47.631,94.393c29.427,27.402,68.792,43.435,118.792,47.69v10.894L186.556,354.305z"/>
<linearGradient id="SVGID_8_" gradientUnits="userSpaceOnUse" x1="-104.2539" y1="50.1924" x2="-104.2539" y2="369.3955" gradientTransform="matrix(-1 0 0 1 400.6406 0)">
	<stop  offset="0" style="stop-color:#FFFFFF"/>
	<stop  offset="1" style="stop-color:#000000"/>
</linearGradient>
<path fill="url(#SVGID_8_)" d="M413.297,354.305l15.629-15.091v10.087c47-4.177,84.709-19.364,112.445-45.193
	c24.793-23.087,40.247-53.806,44.666-88.835c4.163-32.999-1.889-67.08-17.052-95.965c-15.555-29.63-39.581-51.088-67.653-60.421
	l2.892-8.693c30.334,10.084,56.217,33.117,72.879,64.855c16.026,30.527,22.433,66.528,18.037,101.371
	c-4.689,37.185-21.145,69.824-47.526,94.393c-29.427,27.402-69.688,43.435-118.688,47.69v10.894L413.297,354.305z"/>
</svg>
