<?xml version="1.0" encoding="utf-8"?>
<!-- Generator: Adobe Illustrator 16.0.0, SVG Export Plug-In . SVG Version: 6.00 Build 0)  -->
<!DOCTYPE svg PUBLIC "-//W3C//DTD SVG 1.1//EN" "http://www.w3.org/Graphics/SVG/1.1/DTD/svg11.dtd">
<svg version="1.1" id="Layer_1" xmlns="http://www.w3.org/2000/svg" xmlns:xlink="http://www.w3.org/1999/xlink" x="0px" y="0px"
	 width="600px" height="600px" viewBox="0 0 600 600" enable-background="new 0 0 600 600" xml:space="preserve">
<circle fill="none" stroke="#4F3162" stroke-width="12" stroke-miterlimit="10" cx="300" cy="299.735" r="290.235"/>
<g>
	<path fill="#4F3162" d="M235.031,280.939v24.996c0,3.141,0.715,5.484,2.145,7.031c1.429,1.547,3.668,2.32,6.715,2.32
		c4.03,0,6.979-1.102,8.842-3.305s2.795-5.801,2.795-10.793v-20.25h5.836v38.531h-4.816l-0.844-5.168h-0.316
		c-1.195,1.898-2.854,3.352-4.975,4.359c-2.122,1.008-4.541,1.512-7.26,1.512c-4.688,0-8.197-1.113-10.529-3.34
		c-2.333-2.227-3.498-5.789-3.498-10.688v-25.207H235.031z"/>
	<path fill="#4F3162" d="M298.594,308.959c0,3.586-1.336,6.352-4.008,8.297s-6.422,2.918-11.25,2.918
		c-5.11,0-9.094-0.809-11.953-2.426v-5.414c1.851,0.938,3.837,1.676,5.959,2.215c2.121,0.539,4.166,0.809,6.135,0.809
		c3.046,0,5.391-0.486,7.031-1.459c1.64-0.973,2.461-2.455,2.461-4.447c0-1.5-0.65-2.783-1.951-3.85s-3.838-2.326-7.611-3.779
		c-3.586-1.336-6.135-2.502-7.646-3.498s-2.637-2.127-3.375-3.393s-1.107-2.777-1.107-4.535c0-3.141,1.277-5.619,3.832-7.436
		c2.554-1.816,6.059-2.725,10.512-2.725c4.148,0,8.203,0.844,12.164,2.531l-2.074,4.746c-3.867-1.594-7.371-2.391-10.512-2.391
		c-2.766,0-4.852,0.434-6.258,1.301s-2.109,2.062-2.109,3.586c0,1.031,0.264,1.91,0.791,2.637s1.376,1.418,2.549,2.074
		c1.172,0.656,3.422,1.605,6.75,2.848c4.57,1.664,7.658,3.34,9.264,5.027C297.79,304.283,298.594,306.404,298.594,308.959z"/>
	<path fill="#4F3162" d="M324.363,320.174c-5.695,0-10.189-1.734-13.482-5.203s-4.939-8.285-4.939-14.449
		c0-6.211,1.529-11.145,4.588-14.801s7.166-5.484,12.322-5.484c4.828,0,8.648,1.588,11.461,4.764s4.219,7.365,4.219,12.568v3.691
		h-26.543c0.117,4.523,1.26,7.957,3.428,10.301s5.221,3.516,9.158,3.516c4.148,0,8.25-0.867,12.305-2.602v5.203
		c-2.062,0.891-4.014,1.529-5.854,1.916S326.965,320.174,324.363,320.174z M322.781,285.123c-3.094,0-5.561,1.008-7.4,3.023
		s-2.924,4.805-3.252,8.367h20.145c0-3.68-0.82-6.498-2.461-8.455S325.828,285.123,322.781,285.123z"/>
	<path fill="#4F3162" d="M373.336,308.959c0,3.586-1.336,6.352-4.008,8.297s-6.422,2.918-11.25,2.918
		c-5.109,0-9.094-0.809-11.953-2.426v-5.414c1.852,0.938,3.838,1.676,5.959,2.215s4.166,0.809,6.135,0.809
		c3.047,0,5.391-0.486,7.031-1.459s2.461-2.455,2.461-4.447c0-1.5-0.65-2.783-1.951-3.85s-3.838-2.326-7.611-3.779
		c-3.586-1.336-6.135-2.502-7.646-3.498s-2.637-2.127-3.375-3.393s-1.107-2.777-1.107-4.535c0-3.141,1.277-5.619,3.832-7.436
		s6.059-2.725,10.512-2.725c4.148,0,8.203,0.844,12.164,2.531l-2.074,4.746c-3.867-1.594-7.371-2.391-10.512-2.391
		c-2.766,0-4.852,0.434-6.258,1.301s-2.109,2.062-2.109,3.586c0,1.031,0.264,1.91,0.791,2.637s1.377,1.418,2.549,2.074
		s3.422,1.605,6.75,2.848c4.57,1.664,7.658,3.34,9.264,5.027S373.336,306.404,373.336,308.959z"/>
</g>
</svg>
