<?xml version="1.0" encoding="utf-8"?>
<!-- Generator: Adobe Illustrator 16.0.0, SVG Export Plug-In . SVG Version: 6.00 Build 0)  -->
<!DOCTYPE svg PUBLIC "-//W3C//DTD SVG 1.1//EN" "http://www.w3.org/Graphics/SVG/1.1/DTD/svg11.dtd">
<svg version="1.1" id="Layer_1" xmlns="http://www.w3.org/2000/svg" xmlns:xlink="http://www.w3.org/1999/xlink" x="0px" y="0px"
	 width="600px" height="600px" viewBox="0 0 600 600" enable-background="new 0 0 600 600" xml:space="preserve">
<circle fill="none" stroke="#000000" stroke-width="12" stroke-miterlimit="10" cx="299.578" cy="298.794" r="290.235"/>
<circle fill="none" stroke="#4F3162" stroke-width="12" stroke-miterlimit="10" cx="298.578" cy="298.794" r="290.235"/>
<g>
	<path fill="#4F3162" d="M154.687,107.817v18.747c0,2.355,0.536,4.113,1.608,5.273c1.071,1.16,2.751,1.74,5.036,1.74
		c3.022,0,5.233-0.826,6.631-2.479s2.097-4.351,2.097-8.095v-15.188h4.377v28.898h-3.612l-0.633-3.876h-0.237
		c-0.896,1.424-2.141,2.514-3.731,3.27s-3.405,1.134-5.444,1.134c-3.517,0-6.148-0.835-7.897-2.505s-2.623-4.342-2.623-8.016
		v-18.905H154.687z"/>
	<path fill="#4F3162" d="M203.492,136.716v-18.694c0-2.355-0.537-4.113-1.608-5.273c-1.072-1.16-2.752-1.74-5.036-1.74
		c-3.023,0-5.238,0.817-6.645,2.452c-1.407,1.635-2.109,4.333-2.109,8.095v15.161h-4.377v-28.898h3.56l0.712,3.955h0.211
		c0.896-1.424,2.152-2.526,3.771-3.309c1.617-0.782,3.418-1.174,5.405-1.174c3.48,0,6.1,0.84,7.857,2.518
		c1.757,1.68,2.637,4.364,2.637,8.056v18.853H203.492z"/>
	<path fill="#4F3162" d="M230.044,107.29c1.282,0,2.435,0.105,3.454,0.316l-0.606,4.061c-1.196-0.264-2.251-0.396-3.164-0.396
		c-2.338,0-4.338,0.949-5.999,2.848s-2.491,4.263-2.491,7.093v15.504h-4.377v-28.898h3.612l0.501,5.353h0.211
		c1.071-1.881,2.363-3.331,3.876-4.351C226.572,107.8,228.233,107.29,230.044,107.29z"/>
	<path fill="#4F3162" d="M251.111,137.243c-4.271,0-7.643-1.301-10.112-3.902s-3.704-6.214-3.704-10.837
		c0-4.658,1.146-8.358,3.44-11.101s5.375-4.113,9.242-4.113c3.621,0,6.486,1.191,8.596,3.572c2.109,2.383,3.164,5.524,3.164,9.427
		v2.769H241.83c0.088,3.393,0.944,5.968,2.57,7.726s3.916,2.637,6.869,2.637c3.111,0,6.187-0.65,9.229-1.951v3.902
		c-1.547,0.668-3.011,1.147-4.391,1.437C254.728,137.099,253.062,137.243,251.111,137.243z M249.925,110.955
		c-2.32,0-4.171,0.756-5.551,2.268s-2.192,3.604-2.438,6.275h15.108c0-2.76-0.616-4.873-1.846-6.341
		C253.968,111.689,252.209,110.955,249.925,110.955z"/>
	<path fill="#4F3162" d="M292.851,107.817v2.769l-5.353,0.633c0.491,0.615,0.932,1.42,1.318,2.413
		c0.386,0.993,0.58,2.113,0.58,3.361c0,2.83-0.967,5.089-2.9,6.776c-1.935,1.688-4.588,2.531-7.963,2.531
		c-0.861,0-1.671-0.07-2.426-0.211c-1.863,0.984-2.795,2.224-2.795,3.718c0,0.791,0.325,1.376,0.976,1.754
		c0.649,0.378,1.767,0.566,3.349,0.566h5.115c3.128,0,5.532,0.659,7.211,1.978s2.519,3.234,2.519,5.748
		c0,3.199-1.283,5.638-3.85,7.317c-2.567,1.678-6.312,2.518-11.232,2.518c-3.78,0-6.693-0.703-8.741-2.109s-3.071-3.393-3.071-5.959
		c0-1.758,0.562-3.278,1.688-4.562c1.124-1.283,2.706-2.153,4.746-2.61c-0.738-0.334-1.358-0.853-1.859-1.556
		s-0.751-1.521-0.751-2.452c0-1.055,0.28-1.978,0.844-2.769c0.562-0.791,1.45-1.556,2.663-2.294
		c-1.494-0.615-2.712-1.661-3.652-3.138s-1.41-3.164-1.41-5.062c0-3.164,0.949-5.603,2.848-7.317c1.898-1.713,4.588-2.57,8.068-2.57
		c1.512,0,2.874,0.176,4.087,0.527H292.851z M269.806,141.567c0,1.564,0.659,2.751,1.978,3.56s3.207,1.213,5.669,1.213
		c3.674,0,6.394-0.55,8.16-1.647c1.767-1.1,2.65-2.589,2.65-4.47c0-1.564-0.484-2.649-1.45-3.257
		c-0.967-0.605-2.786-0.909-5.458-0.909h-5.247c-1.987,0-3.533,0.475-4.641,1.424S269.806,139.792,269.806,141.567z
		 M272.179,117.072c0,2.021,0.57,3.551,1.714,4.588c1.143,1.037,2.732,1.556,4.772,1.556c4.271,0,6.407-2.074,6.407-6.223
		c0-4.342-2.162-6.513-6.486-6.513c-2.057,0-3.639,0.554-4.746,1.661S272.179,114.893,272.179,117.072z"/>
	<path fill="#4F3162" d="M302.896,107.817v18.747c0,2.355,0.536,4.113,1.608,5.273s2.751,1.74,5.036,1.74
		c3.023,0,5.234-0.826,6.631-2.479c1.398-1.652,2.097-4.351,2.097-8.095v-15.188h4.377v28.898h-3.612l-0.633-3.876h-0.237
		c-0.896,1.424-2.141,2.514-3.731,3.27s-3.405,1.134-5.444,1.134c-3.516,0-6.148-0.835-7.897-2.505s-2.623-4.342-2.623-8.016
		v-18.905H302.896z"/>
	<path fill="#4F3162" d="M336.304,136.716h-4.377V95.688h4.377V136.716z"/>
	<path fill="#4F3162" d="M363.356,136.716l-0.87-4.113h-0.211c-1.441,1.811-2.879,3.037-4.312,3.678
		c-1.433,0.642-3.221,0.963-5.365,0.963c-2.865,0-5.111-0.738-6.736-2.215c-1.627-1.477-2.439-3.577-2.439-6.302
		c0-5.836,4.667-8.895,14.001-9.176l4.904-0.158V117.6c0-2.268-0.487-3.942-1.464-5.022c-0.975-1.082-2.535-1.622-4.68-1.622
		c-2.408,0-5.133,0.738-8.174,2.215l-1.345-3.349c1.424-0.773,2.983-1.38,4.681-1.819c1.695-0.439,3.396-0.659,5.102-0.659
		c3.445,0,5.998,0.765,7.66,2.294c1.66,1.529,2.491,3.981,2.491,7.356v19.723H363.356z M353.469,133.631
		c2.725,0,4.864-0.747,6.421-2.241c1.555-1.494,2.333-3.586,2.333-6.275v-2.61l-4.377,0.185c-3.48,0.123-5.99,0.664-7.528,1.621
		c-1.538,0.959-2.307,2.448-2.307,4.47c0,1.582,0.479,2.786,1.438,3.612C350.405,133.218,351.746,133.631,353.469,133.631z"/>
	<path fill="#4F3162" d="M384.951,133.631c0.773,0,1.521-0.057,2.241-0.171s1.292-0.233,1.714-0.356v3.349
		c-0.475,0.229-1.174,0.417-2.096,0.566c-0.924,0.149-1.754,0.225-2.492,0.225c-5.59,0-8.385-2.944-8.385-8.833v-17.191h-4.14
		v-2.109l4.14-1.819l1.846-6.17h2.531v6.697h8.385v3.401h-8.385v17.007c0,1.74,0.413,3.076,1.239,4.008
		S383.51,133.631,384.951,133.631z"/>
	<path fill="#4F3162" d="M406.889,137.243c-4.271,0-7.643-1.301-10.112-3.902s-3.704-6.214-3.704-10.837
		c0-4.658,1.147-8.358,3.44-11.101c2.295-2.742,5.375-4.113,9.242-4.113c3.621,0,6.486,1.191,8.596,3.572
		c2.109,2.383,3.164,5.524,3.164,9.427v2.769h-19.907c0.088,3.393,0.944,5.968,2.571,7.726c1.625,1.758,3.915,2.637,6.868,2.637
		c3.111,0,6.188-0.65,9.229-1.951v3.902c-1.547,0.668-3.011,1.147-4.39,1.437C410.505,137.099,408.84,137.243,406.889,137.243z
		 M405.702,110.955c-2.32,0-4.171,0.756-5.551,2.268s-2.192,3.604-2.438,6.275h15.108c0-2.76-0.615-4.873-1.846-6.341
		S407.987,110.955,405.702,110.955z"/>
	<path fill="#4F3162" d="M444.646,132.84h-0.237c-2.021,2.936-5.045,4.403-9.07,4.403c-3.779,0-6.72-1.292-8.819-3.876
		c-2.102-2.584-3.151-6.258-3.151-11.021s1.055-8.464,3.164-11.101s5.045-3.955,8.807-3.955c3.92,0,6.926,1.424,9.018,4.271h0.343
		l-0.185-2.083l-0.105-2.03v-11.76h4.377v41.027h-3.56L444.646,132.84z M435.893,133.578c2.988,0,5.154-0.812,6.5-2.438
		c1.344-1.626,2.017-4.25,2.017-7.871v-0.923c0-4.096-0.682-7.018-2.044-8.767s-3.537-2.624-6.525-2.624
		c-2.566,0-4.531,0.998-5.893,2.993c-1.363,1.995-2.044,4.812-2.044,8.45c0,3.691,0.677,6.478,2.03,8.358
		S433.273,133.578,435.893,133.578z"/>
</g>
<circle fill="#66050E" cx="305.888" cy="293.751" r="118.823"/>
<circle fill="#66050E" cx="305.888" cy="293.752" r="107.737"/>
<g>
	<path fill="#F90310" d="M240.704,293.794c0-11.558,2.89-22.393,8.668-32.505c5.778-10.113,13.724-18.088,23.837-23.924
		c10.113-5.837,21.006-8.755,32.679-8.755c11.558,0,22.392,2.89,32.505,8.668s18.088,13.725,23.924,23.837
		c5.836,10.113,8.755,21.006,8.755,32.679c0,11.384-2.803,22.075-8.408,32.071c-5.605,9.998-13.464,18.001-23.577,24.011
		s-21.179,9.015-33.198,9.015c-11.962,0-22.999-2.992-33.112-8.97c-10.112-5.983-17.984-13.972-23.621-23.969
		C243.522,315.955,240.704,305.236,240.704,293.794z M249.805,293.794c0,9.997,2.514,19.346,7.542,28.043
		c5.027,8.696,11.888,15.544,20.585,20.54c8.697,5.002,18.017,7.499,27.956,7.499c10.055,0,19.388-2.514,27.997-7.541
		c8.611-5.027,15.442-11.83,20.499-20.415c5.056-8.578,7.586-17.955,7.586-28.126c0-10.055-2.514-19.388-7.541-27.998
		c-5.028-8.61-11.833-15.441-20.411-20.501c-8.586-5.053-17.959-7.583-28.13-7.583c-10.056,0-19.388,2.514-27.998,7.541
		s-15.444,11.83-20.498,20.415C252.332,274.246,249.805,283.623,249.805,293.794z M309.441,265.363
		c-7.223,0-12.787,2.514-16.685,7.541c-3.903,5.027-5.853,11.99-5.853,20.89c0,9.708,1.834,16.903,5.506,21.583
		c3.666,4.682,9.287,7.021,16.857,7.021c4.971,0,11.066-1.3,18.29-3.9v10.748c-2.774,1.156-5.622,2.139-8.54,2.947
		s-6.398,1.214-10.443,1.214c-11.211,0-19.82-3.48-25.83-10.447c-6.01-6.96-9.016-16.685-9.016-29.166
		c0-12.077,3.191-21.67,9.577-28.778c6.386-7.107,15.099-10.661,26.136-10.661c7.396,0,14.504,1.733,21.323,5.2l-5.027,10.229
		C319.496,266.836,314.064,265.363,309.441,265.363z"/>
</g>
</svg>
